<?xml version="1.0" encoding="utf-8"?>
<!-- Generator: Adobe Illustrator 23.0.2, SVG Export Plug-In . SVG Version: 6.00 Build 0)  -->
<svg version="1.1" id="Layer_1" xmlns="http://www.w3.org/2000/svg" xmlns:xlink="http://www.w3.org/1999/xlink" x="0px" y="0px"
	 viewBox="0 0 792 576" style="enable-background:new 0 0 792 576;" xml:space="preserve">
<style type="text/css">
	.st0{fill:#D8D8D8;stroke:#000000;stroke-miterlimit:10;}
	.st1{fill:none;stroke:#000000;stroke-miterlimit:10;}
</style>
<path class="st0" d="M220.37,377.89c0,0,37.86-9.92,50.14-89.89s40.93-72.81,40.93-72.81s36.84-6.85,44,72.81S396,377.89,396,377.89
	c-1.57,2.38-3.95,5.46-7.38,8.48c-3.4,2.99-6.71,4.94-9.26,6.19c1.75,1.05,3.5,2.1,5.26,3.15c-2.07,3.11-5.62,7.67-11.22,11.79
	c-5.2,3.83-10.19,5.85-13.64,6.93c1.86,1.35,3.72,2.7,5.58,4.05c-8.28,2.99-17.85,5.89-28.59,8.18c-8.28,1.77-16.03,2.93-23.11,3.66
	c-8.74-0.54-19.06-1.82-30.44-4.51c-12.67-3-23.44-6.99-32.08-10.84c1.25-1.54,2.5-3.09,3.76-4.63c-4.31-0.75-9.71-2.09-15.65-4.54
	c-5.81-2.4-10.49-5.19-14.04-7.65c1.75-1.72,3.51-3.45,5.26-5.17c-1.51-0.77-4.81-2.7-7.29-6.63
	C220.99,382.91,220.5,379.57,220.37,377.89z"/>
<path class="st1" d="M261.04,342.73c-2.26,7.34-5.95,16.83-12.13,27.01c-6.2,10.21-12.95,17.87-18.45,23.26"/>
<path class="st1" d="M352.03,342.73c0,0,6.26,38.49,27.34,49.84"/>
<path class="st1" d="M280.38,359.84c-1.22,6.58-3.45,15-7.72,24.19c-5.56,11.95-12.46,20.64-17.77,26.33"/>
<path class="st1" d="M330.51,358.74c0.23,6.35,1.43,16.68,6.72,28.05c6.89,14.8,17.08,23.58,22.53,27.65"/>
<ellipse transform="matrix(0.2084 -0.978 0.978 0.2084 -19.4504 498.5637)" cx="298.28" cy="261.3" rx="17.05" ry="8.33"/>
<ellipse transform="matrix(0.978 -0.2084 0.2084 0.978 -47.4449 74.2716)" cx="328.7" cy="262.27" rx="8.33" ry="17.05"/>
<path d="M298.28,298.02c6.01-10.82,14.88-10.02,14.88-10.02c1.66,0.34,4.45,1.16,7.16,3.31c2.94,2.33,4.28,5.04,5.08,6.71
	c0.78,1.61,1.44,2.99,1.59,4.91c0,0,0.3,3.83-1.93,7.15c-4.82,7.2-25.08,6.83-28.65-1.57C295.95,307.44,294.84,304.04,298.28,298.02
	z"/>
</svg>
