<?xml version="1.0" encoding="utf-8"?>
<!-- Generator: Adobe Illustrator 23.0.2, SVG Export Plug-In . SVG Version: 6.00 Build 0)  -->
<svg version="1.1" id="Layer_1" xmlns="http://www.w3.org/2000/svg" xmlns:xlink="http://www.w3.org/1999/xlink" x="0px" y="0px"
	 viewBox="0 0 792 576" style="enable-background:new 0 0 792 576;" xml:space="preserve">
<style type="text/css">
	.st0{fill:#707070;stroke:#000000;stroke-miterlimit:10;}
	.st1{fill:#828282;stroke:#000000;stroke-miterlimit:10;}
	.st2{fill:#9EBA8C;stroke:#000000;stroke-miterlimit:10;}
	.st3{font-family:'Talon-Regular';}
	.st4{font-size:90px;}
	.st5{letter-spacing:1;}
</style>
<path class="st0" d="M254.88,346.36V215.19c1.65-36.39,32.93-63.93,66.88-61.69c31.06,2.05,57.08,28.54,58.44,61.69
	c0,43.72,0,87.45,0,131.17c-12.55,0-25.09,0-37.64,0C313.34,346.36,284.11,346.36,254.88,346.36z"/>
<path class="st1" d="M262.77,350.53V219.36c1.65-36.39,32.93-63.93,66.88-61.69c31.06,2.05,57.08,28.54,58.44,61.69
	c0,43.72,0,87.45,0,131.17c-12.55,0-25.09,0-37.64,0C321.23,350.53,292,350.53,262.77,350.53z"/>
<path class="st2" d="M243.68,322.63l24.75,29.58l-11.07-26.16l19.52,26.16l-9.26-23.95l12.28,17.31l6.24-14.49l-4.02,16.5
	l7.65-20.12l-5.43,26.36l10.46-27.57l3.02,23.75l10.87-22.94l13.89,21.33l-5.03-21.94l8.45,23.14l7.45-34.01l-3.02,35.42l7.24-16.3
	l8.05,14.09l7.65-15.5l-1.81,14.09l11.07-12.68l-4.23-6.84l14.29,17.11l9.06-18.11l-4.02,22.54l13.68-27.17
	c-1.29,9.23-2.57,18.46-3.86,27.69c-0.21,1.3-0.43,2.6-0.64,3.9c-43.58,0-87.16,0-130.74,0L243.68,322.63z"/>
<text transform="matrix(1 0 0 1 281.8947 273.039)" class="st3 st4 st5">R.I.P.</text>
</svg>
