<?xml version="1.0" encoding="utf-8"?>
<!-- Generator: Adobe Illustrator 23.0.2, SVG Export Plug-In . SVG Version: 6.00 Build 0)  -->
<svg version="1.1" id="Layer_1" xmlns="http://www.w3.org/2000/svg" xmlns:xlink="http://www.w3.org/1999/xlink" x="0px" y="0px"
	 viewBox="0 0 351.3 335.65" style="enable-background:new 0 0 351.3 335.65;" xml:space="preserve">
<style type="text/css">
	.st0{fill:#E29359;stroke:#000000;stroke-miterlimit:10;}
	.st1{fill:#2C5611;stroke:#1E3311;stroke-miterlimit:10;}
	.st2{fill:url(#SVGID_1_);}
	.st3{fill:url(#SVGID_2_);}
	.st4{fill:url(#SVGID_3_);}
	.st5{fill:url(#SVGID_4_);}
</style>
<ellipse class="st0" cx="227.34" cy="191.19" rx="123.47" ry="129.93"/>
<ellipse class="st0" cx="123.97" cy="191.19" rx="123.47" ry="129.93"/>
<ellipse class="st0" cx="144.39" cy="204.24" rx="123.47" ry="129.93"/>
<ellipse class="st0" cx="204.8" cy="204.01" rx="123.47" ry="129.93"/>
<ellipse class="st0" cx="173.04" cy="204.01" rx="113.2" ry="129.03"/>
<ellipse class="st0" cx="174.96" cy="205.08" rx="42.65" ry="130.07"/>
<path class="st1" d="M130.96,66.19c0,0,26.81-6.7,37.53-34.59s6.47-31.1,6.47-31.1h19.62c0,0-2.66,37.35,5.28,49.87
	c7.94,12.51,23.86,15.82,23.86,15.82l-10.99,2.68l19.67,8.48h-24.5l14.68,10.62l-22.99-6.23l-3.37,10.54l-18.61-12.42l-17.15,2.87
	l-1.61-4.21l-15.65,1l3.32-2.61L134.17,75l11.8-7.21L130.96,66.19z"/>
<linearGradient id="SVGID_1_" gradientUnits="userSpaceOnUse" x1="67.9984" y1="168.1899" x2="152.8541" y2="137.305">
	<stop  offset="0" style="stop-color:#666666"/>
	<stop  offset="0.0922" style="stop-color:#4C4C4C"/>
	<stop  offset="0.2547" style="stop-color:#232323"/>
	<stop  offset="0.383" style="stop-color:#090909"/>
	<stop  offset="0.4604" style="stop-color:#000000"/>
</linearGradient>
<polygon class="st2" points="63.61,119.65 156.63,147.67 84.11,212.46 "/>
<linearGradient id="SVGID_2_" gradientUnits="userSpaceOnUse" x1="219.4151" y1="168.1899" x2="304.2708" y2="137.305" gradientTransform="matrix(-1 0 0 1 502.6227 0)">
	<stop  offset="0" style="stop-color:#666666"/>
	<stop  offset="0.0922" style="stop-color:#4C4C4C"/>
	<stop  offset="0.2547" style="stop-color:#232323"/>
	<stop  offset="0.383" style="stop-color:#090909"/>
	<stop  offset="0.4604" style="stop-color:#000000"/>
</linearGradient>
<polygon class="st3" points="287.59,119.65 194.58,147.67 267.09,212.46 "/>
<radialGradient id="SVGID_3_" cx="171.4492" cy="210.4628" r="21.3708" gradientUnits="userSpaceOnUse">
	<stop  offset="0.2912" style="stop-color:#000000"/>
	<stop  offset="1" style="stop-color:#4D4D4D"/>
</radialGradient>
<polygon class="st4" points="194.58,191.01 148.32,193.03 175.14,229.91 "/>
<radialGradient id="SVGID_4_" cx="174.5993" cy="271.5534" r="70.3118" gradientUnits="userSpaceOnUse">
	<stop  offset="0.2912" style="stop-color:#000000"/>
	<stop  offset="1" style="stop-color:#4D4D4D"/>
</radialGradient>
<polygon class="st5" points="81.34,237.07 103.87,263.54 114.09,248.15 128.25,266.62 139.95,248.15 156.63,266.62 173.04,251.84 
	185.5,266.62 202.12,251.84 217.62,266.62 227.34,246.92 241.09,266.62 267.86,243.84 237.83,296.78 227.34,282.62 221.82,299.24 
	210.74,285.08 201.85,306.04 194.58,287.55 185.5,304.17 174.96,287.55 166.42,304.79 156.63,287.55 151.64,306.04 144.39,287.43 
	136.87,303.55 130.96,283.24 123.97,291.24 120.86,271.55 110.12,287.39 "/>
</svg>
