<?xml version="1.0" encoding="utf-8"?>
<!-- Generator: Adobe Illustrator 23.0.2, SVG Export Plug-In . SVG Version: 6.00 Build 0)  -->
<svg version="1.1" id="Layer_1" xmlns="http://www.w3.org/2000/svg" xmlns:xlink="http://www.w3.org/1999/xlink" x="0px" y="0px"
	 viewBox="0 0 371.49 295.77" style="enable-background:new 0 0 371.49 295.77;" xml:space="preserve">
<style type="text/css">
	.st0{fill:url(#SVGID_1_);}
	.st1{fill:url(#SVGID_2_);}
	.st2{fill:url(#SVGID_3_);}
	.st3{fill:url(#SVGID_4_);}
</style>
<g>
	<polygon points="183.36,126.91 101.28,95.39 98.78,94.43 98.24,92 78.04,0.66 80.53,0 107.91,89.45 104.87,86.06 186.94,117.58 	
		"/>
</g>
<g>
	<polygon points="185.08,136.44 71.3,134.76 68.63,134.72 67.26,132.6 4.49,35.91 7.24,34.02 75.48,126.91 71.44,124.76 
		185.22,126.44 	"/>
</g>
<g>
	<polygon points="189.56,178.17 76.19,169.65 80.4,167.87 2.16,255.86 0,254.05 72.73,161.45 74.28,159.48 76.94,159.68 
		190.31,168.19 	"/>
</g>
<g>
	<polygon points="186.26,122.49 300.04,120.81 296,122.96 364.25,30.07 367,31.96 304.23,128.65 302.86,130.77 300.19,130.81 
		186.41,132.49 	"/>
</g>
<g>
	<polygon points="181.18,164.24 294.55,155.73 297.2,155.53 298.76,157.5 371.49,250.1 369.33,251.91 291.09,163.92 295.3,165.7 
		181.93,174.21 	"/>
</g>
<g>
	<polygon points="182.5,194.38 96.15,210.93 99.74,208.13 57.89,291.76 53.8,289.86 90.67,203.92 91.66,201.61 94.27,201.11 
		180.61,184.56 	"/>
</g>
<g>
	<polygon points="179.76,117.58 261.83,86.06 258.79,89.45 286.17,0 288.66,0.66 268.46,92 267.92,94.43 265.42,95.39 
		183.35,126.91 	"/>
</g>
<g>
	<polygon points="186.09,184.56 272.44,201.11 275.04,201.61 276.03,203.92 312.9,289.86 308.81,291.76 266.96,208.13 
		270.55,210.93 184.21,194.38 	"/>
</g>
<g>
	<path d="M164.44,57.75c-0.05-0.16-0.13-0.37-0.16-0.5l-0.1-0.39c-0.07-0.26-0.13-0.52-0.18-0.76c-0.1-0.49-0.22-0.99-0.3-1.46
		c-0.19-0.96-0.34-1.91-0.46-2.86c-0.26-1.89-0.41-3.77-0.51-5.64c-0.16-3.74,0.03-7.48,0.57-11.12c0.5-3.64,1.49-7.2,2.82-10.53
		l1.05-2.46l1.26-2.34c0.21-0.38,0.41-0.77,0.63-1.15l0.74-1.09l1.47-2.13l0.89,0.45l-0.57,2.44l-0.28,1.2
		c-0.07,0.41-0.11,0.82-0.16,1.23l-0.3,2.41l-0.07,2.42c-0.01,3.2,0.3,6.33,1.04,9.36c0.7,3.03,1.68,5.95,2.92,8.73
		c0.63,1.39,1.29,2.74,2.03,4.04c0.36,0.65,0.74,1.28,1.12,1.89c0.19,0.31,0.39,0.59,0.58,0.88c0.1,0.15,0.19,0.27,0.29,0.39
		l0.14,0.18c0.05,0.07,0.06,0.05,0.09,0.07L164.44,57.75z"/>
</g>
<g>
	<path d="M189.85,51.01c0.03-0.03,0.05-0.01,0.09-0.07l0.14-0.18c0.09-0.12,0.19-0.24,0.29-0.39c0.19-0.29,0.39-0.56,0.58-0.88
		c0.39-0.61,0.76-1.24,1.12-1.89c0.73-1.29,1.4-2.65,2.03-4.04c1.23-2.78,2.22-5.7,2.92-8.73c0.74-3.03,1.05-6.16,1.04-9.36
		l-0.07-2.42l-0.3-2.41c-0.05-0.41-0.1-0.82-0.16-1.23l-0.28-1.2l-0.57-2.44l0.89-0.45l1.47,2.13l0.74,1.09
		c0.22,0.38,0.42,0.76,0.63,1.15l1.26,2.34l1.05,2.46c1.32,3.33,2.32,6.89,2.82,10.53c0.54,3.64,0.73,7.37,0.57,11.12
		c-0.09,1.87-0.24,3.75-0.51,5.64c-0.13,0.94-0.28,1.9-0.46,2.86c-0.08,0.48-0.2,0.97-0.3,1.46c-0.05,0.24-0.12,0.5-0.18,0.76
		l-0.1,0.39c-0.03,0.13-0.1,0.34-0.16,0.5L189.85,51.01z"/>
</g>
<radialGradient id="SVGID_1_" cx="188.43" cy="197.3727" r="251.3385" fx="438.6774" fy="220.767" gradientUnits="userSpaceOnUse">
	<stop  offset="0.0108" style="stop-color:#C1272D"/>
	<stop  offset="0.1375" style="stop-color:#74171B"/>
	<stop  offset="0.2815" style="stop-color:#210708"/>
	<stop  offset="0.3475" style="stop-color:#000000"/>
</radialGradient>
<ellipse class="st0" cx="185.15" cy="114.08" rx="43.95" ry="69.55"/>
<radialGradient id="SVGID_2_" cx="185.1494" cy="209.8083" r="74.4453" gradientUnits="userSpaceOnUse">
	<stop  offset="0" style="stop-color:#C1272D"/>
	<stop  offset="0.2564" style="stop-color:#74171B"/>
	<stop  offset="0.548" style="stop-color:#210708"/>
	<stop  offset="0.6816" style="stop-color:#000000"/>
</radialGradient>
<ellipse class="st1" cx="185.15" cy="209.81" rx="60.78" ry="85.96"/>
<radialGradient id="SVGID_3_" cx="160.7954" cy="79.85" r="5.146" gradientTransform="matrix(3.0367 0 0 2.5506 -321.6367 -120.4606)" gradientUnits="userSpaceOnUse">
	<stop  offset="0" style="stop-color:#C1272D"/>
	<stop  offset="0.2564" style="stop-color:#74171B"/>
	<stop  offset="0.548" style="stop-color:#210708"/>
	<stop  offset="0.6816" style="stop-color:#000000"/>
</radialGradient>
<ellipse class="st2" cx="166.64" cy="83.2" rx="11.82" ry="15.69"/>
<radialGradient id="SVGID_4_" cx="173.7323" cy="79.85" r="5.146" gradientTransform="matrix(3.0367 0 0 2.5506 -321.6367 -120.4606)" gradientUnits="userSpaceOnUse">
	<stop  offset="0" style="stop-color:#C1272D"/>
	<stop  offset="0.2564" style="stop-color:#74171B"/>
	<stop  offset="0.548" style="stop-color:#210708"/>
	<stop  offset="0.6816" style="stop-color:#000000"/>
</radialGradient>
<ellipse class="st3" cx="205.93" cy="83.2" rx="11.82" ry="15.69"/>
</svg>
