<?xml version="1.0" encoding="utf-8"?>
<!-- Generator: Adobe Illustrator 23.0.2, SVG Export Plug-In . SVG Version: 6.00 Build 0)  -->
<svg version="1.1" id="Layer_1" xmlns="http://www.w3.org/2000/svg" xmlns:xlink="http://www.w3.org/1999/xlink" x="0px" y="0px"
	 viewBox="0 0 575.47 418.52" style="enable-background:new 0 0 575.47 418.52;" xml:space="preserve">
<style type="text/css">
	.st0{clip-path:url(#SVGID_2_);fill:#AFAFAF;}
	.st1{clip-path:url(#SVGID_2_);}
	.st2{clip-path:url(#SVGID_4_);fill:#FFFFFF;stroke:#000000;stroke-width:5;stroke-miterlimit:10;}
	.st3{clip-path:url(#SVGID_4_);fill:none;stroke:#000000;stroke-width:5;stroke-miterlimit:10;}
	.st4{clip-path:url(#SVGID_2_);fill:#960606;}
	.st5{clip-path:url(#SVGID_2_);fill:#AFAFAF;stroke:#960606;stroke-width:8;stroke-miterlimit:10;}
</style>
<g>
	<defs>
		<rect id="SVGID_1_" width="575.47" height="418.52"/>
	</defs>
	<clipPath id="SVGID_2_">
		<use xlink:href="#SVGID_1_"  style="overflow:visible;"/>
	</clipPath>
	<rect class="st0" width="575.47" height="418.52"/>
	<g class="st1">
		<defs>
			<rect id="SVGID_3_" width="575.47" height="418.52"/>
		</defs>
		<clipPath id="SVGID_4_">
			<use xlink:href="#SVGID_3_"  style="overflow:visible;"/>
		</clipPath>
		<line class="st2" x1="0" y1="418.52" x2="575.47" y2="0"/>
		<line class="st2" x1="0" y1="313.86" x2="575.47" y2="115.63"/>
		<line class="st2" x1="575.47" y1="214.74" x2="0" y2="214.74"/>
		<line class="st2" x1="575.47" y1="334.19" x2="0" y2="108.86"/>
		<line class="st2" x1="63.19" y1="0" x2="478.27" y2="418.52"/>
		<line class="st2" x1="298.69" y1="418.52" x2="252.95" y2="0"/>
		<line class="st2" x1="166.54" y1="418.52" x2="395.26" y2="0"/>
		<path class="st3" d="M267.7,223.83c0.7-0.58,1-0.99,0.9-1.25c-0.16-0.41-1.37-0.41-3.63,0c1.39-1.2,1.56-2.14,1.55-2.65
			c-0.03-2.4-4.13-4.86-10.44-5.79c1.11-1.18,1.35-2.94,0.59-4.34c-0.72-1.33-2.2-2.09-3.72-1.91c11.64-2.46,3.68-12.87,3.68-12.87
			c16.61,5.81,16.2-13.19,16.2-13.19c9.09,20.22,25.87-5.13,25.87-5.13c4.34,13.79,29.42,3.19,29.42,3.19
			c7.45,18.27,21.3,13.6,21.3,13.6c-16.1,13.76,7.05,21.24,7.05,21.24c-25.44,12.15-6.24,31.24-6.24,31.24
			c-26.5,4.58-10.49,32.84-10.49,32.84s-56.44-45.81-56.88-5.26c0,0-13.3-28.03-36.08-1.85c0,0,4.4-22.13-23.53-15.56
			c0,0,16.5-18.66-15.45-13.89c0,0,35.13-19.27-4.36-27.54c0,0,29.32-5.77,7.63-23.25c0,0,26.94-2.82,18.58-23.67
			c0,0,32.69,20.21,39.48-19.79c0,0,19.85,28.1,45.24,0c0,0,5.82,27.07,48.6,6.52c0,0-13.17,27.33,23.73,26.11
			c0,0-28.97,22.33,8.57,34.09c0,0-38.64,22.81,0,48.88c0,0-42.12-5.7-28.07,42.89c0,0-68.06-35.78-80.22,4.74
			c0,0-31.61-36.81-57.37-8.12c0,0-0.18-40.09-42.9-20.39c0,0,30.13-35.62-20.16-26.25c0,0,35.09-27.22-7.6-44.41
			c0,0,29.34-7.59,12.17-36.22c0,0,41.5,1.37,26.31-40.52c0,0,59.12,14.16,66.59-34.1c0,0,36.83,42.16,75.92,0
			c0,0-5.23,42.14,61.28,25.49c0,0-27.49,43.48,41.13,34.76c0,0-48.9,34.3,12.07,53.25c0,0-48.01,21.54-6.27,69.59
			c0,0-61.51-2.27-43.15,60.31c0,0-92.12-46.43-111.72,24.43c-1.39-20.36-14.53-37.85-33.14-44.24c-25.24-8.67-46.3,7.97-47.54,8.98
			c0.19-1.28,2.56-18.87-10.4-30.32c-10.73-9.48-27.34-10.66-40.63-2.47c0,0,9.68-34.85-26.69-33.62c0,0,26.09-44.4-17.7-52.65
			c0,0,45.45-34.28,7.09-57.23c0,0,59.67-15.59,39.32-56.28c0,0,68.65,6.58,95.3-46.76c0,0,45.87,41.11,104.8,3.27
			c0,0-6.86,53.86,77.64,39.8c0,0-26.78,50.05,36.94,49.53c0,0-26.46,41.51,23.06,67.67c0,0-46.2,36.68,3.74,91.88
			c0,0-84.76-4.54-65.1,73.28c0,0-108.86-37.89-141.29,29.87c-2.23-5.16-15.57-34.75-49.09-46.61c-23.98-8.48-44.9-3.16-52.33-0.88
			c0,0-0.33-69.73-59.99-43.61c0,0,6.72-50.67-20.09-45.19c0,0,13.64-36.09-35.08-58.74c0,0,41.22-44.54,5.67-71.52
			c0,0,74.52-31.31,47.98-70.05c0,0,100.08-12.05,118.13-64.47c0,0,57.56,50.37,130.89,10.47c0,0,15.84,56.82,96.76,49.14
			c0,0-22.47,62.31,50.6,62.25c0,0-44.15,51.22,15.61,84.19c0,0-37.93,48.29,7.23,111.42c0,0-86.75-15.87-85.38,83.61
			c0,0-148.77-22.79-170.91,49.84c0,0-15.19-89.64-119.56-64.13c0,0-7.02-58.73-69.95-56.37c0,0,20.91-40.29-25.38-54.13
			c0,0,9.8-53.11-39.39-70.24c0,0,34.05-42.25,9.9-84.62c0,0,57.61-24.39,57.64-80.96c0,0,126.58-30.83,140.99-87.36
			c0,0,66.59,70.79,142.31,25.28c0,0,39.53,71.12,124.73,53.26c0,0-30.69,58.68,42.66,79.7c0,0-25.4,48.61,22.35,94.7
			c0,0-24.99,55.46,0,121.95c0,0-91.92,22.31-90.14,107.09"/>
		<path class="st3" d="M284.69,481.27c0,0-41.5-107.54-128.51-45.07c0,0-28.55-94.03-87.01-67.99c0,0,48.8-59.14-20.89-70.99
			c0,0,15.09-54.5-39.35-82.48c0,0,37.29-62.29,10.61-98.24c0,0,69.6-55.93,63.85-96.14c0,0,122.77-21.02,165.6-88.4"/>
		<path class="st3" d="M435.07-59.11c0,0-17.56,90.59,124.42,70.73c0,0-29.82,61.27,46.49,97.23"/>
		<path class="st3" d="M616.24,354.54c0,0-99.51,43.73-87.46,113.34"/>
		<path class="st3" d="M131.19,457.17c0,0-6.9-75.53-93.14-66.33c0,0,40.44-75.66-14.2-85.21c0,0,7.38-63.36-47.5-90.89
			c0,0,48.19-62.79,9.82-115c0,0,76.85-67.83,77.02-106.2"/>
		<path class="st3" d="M-30.09,67.37c0,0,60.93-49.07,65.02-96.91"/>
		<path class="st3" d="M95.59,479.1c0,0,5.9-75.25-86.66-67.07c0,0,30.73-97.75-15.03-98.17"/>
	</g>
	<path class="st4" d="M0,241.07h575.47c0.78,2.88,1.59,7.58,0,12.6c-2.61,8.21-8.81,8.3-12.79,17.39
		c-2.76,6.31-0.63,8.24-4.47,16.13c-0.6,1.23-4.63,9.52-7.61,8.87c-1.4-0.3-2.14-2.5-2.54-4.35c-4.55-18.77-12.52-30.77-20.01-30.53
		c-2.8,0.09-4.93,1.82-6.09,2.9c-11.67,10.82-6.76,32.53-6.76,32.53s-4.91,23.56-14.74,0c-9.83-23.56-34.4-32.53-34.4-32.53
		c-16.75,0.38-23.77,5.31-27.03,10c-3.32,4.78-4.2,11.44-7.42,11.54c-3.16,0.09-7.13-6.21-7.33-6.41
		c-3.18-13.38-8.03-17.24-11.67-18.43c-12.64-4.12-23.91,19.69-41.23,16.78c-9.33-1.57-9.6-9.07-25.37-14.37
		c-8.69-2.92-14.36-4.82-20.3-2.73c-18.46,6.5-22.37,41.14-27.72,40.22c-3.48-0.6-2.73-15.75-5.58-16.04
		c-4.03-0.42-8.95,29.28-13.34,28.9c-1.5-0.13-2.46-3.74-3.08-7.4c-0.9-3.79-2.41-9.31-4.9-15.73c-4.86-12.49-7.9-20.3-14.42-25.78
		c-14.61-12.28-42.86-9.68-49.66,1.58c-2.88,4.76-3.05,12.93-9.4,15.68c-2.23,0.97-2.56,0.05-4.13,1.01
		c-7.77,4.73-2.74,24.6-7.57,27.16c-0.29,0.15-0.56,0.22-0.84,0.21c-3.98-0.19-0.13-20.79-10.2-37.21
		c-2.55-4.16-6.65-10.84-13.81-11.89c-9.84-1.45-17.79,8.87-18.51,9.84c-5.13,10.5-6.93,16.39-7.6,19.87
		c-0.01,0.05-0.53,2.76-1.92,6.16c-1.37,3.38-2.67,6.55-4.29,6.57c-1.82,0.02-3.33-3.94-5.3-9.09c-0.8-2.1-1.37-3.92-1.77-5.3
		c-8.66-27.75-13.11-33.75-15.59-33.35c-6.82,1.1-15.67,53.35-16.78,59.87c-0.17,1-0.63,3.77-1.86,3.99
		c-2.61,0.47-6.67-10.83-7.85-14.09c-7.87-21.9-5.33-34.39-14.4-39.73c-1.01-0.59-2.73-1.61-5.19-1.81
		c-14.17-1.14-21.09,27.58-33.17,26.79c-4.22-0.27-7.84-5.11-15.07-14.8C5.58,267.82,0,257.09,0,257.09c0,0,0,0,0,0V241.07z"/>
	<rect x="1.85" y="127.83" class="st5" width="571.24" height="113.24"/>
</g>
</svg>
