<?xml version="1.0" encoding="utf-8"?>
<!-- Generator: Adobe Illustrator 23.0.2, SVG Export Plug-In . SVG Version: 6.00 Build 0)  -->
<svg version="1.1" id="Layer_1" xmlns="http://www.w3.org/2000/svg" xmlns:xlink="http://www.w3.org/1999/xlink" x="0px" y="0px"
	 viewBox="0 0 503.96 383.16" style="enable-background:new 0 0 503.96 383.16;" xml:space="preserve">
<style type="text/css">
	.st0{stroke:#FFFFFF;stroke-miterlimit:10;}
	.st1{fill:#B5C93D;}
</style>
<path class="st0" d="M117.38,173.93c138.18-313.6,277.56,0,277.56,0l44.15,21.63c1.36,4.21,4.29,15.23,0.15,27.95
	c-6.46,19.87-24.77,27.45-27.48,28.52c-3.38,0.06-8.84-0.04-15.41-1.14c-32.61-5.47-48.81-28.32-88.97-63.42
	c-26.47-23.13-39.64-35.03-50.65-35.13c-26.48-0.26-48.32,33.41-62.38,61.43c-9.39,23.55-30.94,38.92-53.83,38.76
	c-23.33-0.16-38.42-16.37-41.16-19.42C68.92,161.72,38.48,90.32,8.04,18.93L117.38,173.93z"/>
<ellipse class="st0" cx="439.09" cy="156.22" rx="64.36" ry="51.15"/>
<path d="M196.23,177.07c3.59,12.39,8.13,22.15,12.19,29.45c7.19,12.95,11.76,16.21,13.87,25.73c2.99,13.48-2.08,25.35-4.19,30.21
	c-7.85,18.1-20.52,20.7-28.11,38.52c-4.34,10.18-4.68,19.83-4.33,26.23c2.09,2.43,18.8,22.86,24.05,31.21
	c0.37,0.58,1.63,2.76,1.03,5.31c-0.72,3.05-3.82,5.41-7.65,5.55c-4.61-0.59-9.22-1.18-13.83-1.77l-28.31-41.1
	c-5.18-42.91-10.37-85.81-15.55-128.72C162.34,190.82,179.28,183.95,196.23,177.07z"/>
<path d="M133.16,204.2c21.98,11.02,37.27,29.46,36.93,48.54c-0.32,17.96-14.43,33.09-18.11,36.79
	c-11.99,12.06-22.4,12.47-30.2,25.51c-5.07,8.49-6.05,17.32-6.08,23.46c1.61,2.77,14.29,25.93,17.91,35.1
	c0.25,0.64,1.1,3.01,0.04,5.41c-1.27,2.87-4.75,4.62-8.54,4.05c-4.42-1.43-8.84-2.85-13.27-4.28l-20.28-45.6
	c2.93-21.35,4.66-47.44,2.64-76.98c-1.32-19.39-4.03-36.91-7.26-52.22C102.35,204.05,117.75,204.12,133.16,204.2z"/>
<path d="M118.38,174.92c-2.01-8.15-4.03-16.31-6.04-24.46c-1.53,3.27-3.06,6.54-4.59,9.81c-1.17-6.61-2.35-13.22-3.52-19.84
	l-5.86,8.12l-3.61-18.58l-2.71,10.01l-2.25-18.49c-0.91,3.16-1.81,6.31-2.72,9.47c-0.26-6.31-0.52-12.63-0.78-18.94l-3.26,11.72
	l-3.61-21.64l-3.61,13.98c0.01-7.62,0.02-15.24,0.03-22.86c-1.36,5.07-2.73,10.13-4.09,15.2c-0.77-7.57-1.54-15.13-2.3-22.7
	c-1.56,2.87-3.12,5.74-4.67,8.61c0.41-5,0.82-10,1.23-15c-2.35,2.31-4.7,4.63-7.05,6.94c0.71-5.31,1.42-10.61,2.13-15.92
	c-2.05,2.83-4.1,5.66-6.15,8.49c-0.04-7.05-0.08-14.1-0.12-21.15c-1.48,1.93-2.95,3.85-4.43,5.78c-0.49-3.24-0.98-6.48-1.48-9.72
	c-1.57,1.71-3.14,3.43-4.71,5.14c0.29-4.71,0.59-9.42,0.88-14.14c-1.68,2.88-3.37,5.77-5.05,8.65c0.54-5.53,1.09-11.05,1.63-16.58
	c-2.12,3.47-4.25,6.94-6.37,10.41c0.12-3.83,0.24-7.66,0.36-11.5c-1.24,2.41-2.49,4.83-3.73,7.24c-0.42-5.38-0.85-10.76-1.27-16.15
	c-1.38,2.11-2.77,4.23-4.15,6.34c-2.17-5.1-4.35-10.21-6.52-15.31v16.97l-4.65-24.09v17.25L9.56,4.44v8.73L5.39,0l1.52,19.91
	L0,10.31l9.61,18.98l-7.38-4.1l9.37,10.07l-9.84-6.09c2.95,3.95,5.9,7.9,8.85,11.84c-2.74-0.1-5.48-0.2-8.23-0.3
	c4.71,3.62,9.43,7.25,14.14,10.87c-3.85-0.78-7.7-1.56-11.55-2.34c3.42,3.05,7.47,6.2,12.21,9.16c1.52,0.95,3.02,1.83,4.49,2.63
	c-5.27-1.5-10.54-3-15.8-4.51c5.52,3.46,11.04,6.92,16.57,10.38c-3.38-0.72-6.75-1.43-10.13-2.15c4.95,3.06,9.91,6.12,14.86,9.18
	c-4.39-1.07-8.77-2.15-13.16-3.22c5.49,3.76,10.98,7.51,16.47,11.27c-3.34-1.23-6.69-2.46-10.03-3.69
	c4.81,4.03,9.62,8.06,14.43,12.1c-3.8-1.41-7.6-2.83-11.4-4.24c5.45,4.36,10.9,8.71,16.36,13.07c-4.32-2.12-8.63-4.23-12.95-6.35
	c4.79,5.12,9.57,10.25,14.36,15.37c-1.79-0.93-3.58-1.86-5.36-2.78c4.05,5.26,8.11,10.52,12.16,15.79
	c-2.19-0.66-4.38-1.31-6.57-1.97c4.07,4.6,8.13,9.2,12.2,13.8c-2.74-0.85-5.48-1.69-8.22-2.54c4.19,4.4,8.37,8.8,12.56,13.2
	c-2.92-1.53-5.85-3.06-8.77-4.58c4.45,6.21,8.89,12.43,13.34,18.64c-3.12-0.76-6.24-1.51-9.36-2.27c4.72,3.57,9.44,7.13,14.17,10.7
	c-3.08-0.22-6.16-0.45-9.25-0.67c4.68,3.62,9.37,7.24,14.05,10.86c-3.04,0.1-6.08,0.2-9.13,0.31c4.14,2.28,8.27,4.56,12.41,6.84
	c-3.13,0.34-6.25,0.68-9.38,1.02c6.96,6.47,13.92,12.93,20.88,19.4C97.42,194.29,107.9,184.6,118.38,174.92z"/>
<path d="M353.89,224.41c7.11,44.89,8.45,61.95,8.02,68.36c-0.07,0.98-0.72,7.15-0.81,15.66c-0.06,4.94,0.16,6.97-0.24,9.19
	c-1.74,9.82-3.96,12.85-2.32,18.89c1.44,5.3,4.85,9.25,10.96,16.32c4,4.63,5.55,5.46,8.72,10.06c2.39,3.47,2.91,5.05,5.59,8.04
	c2.54,2.84,4.62,5.18,8.11,6.37c2.42,0.82,4.86,0.72,9.73,0.51c2.88-0.12,5.26-0.39,6.88-0.61c0.48-0.39,4.06-3.37,4.07-8.4
	c0.01-3.48-1.69-6.58-4.02-8.38c-3.1-2.41-4.81-0.55-9.96-2.45c-5.12-1.88-8.77-5.35-11.7-9.08c-1.22-1.56-2.44-3.12-3.67-4.67
	c-0.91-1.32-2.14-3.33-3.15-5.95c-3.56-9.21-1.24-17.64,0.35-25.19c1.91-9.09,2.07-18.47,3.5-27.64
	c1.89-12.17,3.92-25.02,6.11-38.48C378,239.43,365.94,231.92,353.89,224.41z"/>
<path d="M396.99,243.76c3.11,22.32,3.41,33.59,3,39.76c-0.09,1.41-0.72,7.38-0.81,15.66c-0.06,4.94,0.16,6.97-0.24,9.19
	c-1.74,9.82-3.96,12.85-2.32,18.89c1.44,5.3,4.85,9.25,10.96,16.32c4,4.63,5.55,5.46,8.72,10.06c2.39,3.47,2.91,5.05,5.59,8.04
	c2.54,2.84,4.62,5.18,8.11,6.37c2.42,0.82,4.86,0.72,9.73,0.51c2.88-0.12,5.26-0.39,6.88-0.61c0.48-0.39,4.06-3.37,4.07-8.4
	c0.01-3.48-1.69-6.58-4.02-8.38c-3.1-2.41-4.81-0.55-9.96-2.45c-5.12-1.88-8.77-5.35-11.7-9.08c-1.22-1.56-2.44-3.12-3.67-4.67
	c-0.91-1.32-2.14-3.33-3.15-5.95c-3.56-9.21-1.24-17.64,0.35-25.19c3.11-14.78,0.47-11.11,3.5-27.64
	c2.1-11.45,5.66-26.43,12.03-43.58C421.71,236.31,409.35,240.04,396.99,243.76z"/>
<polygon points="386.92,135.73 386.92,88.3 417.61,118.48 "/>
<polygon points="491.44,135.73 491.44,88.3 460.74,118.48 "/>
<path d="M374.73,140.35l-5.67-24.28l-2.35,7.01l-5.43-23.39l-2.01,12.33l-9.05-23.71v11.35l-9.01-20.03v8.68l-9.01-20.97v11
	l-9.42-20.42v10.97l-9.42-19.16v10.85l-9.83-20.27v12.82l-11.06-18.96l2.48,13.47l-12.72-19.21L285,42.44l-14.64-14.02l2.94,9.58
	l-13.18-11.63l2.44,9.13l-20.87-9.13l4.11,8.35l-19.41-4.27l4.2,6.94l-20.13-0.05l6.69,5.11l-14.36,1.77l6.29,2.75l-24.78,7.28
	l10.43,3.93l-21.44,8.65l13.57-0.59l-21.24,9.24l12.59-0.98l-19.86,11.41l12.19-2.55l-23.6,17.5l10.42,1.13l-13.96,10.28l7.67-1.18
	l-13.96,8.06l8.29-0.54l-12.81,8.8h8.26l-12.33,10.03l7.3-1.71l-11.88,13.31l4.59,0.96l-10.14,13.79c1.31,0.15,2.62,0.29,3.92,0.44
	c-1.64,3.23-3.28,6.47-4.92,9.7l128.67-103.5L374.73,140.35z"/>
<path class="st1" d="M425.42,149.04c0,0-3.52-11.26-11.9-12.97c-7.12-1.46-16.17,1.87-17.34,8.12c-1.02,5.49,4.4,11.26,9.89,13.06
	C412.68,159.42,420.73,156.24,425.42,149.04z"/>
<path class="st1" d="M452.28,149.04c0,0,3.52-11.26,11.9-12.97c7.12-1.46,16.17,1.87,17.34,8.12c1.02,5.49-4.4,11.26-9.89,13.06
	C465.02,159.42,456.96,156.24,452.28,149.04z"/>
<path d="M411.73,136.2c-0.73,0.45-5.18,3.31-6.19,9c-1.25,7.01,3.88,11.91,4.24,12.25c0.58-0.35,5.66-3.61,6.29-10.07
	C416.7,140.84,412.21,136.64,411.73,136.2z"/>
<path d="M466.15,136.2c0.73,0.45,5.18,3.31,6.19,9c1.25,7.01-3.88,11.91-4.24,12.25c-0.58-0.35-5.66-3.61-6.29-10.07
	C461.17,140.84,465.66,136.64,466.15,136.2z"/>
</svg>
