<?xml version="1.0" encoding="utf-8"?>
<!-- Generator: Adobe Illustrator 23.0.2, SVG Export Plug-In . SVG Version: 6.00 Build 0)  -->
<svg version="1.1" id="Layer_1" xmlns="http://www.w3.org/2000/svg" xmlns:xlink="http://www.w3.org/1999/xlink" x="0px" y="0px"
	 viewBox="0 0 176.9 216.3" style="enable-background:new 0 0 176.9 216.3;" xml:space="preserve">
<style type="text/css">
	.st0{fill:#D8D8D8;stroke:#000000;stroke-miterlimit:10;}
	.st1{fill:none;stroke:#000000;stroke-miterlimit:10;}
</style>
<path class="st0" d="M0.5,163.4c0,0,37.9-9.9,50.1-89.9S91.6,0.7,91.6,0.7s36.8-6.9,44,72.8s40.6,89.9,40.6,89.9
	c-1.6,2.4-4,5.5-7.4,8.5c-3.4,3-6.7,4.9-9.3,6.2c1.8,1,3.5,2.1,5.3,3.1c-2.1,3.1-5.6,7.7-11.2,11.8c-5.2,3.8-10.2,5.9-13.6,6.9
	c1.9,1.4,3.7,2.7,5.6,4c-8.3,3-17.9,5.9-28.6,8.2c-8.3,1.8-16,2.9-23.1,3.7c-8.7-0.5-19.1-1.8-30.4-4.5c-12.7-3-23.4-7-32.1-10.8
	c1.2-1.5,2.5-3.1,3.8-4.6c-4.3-0.8-9.7-2.1-15.6-4.5c-5.8-2.4-10.5-5.2-14-7.6c1.8-1.7,3.5-3.5,5.3-5.2c-1.5-0.8-4.8-2.7-7.3-6.6
	C1.2,168.4,0.7,165,0.5,163.4z"/>
<path class="st1" d="M41.2,128.2c-2.3,7.3-5.9,16.8-12.1,27c-6.2,10.2-12.9,17.9-18.4,23.3"/>
<path class="st1" d="M132.2,128.2c0,0,6.3,38.5,27.3,49.8"/>
<path class="st1" d="M60.5,145.3c-1.2,6.6-3.5,15-7.7,24.2c-5.6,12-12.5,20.6-17.8,26.3"/>
<path class="st1" d="M110.7,144.2c0.2,6.4,1.4,16.7,6.7,28c6.9,14.8,17.1,23.6,22.5,27.6"/>
<ellipse transform="matrix(0.2084 -0.978 0.978 0.2084 16.3304 113.7286)" cx="78.4" cy="46.8" rx="17" ry="8.3"/>
<ellipse transform="matrix(0.978 -0.2084 0.2084 0.978 -7.5607 23.7319)" cx="108.8" cy="47.7" rx="8.3" ry="17"/>
<path d="M78.4,83.5c6-10.8,14.9-10,14.9-10c1.7,0.3,4.5,1.2,7.2,3.3c2.9,2.3,4.3,5,5.1,6.7c0.8,1.6,1.4,3,1.6,4.9
	c0,0,0.3,3.8-1.9,7.1c-4.8,7.2-25.1,6.8-28.6-1.6C76.1,92.9,75,89.5,78.4,83.5z"/>
</svg>
