<?xml version="1.0" encoding="utf-8"?>
<!-- Generator: Adobe Illustrator 23.0.2, SVG Export Plug-In . SVG Version: 6.00 Build 0)  -->
<svg version="1.1" id="Layer_1" xmlns="http://www.w3.org/2000/svg" xmlns:xlink="http://www.w3.org/1999/xlink" x="0px" y="0px"
	 viewBox="0 0 150.3 202.6" style="enable-background:new 0 0 150.3 202.6;" xml:space="preserve">
<style type="text/css">
	.st0{fill:#707070;stroke:#000000;stroke-miterlimit:10;}
	.st1{fill:#828282;stroke:#000000;stroke-miterlimit:10;}
	.st2{fill:#9EBA8C;stroke:#000000;stroke-miterlimit:10;}
	.st3{font-family:'Talon-Regular';}
	.st4{font-size:90px;}
</style>
<path class="st0" d="M12.8,193.5V62.3C14.5,25.9,45.8-1.6,79.7,0.6c31.1,2.1,57.1,28.5,58.4,61.7c0,43.7,0,87.5,0,131.2
	c-12.5,0-25.1,0-37.6,0C71.3,193.5,42.1,193.5,12.8,193.5z"/>
<path class="st1" d="M20.7,197.7V66.5C22.4,30.1,53.7,2.6,87.6,4.8c31.1,2.1,57.1,28.5,58.4,61.7c0,43.7,0,87.4,0,131.2
	c-12.5,0-25.1,0-37.6,0C79.2,197.7,50,197.7,20.7,197.7z"/>
<path class="st2" d="M1.6,169.8l24.8,29.6l-11.1-26.2l19.5,26.2l-9.3-24l12.3,17.3l6.2-14.5l-4,16.5l7.6-20.1l-5.4,26.4l10.5-27.6
	l3,23.8l10.9-22.9l13.9,21.3l-5-21.9l8.5,23.1l7.5-34l-3,35.4l7.2-16.3l8,14.1l7.6-15.5l-1.8,14.1l11.1-12.7l-4.2-6.8l14.3,17.1
	l9.1-18.1l-4,22.5l13.7-27.2c-1.3,9.2-2.6,18.5-3.9,27.7c-0.2,1.3-0.4,2.6-0.6,3.9c-43.6,0-87.2,0-130.7,0L1.6,169.8z"/>
<text transform="matrix(1 0 0 1 39.8461 120.1665)" class="st3 st4">R.I.P.</text>
</svg>
