<?xml version="1.0" encoding="utf-8"?>
<!-- Generator: Adobe Illustrator 23.0.2, SVG Export Plug-In . SVG Version: 6.00 Build 0)  -->
<svg version="1.1" id="tattoo_tace" xmlns="http://www.w3.org/2000/svg" xmlns:xlink="http://www.w3.org/1999/xlink" x="0px"
	 y="0px" viewBox="0 0 692 727.2" style="enable-background:new 0 0 692 727.2;" xml:space="preserve">
<style type="text/css">
	.st0{fill:#B3B3B3;}
	.st1{fill:#660A59;}
	.st2{fill:#6D53B9;}
	.st3{fill:none;stroke:#000000;stroke-miterlimit:10;}
</style>
<g>
	
		<image style="overflow:visible;enable-background:new    ;" width="426" height="159" id="mouth_fill_1_" xlink:href="ACB97DC2BEDF4B02.png"  transform="matrix(1 0 0 1 69.9367 477.7945)">
	</image>
	<path id="skull_fill_1_" class="st0" d="M123.2,126.2c4.7-5.5,33-33,40.9-41.1s32.2-37,60-51.1s59-24.9,59-24.9s34.8-8.9,73.6-1.6
		c38.8,7.3,98,29.1,98,29.1s25.9,9.5,73.6,31.3c47.7,21.8,120.9,63.7,128.2,75c7.3,11.4,16.4,17.7,22.3,45.5s6.1,94.2,6.1,94.2
		s0.3,38.6-1.5,60.3s-8.4,79.3-8.4,79.3s-2,22.6-22.2,57.3c-20.3,34.7-29.6,50.4-29.6,50.4s-22,35.8-29.3,46.1s-22.8,34.6-32.1,41.7
		c-9.3,7.1-39.9,28-48.5,29.6c-8.6,1.6-10.2,1.6-20,0s-13.2-4.8-19.4,0.2s-17.5,18.4-18.7,23.7s-10.7,20.3-10.7,20.3
		s-7.3,12.3-12.3,13.9c-5,1.6-9.6,5.2-22.8,6.2s-18,4.1-34.8,5.2c-16.9,1.1-58.8,6.8-88.2,4.6c-29.4-2.3-75-4.1-83.6-4.8
		c-8.7-0.7-69,1.4-90.9-0.5c-21.2-1.8,0.8-0.9-51.9-11.2c-6.1-1.2-15.1-2.9-20-10.2c-1.6-2.3-2.4-7.8-3.9-18.7
		c-1.3-9.2-1.4-14.3,1.6-18.4c0.9-1.3,1.9-2.2,2.5-2.7c5.1-3.2,15.6-10.8,21.6-23.9c1.8-3.8,4.5-10.6,4.2-19.3
		c-0.1-2.8-0.6-5.7-1.7-9c-3.3-10-8.6-22.8-10.4-25.5s3.1-20.3,6-23.2c3.7-3.7,4.8-8.3,9-9.6c5.5-1.6,12.2,1.6,17.4,8
		c0,0,6-6.4,10.5-4.3c4.5,2.1,10.3,7.1,10.3,7.1s9.3-10.1,13.1-8.6s4.3,0.8,5.4,2.1s3.5,3.6,3.9,5.9s0-3.9,4.2-5.3
		c4.2-1.4,6.7-2.2,11.6-0.5c4.9,1.7,9.3,2.2,9.3,5.1s-0.1,6.8-0.1,6.8s1.3-9.9,4.8-10.4s9.3-2.3,12.7-0.2c3.4,2.1,7,4.3,7.4,7.6
		s0.7,7.8,0.7,7.8s1.2-10.3,6.2-12.5c5-2.2,9.4-2.8,12-2c2.5,0.8,7.2,1.2,8.6,5.8s1.7,9.1,1.5,10.4c-0.2,1.4,6-12.4,11-13
		c5-0.6,12.3,0,15.3,2.3c3,2.3,5.5,2.3,5.7,6.5s0.9-6.3,8-6s11-1,16.4,3.1s7.3,7,7.3,7s3.5-7.8,7.8-8.2c4.3-0.5,6.2-0.5,9.8,1.2
		c3.6,1.6,4.6,2.7,4.6,2.7s3-0.2,5.7,0.5c2.7,0.7,5.9,2,6.4,4.1c0.5,2.1,0.3,7.8,0.2,10c-0.1,2.2,4.3-4.6,10.1-7
		c5.8-2.3,8.9-3.9,16.6-1.3c7.7,2.7,12.2,5.6,13.3,8.6s1.9,8,1.5,9.3s5.6-6,11.2-6.1s15.9-0.2,20.9,4.7s7.7,5.6,6.6,9.4
		c-1.1,3.8-0.5-4.9,7.1-4c7.5,0.8,20-1.4,22.2,2.7c2.2,4,4.7,9.9,3.7,20s-1.3,12.9-1.3,12.9s4,4.7,13.9-5.3s21.1-13.6,29-40
		c7.9-26.4,9-23.2,9.1-34c0.1-10.8,1.8-18-4.8-22c-6.6-4-8.9-3.3-9.2-3.3s-8.2-1.2-16,9.3s-14,27.6-14,27.6s-0.6,4.2,0.2,8.2
		s-4.8,12.7-4.8,12.7s-0.2,6.4-10.5,4.8c-10.3-1.7-17.4-3.6-17.4-3.6l-8.1-4.3c0,0-0.3,3.2-1.3,3.4c-1.1,0.3-2.6,1.9-4.9,1.5
		s-12.9-4.2-12.9-4.2s-9.7-3-9.7-3.3s-7.2-0.3-5.5-4c1.6-3.7-0.6-2.2-5.8-1.1c-5.2,1.1-22.2-5.4-22.2-5.4s-2.5-1.7-2.5-5.4
		s1.5,5.1-8.2,4.6s-19.8-4.1-23.4-7.1s-9.8-6.5-9.8-8.5c0.1-1.9,0.1-1.9,0.1-1.9s-1.3,1.8-4.6,3.3c-3.3,1.5-1.9,4.4-9.2,4.3
		c-7.3-0.1-15-1.4-16.9-3.1c-1.9-1.7-5.4-5.4-5.3-6.4c0.1-0.9-0.6,2.6-5.9,3.6c-5.3,0.9-14.6,1.3-20.1,0.2s-10.5-2-11.8-4.6
		s-0.8-3.1-0.8-3.1s-0.2,5.3-6.5,6s-12.3,1.9-17,0.7c-4.7-1.3-11.7-3.7-12.4-7.1c-0.7-3.4,0.2,2.2-7.6,1.9
		c-7.8-0.2-12.5,1.4-16.5,0.2s-10.3-1-9.2-8.6s0.4,7-6.9,6.9c-7.3-0.1-17.9,0.5-19.7,0s-8.2-2.2-8.2-6.8s0.5,4.7-9.2,6.8
		s-13.5,3.4-17.8,3.1s-7.7,2.2-7.9-5.9c-0.2-8.1,1.1-20.9,3.2-24.2c2.1-3.3-0.9-9.8,12.4-25.7s21.9-25.7,21.9-25.7
		s-19.1,5.6-37.5,2.6c-18.4-3-28.8-6.1-45.7-6.1C3.4,457,3.8,419,3.8,419s2.9-21.8,9.4-43.7s5.9-24.8,5.9-24.8s14.4-59.2,14.8-63.2
		s2.8-18,5.4-24.2s8.4-29.2,12.5-39.3c4.1-10.1,11.6-30.3,20.3-41s24.5-25.5,26-26.4C99.7,155.5,123.2,126.2,123.2,126.2z"/>
	<g id="skull_outline_stroke_1_">
		<path d="M121.2,124.5l1.1-1.3l1.1-1.2l2.2-2.3l4.4-4.5l8.8-9l17.6-18l4.4-4.5c1.5-1.5,2.8-3,4.2-4.5c2.8-3.1,5.7-6.2,8.6-9.3
			c5.8-6.1,11.9-12.1,18.3-17.8c6.4-5.6,13.1-11,20.3-15.7c1.8-1.1,3.7-2.3,5.5-3.4c1.9-1,3.8-2.2,5.7-3.1c3.8-1.9,7.6-3.8,11.4-5.6
			c15.3-7.2,30.9-13.6,46.9-19.4l0.1,0l0.2,0c2.1-0.5,4.1-0.9,6.1-1.3c2-0.4,4-0.7,6-1c2-0.3,4-0.6,6-0.9c2-0.2,4-0.5,6.1-0.7
			c8.1-0.8,16.2-1.1,24.4-0.9c2,0.1,4.1,0.1,6.1,0.2l6.1,0.4l6.1,0.7c2,0.2,4,0.6,6.1,0.9c8.1,1.4,15.9,3.1,23.7,5.1
			c7.8,2,15.5,4.1,23.2,6.3c7.7,2.2,15.3,4.6,23,7s15.2,4.9,22.8,7.5c3.8,1.3,7.5,2.6,11.4,4c3.8,1.4,7.5,2.9,11.2,4.3
			c14.9,5.9,29.6,12.1,44.3,18.5c7.3,3.2,14.6,6.4,21.9,9.8c7.3,3.4,14.5,6.9,21.7,10.5c14.3,7.2,28.5,14.7,42.5,22.5
			c14,7.8,27.8,15.9,41.4,24.8c3.4,2.3,6.8,4.6,10.1,7.1c0.8,0.6,1.7,1.3,2.5,2c0.8,0.7,1.7,1.4,2.5,2.1l1.3,1.2
			c0.4,0.4,0.9,0.8,1.3,1.3s0.9,0.9,1.4,1.6l0.7,1l0.3,0.4l0.2,0.3c2,3,4.3,6,6.8,9.4c2.5,3.4,4.9,7.1,6.9,10.9
			c4.1,7.8,6.7,16,8.6,24.1l0.7,3.1l0.6,3.1c0.2,1,0.4,2.1,0.6,3.1l0.4,3.1l0.4,3.1l0.3,3c0.2,2,0.5,4.1,0.7,6.1
			c1.6,16.1,2.3,32.1,2.8,48.2c0.5,16,0.6,32.1,0.4,48.1c-0.1,8-0.3,16-0.6,24.1c-0.2,4-0.4,8.1-0.7,12.2c-0.3,4.1-0.7,8.1-1.1,12.1
			c-1.6,15.9-3.3,31.8-5.1,47.6l-1.3,11.9l-0.7,5.9l-0.3,3l-0.2,1.4c-0.1,0.6-0.1,1.2-0.2,1.8c-0.7,4.4-1.7,8.5-2.8,12.5
			c-1.1,4-2.5,8-3.9,11.9c-2.9,7.8-6.3,15.3-10.1,22.6c-1,1.8-1.9,3.6-2.9,5.4l-3,5.3l-6.1,10.3l-24.4,41.3
			c-8.4,13.6-16.8,27.1-25.7,40.6c-1.1,1.7-2.3,3.4-3.5,5.1l-3.4,4.8l-6.8,9.9c-4.6,6.6-9.3,13.2-14.7,19.6l-2.1,2.4l-2.2,2.4
			c-0.8,0.8-1.6,1.6-2.5,2.4l-1.4,1.2l-0.7,0.6l-0.6,0.5c-3.3,2.5-6.6,4.8-9.9,7.1c-6.7,4.6-13.4,9-20.3,13.2
			c-3.5,2.1-7,4.2-10.8,6.1c-0.9,0.5-1.9,1-2.9,1.4c-1,0.5-2.1,0.9-3.2,1.3c-0.5,0.2-1.3,0.4-2,0.6l-1.1,0.3
			c-0.2,0.1-0.4,0.1-0.5,0.1l-0.4,0.1l-3.1,0.5c-2.1,0.3-4.4,0.6-6.9,0.7c-2.5,0-4.8-0.3-6.8-0.6l-3.1-0.5l-1.5-0.2l-1.6-0.3
			c-2.2-0.4-4.3-0.9-6.2-1.4c-1-0.2-1.8-0.4-2.6-0.6c-0.7-0.1-1.3-0.2-1.7-0.2c-0.4,0-0.6,0-0.9,0.2c-0.1,0-0.3,0.2-0.5,0.2
			c-0.2,0.2-0.4,0.2-0.7,0.4l-0.4,0.3c-0.1,0.1-0.3,0.2-0.4,0.3c-0.3,0.3-0.6,0.5-1,0.8c-0.7,0.6-1.3,1.2-2,1.8
			c-1.3,1.3-2.6,2.6-3.9,4.1c-2.5,2.8-4.9,5.8-7,8.7c-0.5,0.7-1,1.5-1.4,2.2c-0.2,0.4-0.4,0.7-0.6,1l-0.3,0.5l-0.2,0.4l-0.1,0.2
			c0,0.1-0.1,0.1-0.1,0.1c0,0.1,0,0.1,0,0.1c0,0,0,0-0.1,0.3l-0.2,0.6c-0.1,0.4-0.2,0.8-0.3,1.1c-0.2,0.6-0.5,1.2-0.7,1.8l-0.7,1.6
			c-1.9,4-3.9,7.5-6,11c-1,1.8-2.1,3.5-3.2,5.2l-1.6,2.6c-0.6,0.9-1.2,1.8-1.8,2.7c-1.2,1.8-2.5,3.5-4,5.2c-0.7,0.9-1.5,1.7-2.4,2.6
			c-0.5,0.4-0.9,0.9-1.5,1.3c-0.6,0.4-1.1,0.9-1.8,1.3c-0.4,0.2-0.7,0.4-1.1,0.7c-0.5,0.2-0.9,0.4-1.4,0.6l-0.5,0.2l-0.3,0.1
			c-0.2,0.1-0.3,0.1-0.5,0.2c-0.7,0.3-1.6,0.6-2.5,1c-1.8,0.8-3.9,1.7-6.1,2.3c-4.3,1.4-8.7,2.1-13,2.5l-3,0.2
			c-0.9,0.1-1.8,0.2-2.8,0.3c-1.8,0.2-3.7,0.5-5.5,0.8c-3.7,0.7-7.7,1.6-11.8,2.3c-4.1,0.7-8.3,1.2-12.4,1.5
			c-7.8,0.5-15.7,1.3-23.7,2.1c-8,0.7-16,1.4-24,1.9c-8,0.5-16.1,0.9-24.2,0.9l-6.1,0l-6.1-0.2l-6.2-0.4l-5.9-0.5
			c-15.8-1.2-31.7-2.1-47.6-2.9l-23.9-1.3c-2-0.1-4-0.2-6.1-0.4c-1.7-0.1-3.7-0.1-5.6-0.2c-3.9,0-7.9,0-11.9,0
			c-15.9,0.1-31.9,0.3-47.9,0.2c-8-0.1-16-0.2-24.2-0.8c-2.1-0.1-4-0.3-6.1-0.5c-2-0.2-4.1-0.4-6.5-1c-0.6-0.1-1.2-0.3-1.8-0.5
			l-1.5-0.5c-0.9-0.3-1.8-0.6-2.7-0.9c-1.8-0.6-3.7-1.1-5.5-1.6c-7.5-2-15.3-3.6-23.1-5.2l-5.8-1.2c-1.9-0.4-4-0.8-6.1-1.3
			c-4.1-1.1-8.5-2.7-12.4-5.6c-1.9-1.5-3.6-3.3-5-5.4c-0.9-1.5-1.3-2.7-1.6-3.9c-0.3-1.1-0.6-2.2-0.8-3.3c-0.8-4.2-1.3-8.1-1.9-12
			c-0.3-2-0.5-4-0.8-6.1c-0.2-2.1-0.3-4.2-0.2-6.6c0.1-2.3,0.5-4.9,1.7-7.3c1.1-2.4,2.8-4.5,4.8-6.1l0.2-0.2l0.2-0.1
			c9.8-6.1,17.8-15,21.8-25.7c1-2.6,1.7-5.3,2.1-8.1c0.2-1.4,0.3-2.8,0.3-4.1c0-0.7,0-1.4,0-2.1c0-0.7-0.1-1.3-0.2-2
			c-0.3-2.7-1.1-5.3-2.1-8.2c-1-2.8-2-5.7-3.1-8.5c-1.1-2.8-2.2-5.7-3.4-8.4c-0.6-1.4-1.2-2.8-1.8-4l-0.5-0.9l-0.2-0.3l-0.2-0.4
			c-0.1-0.3-0.3-0.7-0.4-0.8c-0.1-0.2-0.1-0.4-0.2-0.7c0-0.2-0.1-0.3-0.1-0.5c-0.1-0.4-0.1-0.6-0.1-0.9c0-0.6,0-1.1,0-1.5
			c0.1-1.9,0.4-3.5,0.7-5.1c0.3-1.6,0.7-3.2,1.1-4.7c0.9-3.1,1.8-6.1,3.2-9.3c0.4-0.8,0.8-1.6,1.4-2.5c0.2-0.2,0.3-0.5,0.5-0.7
			c0.2-0.3,0.6-0.6,0.6-0.7c0.2-0.2,0.4-0.4,0.6-0.7c0.8-0.9,1.6-2.1,2.5-3.4c0.9-1.3,2-2.8,3.7-4.1c0.8-0.7,1.9-1.2,2.9-1.6
			c0.3-0.1,0.5-0.2,0.8-0.2l0.7-0.2c0.5-0.1,1-0.2,1.5-0.2c2-0.1,3.9,0.2,5.7,0.8c1.7,0.6,3.3,1.4,4.7,2.4c2.8,1.9,5.1,4.4,6.9,7.1
			l-2.6-0.1l0.1-0.1c1.6-1.6,3.2-3,5.3-4.1c1-0.5,2.2-0.9,3.5-1.1c0.7-0.1,1.3-0.1,2,0.1c0.3,0,0.7,0.2,1,0.3
			c0.3,0.1,0.7,0.2,0.9,0.4c2,1,3.7,2.2,5.4,3.5c0.8,0.6,1.6,1.3,2.4,2l1.2,1c0.4,0.3,0.8,0.7,0.8,1.5l-0.9,0.1h0.1
			c0.2,0.1,0.1-0.2,0.1-0.3c0-0.1-0.1-0.3-0.1-0.4c0-0.2,0-0.5,0.1-0.7c0.1-0.4,0.4-0.6,0.6-0.9c0.5-0.5,1-1,1.5-1.5
			c1-1,2.1-2,3.2-2.9c1.2-0.9,2.4-1.8,3.8-2.5c0.7-0.3,1.5-0.7,2.5-0.8c0.5-0.1,1.1-0.1,1.7,0c0.2,0,0.3,0.1,0.5,0.1l0.2,0.1l0.1,0
			l0.5,0.2c0.6,0.2,1.2,0.4,1.8,0.6l1,0.3c0.4,0.1,0.9,0.2,1.4,0.6c0.5,0.3,0.9,0.7,1.2,1.1l0.7,0.8c0.5,0.5,1,1.1,1.4,1.7
			c0.5,0.6,0.9,1.2,1.3,2c0.2,0.4,0.4,0.8,0.5,1.2c0.1,0.2,0.2,0.4,0.2,0.7c0,0.2,0.1,0.5,0.1,0.6c0,0,0,0.1,0,0
			c0-0.1-0.1-0.1-0.1-0.2l-0.1-0.1c0,0,0,0-0.2-0.2c-0.2-0.2-0.5-0.3-0.7-0.4c-0.3-0.1-0.5,0-0.7,0c-0.2,0-0.4,0.1-0.6,0.3
			c-0.2,0.1-0.3,0.4-0.3,0.3c-0.1,0.1-0.1,0.2-0.1,0.3l0,0l0.1-0.4c0.1-0.3,0.2-0.7,0.3-1.1c0.2-0.8,0.5-1.5,1-2.2s1-1.4,1.8-2
			c0.4-0.3,0.8-0.5,1.2-0.7c0.2-0.1,0.5-0.2,0.6-0.2l0.5-0.2c1.3-0.4,2.7-0.9,4.3-1.1c1.5-0.2,3.2-0.2,4.7,0.1
			c1.5,0.3,3,0.8,4.2,1.3l4,1.3c0.7,0.2,1.4,0.5,2.1,0.8c0.7,0.3,1.5,0.8,2.2,1.7c0.2,0.2,0.3,0.5,0.4,0.7c0.1,0.3,0.2,0.5,0.2,0.8
			c0,0.3,0.1,0.6,0.1,0.8l0,0.5l0,2.1l-0.1,4.2l-2.7-0.2l0,0c0.3-1.9,0.7-3.7,1.3-5.5c0.3-0.9,0.6-1.8,1.1-2.7c0.5-0.9,1-1.8,2-2.6
			c0.3-0.2,0.6-0.3,0.9-0.5c0.2-0.1,0.3-0.1,0.5-0.1l0.3-0.1l1.3-0.2c0.9-0.2,1.8-0.3,2.7-0.5c1.8-0.3,3.8-0.5,5.8-0.3
			c1,0.1,2,0.4,3,0.9l0.4,0.2l0.3,0.2l0.6,0.4l1.2,0.8c1.5,1.1,3.1,2.2,4.3,3.8c0.6,0.8,1.1,1.8,1.3,2.8c0.1,0.6,0.1,0.9,0.2,1.4
			l0.1,1.4c0.1,1.8,0.2,3.7,0.1,5.5l-1,0l0,0c-0.3-0.8-0.6-1.5-0.5-2.2c0-0.7,0.2-1.4,0.4-2.1c0.3-1.4,0.8-2.8,1.3-4.1
			c0.6-1.3,1.3-2.7,2.5-3.9c0.3-0.3,0.6-0.6,1-0.8c0.3-0.3,0.8-0.5,1.1-0.7c0.7-0.4,1.3-0.6,2-0.9c2.7-1.1,5.5-1.9,8.6-1.9
			c0.8,0,1.6,0.1,2.5,0.3l1,0.3l1,0.2c1.3,0.3,2.9,0.7,4.4,1.6c0.8,0.4,1.5,1,2.1,1.6c0.6,0.7,1.2,1.4,1.5,2.2
			c0.2,0.4,0.3,0.8,0.5,1.2l0.3,1c0.2,0.7,0.4,1.4,0.5,2.1c0.3,1.4,0.6,2.8,0.7,4.2c0.1,0.7,0.1,1.4,0.2,2.2c0,0.4,0,0.8,0,1.2
			c0,0.1,0,0.2,0,0.3l0,0.2l0,0.1c0,0,0,0.1,0,0l0-0.1c0,0,0,0,0-0.4c-0.3-0.2,0.5-0.3-1.3-1.7c-1.3-0.5-1.8,0.1-2.2,0.2
			c-0.1,0.1-0.2,0.1-0.2,0.2c-0.1,0.2-0.1,0.2-0.1,0.2l0.1-0.1l2-3.5c0.7-1.2,1.5-2.4,2.3-3.6s1.7-2.3,2.7-3.4
			c0.5-0.6,1.1-1.1,1.7-1.6c0.7-0.5,1.4-1,2.4-1.4c0.2-0.1,0.5-0.2,0.8-0.2c0.1,0,0.3-0.1,0.4-0.1l0.3,0c0.4,0,0.7-0.1,1.1-0.1
			c0.7-0.1,1.4-0.1,2.2-0.1c1.4,0,2.9,0.1,4.3,0.2c1.4,0.2,2.9,0.4,4.3,0.8c1.4,0.4,2.9,0.9,4.4,1.9l0.3,0.2l0.2,0.1l0.4,0.3
			c0.2,0.2,0.5,0.3,0.8,0.5c0.5,0.3,1.1,0.7,1.8,1.1c0.6,0.4,1.4,1,2,1.8c0.6,0.8,1,1.8,1.1,2.6c0.1,0.4,0.1,0.8,0.2,1.2l0,0.8
			c0,0,0-0.2-0.1-0.2l-0.1-0.2c-0.1-0.2-0.2-0.3-0.4-0.4c-0.2-0.1-0.3-0.2-0.5-0.3c-0.3-0.1-0.7-0.2-1.1-0.1
			c-0.4,0.1-0.7,0.3-0.6,0.3c0,0-0.1,0.1-0.2,0.1s-0.1,0.1-0.1,0.2l-0.1,0.1c0,0,0,0.1,0,0.1l0.2-0.3l0.4-0.9
			c0.6-1.3,1.4-2.7,2.6-3.9c1.1-1.2,2.8-2.1,4.5-2.4c0.8-0.1,1.8-0.1,2.4-0.1c0.7,0,1.3,0,2,0c2.7,0.1,5.5-0.2,8.5,0.6
			c1.5,0.4,2.9,1,4.2,1.8c0.6,0.4,1.2,0.8,1.8,1.3c0.5,0.4,1.1,0.9,1.6,1.3c1,0.9,2.1,1.8,3.1,2.8c0.5,0.5,1,1,1.4,1.5s1,1,0.9,2v0
			l-1,0.1c0.1,0,0.1-0.1,0-0.2l-0.1-0.3c0-0.2,0-0.3,0-0.5c0-0.3,0.2-0.6,0.3-0.8c0.3-0.5,0.6-1,0.9-1.5c0.6-1,1.3-2,2.2-2.9
			c0.8-0.9,1.8-1.7,3-2.3c0.3-0.1,0.6-0.3,1-0.4c0.3-0.1,0.7-0.2,1-0.2c0.6-0.1,1.1-0.1,1.7-0.1c1.2-0.1,2.3-0.1,3.6,0.1
			c1.2,0.2,2.4,0.5,3.5,1c1.1,0.5,2.1,1,3.1,1.6c1,0.6,2,1.2,2.9,2.1l0,0l-0.4-0.2c2.1-0.5,4.2-0.7,6.4-0.3c1.1,0.2,2.1,0.4,3.2,0.8
			c1.1,0.4,2.2,0.9,3.3,2c0.5,0.5,1,1.3,1.2,2.2c0.2,0.7,0.2,1.2,0.3,1.8c0.1,1.1,0.2,2.1,0.2,3.2s0,2.1,0,3.1l0,1.6l0,0.8
			c0,0.1,0,0,0-0.1l0-0.2c0-0.1,0-0.2-0.1-0.4c-0.1-0.3-0.3-0.6-0.6-0.8c-0.3-0.3-0.8-0.5-1.2-0.5c-0.2,0-0.5,0-0.8,0
			c-0.1,0-0.2,0-0.2,0.1c-0.2,0.1-0.2,0.1-0.2,0.1l0.2-0.1c0.1-0.1,0.3-0.3,0.5-0.4l1.1-1c0.7-0.7,1.5-1.4,2.3-2.2
			c1.7-1.4,3.5-2.7,5.7-3.6c1.9-0.7,3.8-1.5,6-2.1c1.1-0.3,2.2-0.5,3.4-0.6c1.2-0.1,2.3,0,3.5,0.2c2.2,0.3,4.3,1.1,6.3,1.8
			s3.9,1.6,5.8,2.6c1.9,1,3.7,2.1,5.4,3.8c0.8,0.8,1.6,1.8,2.1,3c0.4,1.1,0.7,2.1,0.9,3.2c0.2,1,0.4,2.1,0.5,3.1
			c0.1,1.1,0.2,2.1,0.2,3.4c0,0.2,0,0.3-0.1,0.6l0,0.2l0,0.1c0-0.1,0-0.1,0-0.2c0-0.1,0-0.1,0-0.2c0-0.4-0.2-0.9-0.6-1.1
			c-0.3-0.2-0.6-0.3-1-0.3c-0.5,0.1-0.2,0-0.4,0.1c-0.3,0.1-0.2,0.1-0.2,0.1l0.1-0.1l0.2-0.2l1.2-1c0.8-0.7,1.6-1.3,2.5-1.9
			c1.7-1.2,3.7-2.4,6-2.9c0.6-0.1,1.2-0.2,1.8-0.2l1.5,0c1,0,2,0,3.1,0c4.1,0.1,8.3,0.5,12.4,2c1,0.4,2,0.9,3,1.5
			c0.5,0.3,0.9,0.6,1.4,1l0.6,0.6l0.5,0.5c1.4,1.4,2.9,2.6,4.5,4.1c0.4,0.4,0.8,0.8,1.2,1.3c0.4,0.5,0.7,1.2,0.9,1.8
			c0.2,0.7,0.1,1.4,0,2c0,0.3-0.1,0.6-0.2,0.9c-0.1,0.3-0.2,0.5-0.3,0.9c0,0.1-0.1,0.2-0.1,0.3c0,0-0.1,0.1-0.1,0.2
			c-0.1,0.1,0,0.1-0.2,0.2c-0.6,0.5-1.6,0.4-1.9-0.1c-0.5-0.7-0.3-0.9-0.4-0.9c0-0.1,0-0.2,0-0.2l0-0.1l0-0.2c0-0.1,0-0.2,0.1-0.3
			c0.1-0.3,0.2-0.6,0.3-0.9c0.3-0.6,0.6-1.1,0.9-1.5c0.7-0.9,1.7-1.8,2.8-2.3c1.1-0.5,2.3-0.8,3.5-0.8c0.3,0,0.6,0,0.9,0l0.8,0.1
			c0.5,0.1,1,0.1,1.5,0.1c2,0.1,4,0.1,6,0.1c2,0,4.1,0,6.1,0c2.1,0.1,4.2,0.2,6.3,1c0.5,0.2,1.1,0.5,1.6,0.9
			c0.2,0.2,0.5,0.4,0.7,0.7c0.2,0.2,0.4,0.6,0.5,0.8c0.5,0.9,0.9,1.8,1.3,2.8c0.8,1.9,1.4,3.9,1.8,6c0.8,4.1,0.7,8.3,0.2,12.3
			l-1.4,12.1l0,0.1l-0.1-0.4c0.2,0.2,0.6,0.5,1,0.6c0.4,0.1,0.8,0.2,1.3,0.3c0.9,0.1,1.8-0.1,2.7-0.4c1.8-0.6,3.4-1.7,4.9-2.8
			c1.5-1.2,2.8-2.5,4.2-3.9c1.4-1.4,2.9-2.6,4.3-3.9c3-2.5,6-4.9,8.7-7.7c2.7-2.7,5.1-5.8,7.1-9c2-3.2,3.7-6.8,5.1-10.3
			c0.7-1.8,1.4-3.6,1.9-5.4c0.6-1.8,1.2-3.7,1.7-5.5c1.1-3.7,2.3-7.4,3.5-11.1l1.9-5.5c0.6-1.8,1.3-3.7,1.8-5.5
			c1.1-3.7,0.8-7.5,1-11.4c0.1-3.9,0.4-7.8-0.1-11.5c-0.3-1.8-0.8-3.7-2-5.1c-1.1-1.4-2.8-2.4-4.5-3.3c-1.7-0.9-3.4-1.7-5.2-2.1
			c-0.5-0.1-0.9-0.2-1.3-0.1c-0.1,0-0.2,0-0.3,0c-0.2,0-0.3,0-0.4,0c-0.2,0-0.5,0-0.7,0c-0.9,0-1.8,0.1-2.8,0.4
			c-3.7,0.9-6.9,3.2-9.5,5.9c-2.6,2.8-4.7,6.1-6.6,9.4c-3.8,6.7-7,13.8-9.7,21l0-0.1c-0.2,1.8-0.3,3.6-0.2,5.4
			c0.1,0.9,0.2,1.8,0.3,2.7c0.2,1,0,2-0.2,2.9c-0.4,1.8-1.2,3.6-2,5.2c-0.8,1.7-1.7,3.3-2.7,4.9l0.1-0.3c-0.1,1.5-0.8,2.8-1.9,3.7
			c-1.1,0.9-2.4,1.4-3.7,1.6c-2.7,0.5-5.3-0.1-7.8-0.5c-5.1-0.9-10.1-1.9-15.1-3.2l0,0l0,0l-8-4.3l-0.1,0l0.7-0.4
			c0.2,0.4,0.4,0.8,0.5,1.3c0.1,0.4,0.1,0.9,0,1.4c-0.1,0.5-0.2,1-0.8,1.7c-0.2,0.2-0.3,0.3-0.7,0.5c-0.2,0.1-0.3,0.1-0.5,0.2
			c0,0,0,0,0,0l-0.2,0.1c-0.5,0.3-1.3,0.9-2.2,1.2c-0.9,0.4-2.1,0.5-3.1,0.3c-1-0.2-1.6-0.4-2.4-0.6l-2.2-0.7l-4.3-1.4l-4.2-1.5
			l-4.3-1.4c-1.5-0.5-2.9-0.9-4.4-1.5l-0.6-0.2l-0.3-0.2l-0.2-0.1l-0.1,0l-0.1-0.1l-0.1-0.1l-0.1-0.1c0,0-0.1-0.1-0.3-0.3
			c-0.3-0.3-0.4-0.8-0.5-1.2c0-0.2,0,0.4,0.1,0.6c0.1,0.3,0.3,0.5,0.5,0.7c0.3,0.2,0.2,0.2,0.2,0.2l0.1,0.1c0.1,0.1,0.2,0.1,0.2,0.1
			c0,0,0.2,0.1,0.1,0l-0.2,0l-0.5-0.1c-0.8-0.1-1.6-0.3-2.5-0.6c-0.9-0.3-1.8-0.6-2.8-1.6c-0.5-0.5-0.9-1.3-1-2.1
			c-0.1-0.8,0.1-1.5,0.3-2.1l0.2-0.5c0.1-0.2,0.1-0.3,0.2-0.4c0.1-0.2,0-0.2,0.1-0.2c0,0-0.1,0.1,0.2,0.6c0.1,0.2,0.3,0.5,0.6,0.5
			c0.1,0.1,0.3,0.1,0.3,0.1c0,0,0,0,0,0l-0.1,0c-0.2,0-0.6,0.1-0.9,0.2l-2.2,0.5l-1.1,0.2c-0.4,0.1-0.7,0.2-1.2,0.2
			c-1.9,0.2-3.5-0.1-5-0.5c-3.1-0.7-6-1.6-8.9-2.6c-2.9-1-5.8-2-8.6-3.1l-0.1-0.1l-0.1-0.1c-0.7-0.5-1.1-1-1.6-1.6
			c-0.4-0.6-0.8-1.2-1-1.8s-0.4-1.3-0.7-2c-0.1-0.3-0.3-0.7-0.4-1.1c-0.1-0.2-0.2-0.3-0.2-0.6c0-0.1-0.1-0.2-0.1-0.4
			c0-0.1,0-0.1,0-0.2l0-0.2c0-0.1,0-0.2,0.1-0.2c0.1-0.2-0.2,0.2,0.3-0.6c0.4-0.1,0.6-1.7,3.3-0.2c0.7,0.9,0.4,0.6,0.5,0.9l0.1,0.3
			l0,0.2l0,0.3c0.1,0.4,0.1,0.6,0.2,0.9c0,0.2,0,0.5,0,0.7c0,0.5-0.1,0.9-0.2,1.4c-0.3,0.9-0.9,1.6-1.5,2.3
			c-1.3,1.4-2.9,2.2-4.5,2.7c-1.6,0.4-3.1,0.5-4.5,0.4c-1.3-0.1-2.6-0.2-3.8-0.4c-2.5-0.4-5-0.9-7.4-1.6c-2.4-0.7-4.8-1.6-7.1-2.6
			c-1.2-0.5-2.3-1.1-3.4-1.8c-0.6-0.3-1.1-0.7-1.7-1.1c-0.3-0.2-0.5-0.4-0.8-0.6l-0.4-0.3l-0.3-0.3c-1.7-1.5-3.7-3-5.6-4.6
			c-1-0.8-1.9-1.6-2.8-2.7c-0.2-0.3-0.5-0.6-0.7-0.9c-0.1-0.2-0.2-0.4-0.3-0.7c-0.1-0.3-0.1-0.7-0.1-0.9l0.1-0.9
			c0-0.2,0-0.3,0.1-0.4c0.1-0.2,0.2-0.3,0.4-0.4l0.2-0.1l1,0.3c-0.1,0.1,0.1,0.4,0,0.5c0,0.2,0,0.3-0.1,0.4
			c-0.1,0.3-0.3,0.4-0.5,0.6c-0.4,0.3-0.8,0.7-1.1,0.9c-0.8,0.6-1.6,1.1-2.5,1.5l-0.3,0.2l-0.2,0.1c-0.2,0.1-0.3,0.2-0.4,0.3
			c-0.3,0.2-0.5,0.4-0.8,0.7l-0.9,1c-0.4,0.4-0.8,0.8-1.3,1.1c-1,0.6-2,0.9-3,1.1c-1,0.2-1.9,0.2-2.9,0.2c-1.8,0-3.7-0.1-5.5-0.3
			s-3.6-0.4-5.4-0.7c-1.8-0.3-3.6-0.7-5.4-1.5c-0.2-0.1-0.5-0.2-0.7-0.3l-0.4-0.2l-0.4-0.3c-0.5-0.4-0.7-0.7-1.1-1
			c-0.7-0.7-1.3-1.3-1.9-2c-0.6-0.7-1.2-1.4-1.8-2.1c-0.3-0.4-0.6-0.8-0.8-1.3c-0.1-0.2-0.1-0.3-0.2-0.6c0-0.2,0-0.3,0-0.5
			c0-0.1,0-0.1,0-0.1c0,0,0,0,0,0.1l0,0.1c0,0.1,0.1,0.3,0.1,0.4c0.2,0.8,2,0.5,1.6,0.4c0.1-0.1,0.2-0.2,0.2-0.2l0-0.1l0,0l-0.1,0.1
			L244,544c-1.2,1.7-3.1,2.8-5,3.3c-1,0.3-1.9,0.4-2.8,0.5c-0.9,0.1-1.8,0.2-2.7,0.3c-3.6,0.3-7.2,0.3-10.8,0.1
			c-1.8-0.1-3.6-0.3-5.4-0.7c-1.8-0.4-3.5-0.7-5.3-1.2c-1.7-0.5-3.5-1-5.2-2.1c-0.4-0.3-0.8-0.6-1.1-1c-0.3-0.4-0.6-0.9-0.8-1.3
			c-0.2-0.4-0.4-0.9-0.5-1.3c-0.1-0.5-0.3-0.9-0.1-1.6c0,0,0-0.1,0-0.1l0-0.1c0,0,0,0,0.1-0.1l0.7-0.9l0.2,1.2
			c0.3,1.6-0.2,3.1-1.3,4.4c-1,1.2-2.5,2-3.9,2.4c-0.4,0.1-0.7,0.2-1.1,0.3c-0.4,0.1-0.7,0.1-1.1,0.2l-2,0.3l-4,0.6
			c-2.7,0.4-5.5,0.7-8.4,0.4c-0.7-0.1-1.5-0.2-2.2-0.3c-0.8-0.2-1.4-0.3-2-0.5c-1.3-0.4-2.7-0.8-4-1.3s-2.6-1.1-3.9-1.8
			c-0.7-0.4-1.3-0.8-1.9-1.3c-0.6-0.5-1.2-1.1-1.7-2c-0.3-0.4-0.4-0.9-0.6-1.4l-0.1-0.5l0-0.2c0,0,0-0.1,0.1,0.1
			c0.1,0.1,0.1,0.1,0.2,0.3c0.3,0.3,0.5,0.4,1,0.5c0.6,0.1,0.9-0.1,1-0.2c0.2-0.1,0.3-0.2,0.3-0.2c0.1-0.1,0.1-0.1,0.1-0.1
			c0,0,0,0,0,0.1l-0.3,0.4c-0.3,0.3-0.6,0.7-0.9,1c-1.3,1.2-3,1.8-4.6,2c-0.8,0.1-1.5,0.2-2.3,0.2c-0.7,0-1.3,0-2,0
			c-1.3,0-2.6,0.1-3.9,0.2c-2.6,0.2-5.3,0.6-8.3,0.5c-0.8,0-1.5-0.1-2.3-0.3l-1-0.3c-0.3-0.1-0.6-0.2-0.9-0.2
			c-1.3-0.3-2.7-0.5-4.2-1.1c-0.7-0.3-1.5-0.7-2.3-1.2c-0.7-0.5-1.5-1.2-1.9-2.1c-1-1.7-1.1-3.5-1-5.1c0-0.4,0.1-0.8,0.1-1.2
			l0.2-1.1l0.1-0.6l0.1-0.3c0-0.1,0-0.2,0.1-0.4c1.1,0.3-2.5-0.9,3.5-0.7c1,2.1,0.3,1.2,0.5,1.5l0,0.3l0,0.3l-0.1,0.6
			c-0.3,1.5-0.8,2.9-1.5,4.3c-0.7,1.4-1.6,2.8-3.1,3.8c-0.7,0.5-1.5,1-2.5,1.2c-0.5,0.1-0.9,0.2-1.4,0.2c-0.2,0-0.5,0-0.7,0l-0.5,0
			c-5.3-0.1-10.7-0.1-16.2-0.2c-0.7,0-1.4,0-2.1-0.1l-0.6-0.1c-0.2,0-0.5-0.1-0.7-0.2l-1-0.3c-1.4-0.4-2.7-1-4-1.7
			c-1.3-0.8-2.6-1.8-3.5-3.4c-0.4-0.8-0.7-1.7-0.7-2.6c0-0.2,0-0.4,0-0.6l0-0.5l0-0.2c0,0,0-0.1,0,0c0.5,0.1-1.2-0.1,1.6,1.4
			c2.4-1,1-0.8,1.5-0.9c0-0.1,0,0.1,0,0.1l-0.1,0.2c-1,2.9-3,5.5-5.8,7.1c-1.3,0.8-2.8,1.3-4.3,1.7l-3.9,1c-2.6,0.7-5.2,1.4-8,1.9
			c-1.4,0.3-2.8,0.5-4.3,0.6c-0.8,0.1-1.5,0-2.3,0c-0.5,0-1.1,0-1.7,0.1c-0.6,0.1-1.3,0.1-2.2,0.2c-0.8,0-1.9,0-3.2-0.7
			c-0.3-0.2-0.6-0.4-0.8-0.6c-0.2-0.2-0.5-0.5-0.7-0.7c-0.2-0.2-0.3-0.5-0.5-0.7l-0.2-0.4l-0.1-0.3l-0.3-0.7
			c-0.1-0.2-0.1-0.4-0.2-0.6l-0.2-0.6l-0.1-0.6c-0.1-0.8-0.2-1.5-0.2-2.3c0-0.7-0.1-1.4-0.1-2.1c0-1.4,0-2.8,0-4.2
			c0.1-2.8,0.2-5.5,0.5-8.3c0.1-1.4,0.3-2.8,0.5-4.2c0.2-1.4,0.5-2.8,0.9-4.4l0.2-0.6l0.2-0.6l0.2-0.6l0.4-0.7l0.2-0.3
			c0-0.1,0-0.1,0-0.1c0,0,0-0.1,0-0.1c0-0.2,0.1-0.3,0.1-0.5c0.2-0.9,0.3-2.4,0.6-3.8c0.5-2.9,1.4-5.9,2.7-8.6
			c1.2-2.7,2.7-5.2,4.2-7.6c1.6-2.4,3.3-4.7,5-6.8c6.8-8.5,13.5-17,20.2-25.6l0.1-0.1l5.6,8.8c-1.6,0.4-2.9,0.7-4.3,1
			c-1.4,0.3-2.8,0.6-4.2,0.8c-2.8,0.5-5.6,0.8-8.4,1.1c-5.6,0.5-11.3,0.6-17.1,0.1l-2.2-0.2l-2.2-0.3c-1.5-0.2-2.8-0.4-4.1-0.7
			c-2.7-0.5-5.4-1-8-1.5c-5.3-1-10.5-2.1-15.7-3s-10.3-1.4-15.5-1.6l-2-0.1l-1,0l-0.2,0l-0.3,0l-0.7-0.1c-1.9-0.1-3.8-0.7-5.5-1.6
			c-1.7-0.9-3.1-2.1-4.4-3.3c-1.1-1.3-2.2-2.6-2.9-4c-1.6-2.8-2.7-5.6-3.5-8.4s-1.4-5.6-1.8-8.4s-0.8-5.6-0.9-8.4
			c-0.2-2.8-0.3-5.5-0.3-8.4v-0.3l0-0.2c0.9-5.9,2-11.7,3.2-17.5c1.2-5.8,2.6-11.5,4.1-17.2c0.8-2.9,1.6-5.7,2.5-8.5l2.5-8.3
			c0.8-2.8,1.6-5.6,2.3-8.3c0.4-1.4,0.7-2.8,1-4.2c0.1-0.7,0.3-1.4,0.4-2c0.1-0.3,0.1-0.7,0.1-1c0-0.3,0.1-0.6,0.1-0.7v0.1v0
			c0,0,0,0.2,0,0.2l0-1.3c2.3-10.3,4.7-20.6,7.2-30.8l3.7-15.4c1.2-5.1,2.4-10.3,3.5-15.3c0.1-0.3,0.1-0.5,0.1-0.8
			c0-0.3,0.1-0.5,0.1-0.9c0.1-0.7,0.2-1.4,0.3-2.1c0.2-1.4,0.4-2.7,0.6-4c0.5-2.7,1-5.3,1.6-7.9c0.6-2.6,1.3-5.2,2.1-7.9
			c0.2-0.7,0.4-1.3,0.7-2l0.7-1.8c0.4-1.2,0.8-2.4,1.2-3.6c3.1-10,5.9-20.2,9.4-30.3c0.5-1.3,0.9-2.6,1.5-3.8l1.5-3.7l3-7.3
			c2-4.9,4.2-9.8,6.5-14.6c2.4-4.8,5-9.6,8.2-14.1c1.7-2.3,3.4-4.3,5.2-6.3c1.8-2,3.6-4,5.4-5.9c3.7-3.8,7.5-7.6,11.3-11.2
			c1-0.9,2-1.8,3-2.7c0.5-0.4,1-0.9,1.5-1.3l0.8-0.7l0.4-0.3l0.2-0.2c0.1-0.1,0.2-0.2,0.3-0.2c0.2-0.2,0.6-0.4,0.5-0.3
			c0,0-0.1,0-0.1,0l0.6-0.6c0.4-0.4,0.8-0.9,1.3-1.4c0.8-1,1.7-2,2.5-3C108,141,114.6,132.8,121.2,124.5z M125.2,127.9l-10,12.3
			c-3.3,4.1-6.7,8.2-10.1,12.3l-2.6,3.1c-0.5,0.5-0.9,1-1.4,1.5l-0.4,0.4l-0.2,0.2c-0.1,0.1-0.1,0.1-0.2,0.2
			c-0.2,0.2-0.5,0.5-0.8,0.7c-0.4,0.3-0.2,0.2-0.3,0.2c0,0,0,0-0.1,0l-0.2,0.1l-0.3,0.3l-0.7,0.6c-0.5,0.4-1,0.9-1.4,1.3
			c-1,0.9-1.9,1.8-2.8,2.7c-3.8,3.6-7.5,7.3-11,11.1c-1.8,1.9-3.5,3.8-5.3,5.8c-1.7,1.9-3.4,3.9-4.8,5.9c-2.9,4.1-5.4,8.6-7.6,13.3
			c-2.3,4.7-4.3,9.5-6.3,14.3l-2.9,7.3l-1.5,3.7c-0.5,1.2-0.9,2.4-1.3,3.6c-1.7,4.9-3.2,9.9-4.7,15c-1.5,5.1-2.9,10.1-4.5,15.2
			c-0.4,1.3-0.8,2.6-1.3,3.9l-0.7,1.9c-0.2,0.5-0.4,1.1-0.6,1.7c-0.8,2.4-1.4,4.9-1.9,7.4s-1.1,5.1-1.5,7.6
			c-0.2,1.3-0.4,2.6-0.6,3.8c-0.1,0.6-0.2,1.3-0.2,1.8c0,0.2-0.1,0.7-0.1,1.1c-0.1,0.4-0.1,0.8-0.2,1.2c-1.1,5.3-2.3,10.4-3.5,15.6
			l-3.6,15.4c-2.4,10.3-4.9,20.5-7.6,30.8l0-1.3c0,0.1,0,0.3,0,0.3l0,0.1l0,0.2c0,0.7,0,1-0.1,1.5c0,0.4-0.1,0.8-0.1,1.2
			c-0.1,0.8-0.2,1.5-0.4,2.3c-0.3,1.5-0.6,3-0.9,4.4c-0.7,2.9-1.4,5.8-2.1,8.6l-2.3,8.5c-0.8,2.8-1.5,5.6-2.2,8.4
			c-1.4,5.6-2.5,11.3-3.6,17c-1,5.7-2,11.4-2.7,17.1l0-0.5c0,2.5,0.2,5.1,0.4,7.7c0.2,2.6,0.6,5.1,1.1,7.7c0.5,2.5,1,5,1.8,7.3
			c0.7,2.3,1.7,4.6,2.9,6.4c0.6,1,1.2,1.7,1.9,2.4c0.7,0.6,1.4,1.2,2.1,1.5c0.7,0.3,1.4,0.6,2.2,0.5l0.3,0c0.1,0,0.1,0,0.2,0h0.3h1
			l2.1,0c5.6,0.1,11.1,0.6,16.6,1.3c5.5,0.8,10.8,1.7,16.1,2.6c2.6,0.4,5.3,0.9,7.9,1.3c1.3,0.2,2.7,0.4,3.8,0.6l1.8,0.2l1.9,0.1
			c5,0.3,10.1,0.1,15.2-0.5c2.5-0.3,5.1-0.7,7.6-1.2c1.3-0.2,2.5-0.5,3.8-0.8c1.2-0.3,2.5-0.6,3.6-0.9l18.7-5.5l-13.1,14.3l-0.1,0.1
			c-7.4,7.9-14.7,15.8-22,23.8c-1.8,2-3.4,3.9-5,5.9c-1.5,2.1-2.9,4.1-4.1,6.3c-1.2,2.2-2,4.4-2.5,6.7c-0.3,1.2-0.5,2.4-0.9,4.1
			c-0.1,0.4-0.3,0.9-0.5,1.4c-0.1,0.3-0.3,0.5-0.4,0.8l-0.2,0.3l0,0.1c0,0.1-0.1,0.1-0.1,0.2l-0.1,0.3l-0.2,0.3l-0.1,0.4
			c-0.4,1.1-0.7,2.3-1,3.5c-0.3,1.2-0.5,2.5-0.7,3.8c-0.4,2.6-0.7,5.2-0.9,7.8c-0.1,1.3-0.2,2.6-0.2,3.9c0,0.7,0,1.3,0,1.9
			c0,0.6,0,1.2,0.1,1.8l0,0.4l0.1,0.3c0,0.1,0,0.2,0.1,0.3c0,0.1,0.1,0.2,0.1,0.3l0,0.1c0,0,0,0,0,0.1c0,0,0,0.1,0,0.1s0,0,0,0
			c0,0,0,0,0,0c0,0,0.2,0.1,0.8,0.1c0.5,0,1.2,0,1.9-0.1c0.7,0,1.5,0,2.3,0c0.6,0.1,1.2,0.1,1.8,0.1c1.2,0,2.4-0.2,3.7-0.3
			c2.6-0.4,5.2-1,7.9-1.6l4-0.8c1.2-0.2,2.3-0.6,3.3-1.2c2-1.1,3.6-2.9,4.5-5.1l0.2-0.6c0.4-0.1-0.9,0,1.5-1
			c2.8,1.5,1.1,1.4,1.6,1.5c0,0.2,0,0.2,0,0.3v0.3l0,0.5c0,0.2,0,0.3,0,0.4c0,0.4,0.1,0.9,0.3,1.3c0.4,0.8,1.3,1.6,2.2,2.2
			c1,0.6,2.2,1.1,3.4,1.4l0.9,0.3l0.3,0l0.4,0c0.6,0,1.3,0,1.9,0c5.3-0.1,10.8-0.5,16.2-0.6h0.5c0.1,0,0.2,0,0.3,0
			c0.2,0,0.4-0.1,0.6-0.1c0.4-0.1,0.8-0.3,1.1-0.6c0.7-0.6,1.4-1.5,1.9-2.5c0.5-1,0.9-2.2,1.2-3.3l0.1-0.4l0-0.2c0,0,0,0,0,0
			c0.2,0.3-0.5-0.7,0.5,1.4c6,0.2,2.3-1,3.4-0.6l-0.1,0.7l-0.2,0.9c0,0.3-0.1,0.6-0.1,0.9c-0.1,1.1,0,2.1,0.4,2.7
			c0.2,0.3,0.5,0.6,0.8,0.9c0.4,0.2,0.8,0.5,1.3,0.7c1,0.4,2.3,0.7,3.7,1c0.3,0.1,0.7,0.2,1,0.3l0.9,0.2c0.5,0.1,1.1,0.2,1.7,0.2
			c2.4,0.1,5.1-0.2,7.9-0.4c1.4-0.1,2.8-0.1,4.2-0.1c0.7,0,1.4,0,2.1,0.1c0.6,0,1.2,0,1.7-0.1c1.1-0.1,2.1-0.5,2.8-1.1
			c0.2-0.2,0.3-0.3,0.5-0.5l0.3-0.4l0.1-0.2c0-0.1,0.1-0.1,0.2-0.3c0,0,0.1-0.1,0.4-0.3c0.1-0.1,0.5-0.3,1.2-0.2
			c0.6,0.1,0.8,0.3,1.1,0.6c0.2,0.2,0.2,0.2,0.3,0.4c0.2,0.4,0.2,0.5,0.2,0.6l0.1,0.3l0.1,0.5c0.1,0.2,0,0.3,0.2,0.5
			c0.3,0.7,1.3,1.5,2.3,2.1c1,0.6,2.2,1.2,3.4,1.7c1.2,0.5,2.5,0.9,3.7,1.3c0.6,0.2,1.3,0.4,1.9,0.6c0.6,0.2,1.2,0.3,1.8,0.3
			c2.5,0.3,5.1,0.1,7.8-0.1l4-0.4l2-0.2c0.3,0,0.7-0.1,1-0.1c0.3,0,0.6-0.1,0.9-0.2c1.1-0.3,2.2-0.8,2.9-1.7c0.8-0.8,1.3-1.8,1.9-3
			l0.9,0.3l0-0.1c0,0,0,0,0,0c0,0.2,0,0.7,0.2,1c0.1,0.4,0.3,0.8,0.5,1.2c0.2,0.4,0.4,0.7,0.7,1c0.2,0.3,0.6,0.5,0.9,0.8
			c1.4,0.9,3.1,1.3,4.8,1.7c1.7,0.4,3.5,0.7,5.2,1c1.7,0.3,3.5,0.4,5.2,0.5c3.5,0.1,7.1,0,10.6-0.3c0.9-0.1,1.8-0.2,2.6-0.3
			c0.9-0.1,1.7-0.3,2.5-0.5c1.5-0.4,2.9-1.3,3.7-2.5l0.2-0.2l0.1-0.1l0.1-0.1l0.1-0.1c0-0.1,0.2-0.2,0.3-0.2
			c-0.5-0.1,1.4-0.4,1.6,0.4c0.1,0.1,0.1,0.3,0.1,0.4c0,0.2,0,0.1,0,0.2v0.1c0,0,0,0.1,0,0.1s0-0.1,0-0.2c0,0,0,0,0,0.1
			c0.1,0.2,0.4,0.6,0.6,0.9c0.5,0.7,1.1,1.3,1.7,1.9c0.6,0.6,1.2,1.2,1.8,1.8c0.3,0.3,0.7,0.6,0.9,0.8l0.2,0.1l0.2,0.1
			c0.1,0.1,0.3,0.2,0.5,0.2c1.5,0.6,3.2,1,4.9,1.2c1.7,0.3,3.5,0.5,5.2,0.6c1.7,0.1,3.5,0.2,5.2,0.2c1.7,0,3.4-0.2,4.5-0.8
			c0.3-0.2,0.5-0.4,0.8-0.7l0.9-1c0.3-0.4,0.8-0.8,1.2-1.1c0.2-0.2,0.5-0.3,0.7-0.4l0.4-0.2l0.3-0.1c0.8-0.3,1.5-0.8,2.1-1.2
			c0.3-0.2,0.7-0.5,1-0.7c0.2-0.1,0.3-0.3,0.5-0.3c0.1,0,0.2,0,0.4-0.1c0.1,0,0.4,0.1,0.5,0l0.2-0.2l0.8,0.5l0.2,0.1
			c0.2,0.2,0.3,0.3,0.4,0.5c0,0.2,0,0.3,0,0.5l0,0.9c0-0.1,0.2,0.3,0.6,0.7c0.7,0.7,1.7,1.4,2.7,2c2,1.3,4,2.5,6.1,4l0.4,0.3
			l0.3,0.2c0.2,0.1,0.4,0.3,0.7,0.4c0.5,0.3,1,0.5,1.5,0.7c1,0.4,2.1,0.9,3.2,1.2c2.2,0.7,4.4,1.3,6.7,1.8c2.3,0.5,4.5,0.8,6.8,1
			c1.1,0.1,2.3,0.2,3.4,0.2c1,0,1.9-0.1,2.7-0.3c0.8-0.2,1.3-0.6,1.7-1c0.2-0.2,0.3-0.5,0.5-0.7c0.1-0.1,0.2-0.2,0.4-0.3l0.3-0.2
			c0.1,0,0.2-0.1,0.3,0c0,0,0,0.1,0,0.2l0,0.1l0.1,0.2c0.2,0.4-0.1,0.1,0.5,0.9c2.8,1.5,2.9-0.1,3.3-0.2c0.5-0.7,0.2-0.3,0.3-0.5
			c0-0.1,0-0.1,0.1-0.2l0-0.1c0-0.1,0-0.1,0-0.1c0,0-0.1,0-0.1,0.1c-0.1,0.1-0.2,0.2-0.3,0.3c-0.2,0.2-0.3,0.5-0.4,0.8
			c-0.2,0.5,0,1,0.2,1.5c0.2,0.5,0.4,0.9,0.7,1.3c0.3,0.4,0.7,0.8,1,1l-0.2-0.1c2.8,1.1,5.7,2,8.5,2.8c2.9,0.8,5.8,1.5,8.7,1.9
			c1.4,0.2,2.9,0.3,4,0.1c0.2,0,0.6-0.1,1-0.2l1.1-0.3c0.7-0.2,1.4-0.4,2.2-0.6c0.4-0.1,0.8-0.2,1.3-0.3c0.1,0,0.3,0,0.4,0
			c0.2,0,0.4,0,0.6,0c0.2,0,0.6,0.1,0.9,0.3c0.4,0.2,0.8,0.6,1,0.9c0.4,0.9,0.3,1.3,0.3,1.7c0,0.3-0.1,0.7-0.2,0.9
			c-0.1,0.2-0.2,0.5-0.2,0.7l-0.1,0.3c0,0.1-0.1,0.2-0.1,0.2c-0.1,0.2,0,0.2,0,0.2c0-0.1-0.1-0.2,0-0.1c0.1,0.1,0.6,0.4,1.2,0.5
			c0.6,0.2,1.2,0.3,2,0.4l0.6,0.1c0.1,0,0.2,0,0.4,0.1c0.1,0,0.2,0.1,0.4,0.1c0.1,0,0.2,0.1,0.3,0.2l0.1,0.1c0.1,0.1,0,0,0.3,0.2
			c0.2,0.2,0.4,0.4,0.5,0.7c0.1,0.2,0.1,0.8,0.1,0.6c0-0.4-0.2-0.8-0.4-1.1c-0.1-0.2-0.3-0.3-0.2-0.3l0,0l-0.1-0.1l-0.1-0.1
			c0,0,0,0,0,0c0,0,0,0,0,0l0.2,0.1l0.5,0.2c1.3,0.5,2.8,1,4.2,1.4l4.3,1.3l4.3,1.6l4.2,1.5l2.1,0.7c0.7,0.2,1.4,0.5,2,0.6
			c0.9,0.2,1.6-0.1,3.1-0.9c0.2-0.1,0.4-0.2,0.8-0.3l0.3-0.1c-0.1,0-0.1,0-0.2,0.1c-0.1,0.1-0.2,0.1-0.2,0.2
			c-0.1,0.1,0.1-0.1,0.3-0.3c0.2-0.2,0.4-0.5,0.6-0.8c0.2-0.3,0.5-0.6,0.8-0.9l0.5-0.6l0.3,0.2l0.1,0l8,4.3l-0.1,0
			c4.9,1.3,10,2.3,15,3.2c2.5,0.4,5,0.9,7.5,0.5c1.2-0.2,2.4-0.6,3.2-1.4c0.9-0.7,1.5-1.9,1.6-3l0-0.2l0.1-0.1
			c1-1.5,1.8-3.1,2.6-4.8c0.8-1.6,1.5-3.3,1.9-5c0.2-0.9,0.3-1.7,0.2-2.5c-0.2-0.9-0.3-1.9-0.3-2.8c-0.1-1.9-0.1-3.7,0.2-5.6l0-0.1
			l0-0.1c2.8-7.3,6-14.4,9.8-21.1c2-3.4,4.1-6.7,6.8-9.6c2.7-2.9,6-5.3,10-6.2c1-0.2,2-0.4,3-0.4c0.2,0,0.5,0,0.8,0
			c0.1,0,0.3,0,0.3,0c0.1,0,0.3,0,0.4,0c0.5,0,1.1,0.1,1.6,0.2c2,0.4,3.8,1.3,5.5,2.2c1.7,0.9,3.5,1.9,4.8,3.6
			c1.3,1.6,1.9,3.6,2.2,5.6c0.5,3.9,0.2,7.8,0.1,11.7c-0.1,3.8,0.1,7.8-1,11.7c-0.5,1.9-1.2,3.7-1.8,5.6l-1.9,5.5
			c-1.2,3.7-2.4,7.3-3.5,11.1c-0.6,1.8-1.1,3.7-1.7,5.6c-0.6,1.9-1.3,3.7-2,5.5c-1.5,3.6-3.1,7.2-5.2,10.5c-2,3.3-4.5,6.4-7.2,9.2
			c-2.7,2.8-5.8,5.2-8.7,7.7c-1.5,1.2-2.9,2.5-4.3,3.8c-1.4,1.3-2.8,2.7-4.3,3.9c-1.6,1.2-3.2,2.3-5.2,3c-1,0.3-2,0.5-3,0.4
			c-1.1-0.1-2.1-0.4-3-1.2l-0.1-0.1l0-0.2l0-0.1l1-12.1c0.4-4,0.3-8-0.5-11.9c-0.4-1.9-1-3.8-1.8-5.6c-0.4-0.9-0.8-1.8-1.3-2.6
			c-0.1-0.2-0.2-0.3-0.3-0.5c-0.1-0.1-0.2-0.2-0.4-0.4c-0.3-0.2-0.7-0.4-1.1-0.6c-1.7-0.6-3.7-0.7-5.7-0.7c-2,0-4,0-6,0.1
			c-2,0.1-4.1,0.1-6.2,0c-0.5,0-1-0.1-1.6-0.1l-0.4,0l-0.3,0c-0.2,0-0.4,0-0.7,0c-0.9,0-1.7,0.2-2.4,0.6c-0.7,0.4-1.3,0.9-1.8,1.6
			c-0.2,0.3-0.5,0.7-0.6,1.1c-0.1,0.2-0.2,0.4-0.2,0.5c0,0,0,0.1,0,0.1c0,0,0,0,0,0c0,0,0,0,0,0c0,0,0-0.1,0-0.1
			c0,0.1,0.1-0.1-0.4-0.8c-0.3-0.4-1.3-0.6-1.8-0.1c-0.2,0.2-0.1,0.1-0.2,0.2c0,0-0.1,0.1-0.1,0.1c0,0,0,0,0,0
			c0-0.1,0.1-0.4,0.2-0.6c0-0.2,0.1-0.4,0.1-0.6c0-0.4,0.1-0.7,0-1c-0.1-0.6-0.6-1.2-1.3-1.8c-1.4-1.3-3.1-2.6-4.5-4.1l-0.6-0.5
			l-0.5-0.4c-0.3-0.3-0.7-0.6-1.1-0.8c-0.7-0.5-1.6-0.9-2.4-1.3c-3.5-1.4-7.5-1.7-11.5-1.8c-1,0-2,0-3,0l-1.5,0
			c-0.4,0-0.8,0.1-1.2,0.2c-1.7,0.4-3.3,1.4-4.9,2.5c-0.8,0.6-1.5,1.2-2.3,1.8l-1.2,1l-0.3,0.3l-0.2,0.2c-0.1,0.1-0.1,0.1-0.5,0.3
			c-0.2,0,0,0-0.5,0.1c-0.4,0-0.8-0.1-1.1-0.3c-0.3-0.2-0.6-0.8-0.6-1.2c0-0.1,0-0.2,0-0.3c0-0.1,0-0.2,0-0.3c0,0,0,0,0,0v0
			c0,0,0-0.1,0-0.2c0-0.8-0.1-1.8-0.2-2.7c-0.2-0.9-0.3-1.9-0.6-2.8c-0.2-0.9-0.5-1.9-0.9-2.6c-0.3-0.6-0.8-1.2-1.4-1.8
			c-1.3-1.2-3-2.1-4.7-2.9c-1.7-0.8-3.6-1.5-5.5-2.1s-3.7-1.1-5.5-1.3c-0.9-0.1-1.7-0.1-2.6,0c-0.8,0.1-1.7,0.3-2.5,0.5
			c-1.7,0.5-3.6,1.3-5.4,2.1c-1.5,0.7-3,1.7-4.5,2.9c-0.7,0.6-1.4,1.2-2.2,1.9l-1.1,1.1c-0.2,0.2-0.4,0.4-0.7,0.6
			c-0.1,0.1-0.3,0.2-0.4,0.3c-0.2,0.1-0.3,0.3-0.8,0.5c-0.1,0.1-0.3,0.1-0.4,0.1c-0.3,0.1-0.6,0.1-0.9,0.1c-0.4,0-1-0.3-1.3-0.6
			c-0.3-0.3-0.5-0.6-0.7-1c-0.1-0.2-0.1-0.4-0.2-0.5c0-0.1,0-0.2,0-0.2l0-0.1c0-0.2,0-0.4,0-0.4l0-0.7l0.1-1.5l0.1-3c0-1,0-2,0-2.9
			c0-0.4,0-0.9-0.1-1.2c0-0.1,0-0.2-0.2-0.5c-0.3-0.4-1-1-1.7-1.4c-0.8-0.4-1.6-0.8-2.5-1.2c-1.7-0.7-3.6-1.1-5.6-1.4l-0.1,0
			l-0.3-0.1c0,0,0,0,0,0c-1.7-1.1-3.9-2-5.9-2.7c-2-0.7-4-0.8-6.2-0.5l-1.7,0.2c-0.3,0-0.4,0.1-0.6,0.1c-0.2,0.1-0.4,0.2-0.6,0.2
			c-0.8,0.4-1.5,1.1-2.2,1.9s-1.3,1.6-1.9,2.6c-0.3,0.4-0.6,0.9-0.8,1.4c-0.1,0.2-0.3,0.5-0.5,0.7c-0.1,0.1-0.2,0.2-0.4,0.2
			l-0.3,0.1l-0.2,0c-0.1,0,0,0.1,0,0.1l0,0.2l-1-0.1h0c-0.9-0.1-1.3-0.6-1.7-1.1c-0.5-0.5-0.9-0.9-1.4-1.4c-1-0.9-2-1.8-3-2.6
			c-0.5-0.4-1-0.8-1.6-1.2c-0.5-0.4-1-0.7-1.6-1c-1.1-0.6-2.2-1-3.4-1.3c-2.3-0.5-5-0.2-7.8-0.2c-0.7,0-1.4,0-2.1,0
			c-0.8,0-1.2,0-1.7,0.1c-1,0.2-1.8,0.7-2.5,1.5c-0.7,0.8-1.3,1.8-1.8,2.9l-0.4,0.9c-0.1,0.2-0.2,0.3-0.3,0.6c0,0.1-0.1,0.2-0.2,0.3
			c0,0,0,0.1-0.1,0.1c-0.1,0.1-0.1,0.1-0.2,0.2s-0.1,0.1-0.2,0.2c0,0-0.2,0.2-0.7,0.3c-0.4,0.1-0.9,0.1-1.2-0.1
			c-0.3-0.1-0.4-0.2-0.6-0.3c-0.2-0.2-0.3-0.3-0.4-0.5c-0.1-0.2-0.1-0.2-0.1-0.2c-0.1-0.2-0.1-0.4-0.2-0.5c-0.1-0.3-0.1-0.6-0.1-0.8
			c0-0.2,0-0.4,0-0.5c0-0.3-0.1-0.5-0.1-0.8c-0.2-0.9-0.5-1.3-1.5-1.9c-0.5-0.3-1.1-0.6-1.7-1c-0.3-0.2-0.6-0.4-0.9-0.6l-0.5-0.3
			l-0.2-0.2l-0.2-0.1c-0.8-0.5-1.9-0.9-3.1-1.2c-1.2-0.3-2.4-0.5-3.7-0.6c-1.3-0.1-2.6-0.1-3.8-0.1c-0.6,0-1.3,0-1.9,0.1
			c-0.3,0-0.6,0.1-0.9,0.1l-0.2,0l-0.1,0c-0.1,0-0.1,0-0.2,0.1c-0.6,0.2-1.6,1-2.4,1.9c-0.8,0.9-1.6,1.9-2.3,3
			c-0.7,1.1-1.4,2.2-2.1,3.3l-2,3.6l-0.2,0.3c0,0.1-0.1,0.1-0.3,0.4c-0.1,0.1-0.2,0.2-0.3,0.3c-0.4,0.2-0.9,0.8-2.3,0.2
			c-1.8-1.5-1-1.5-1.3-1.8c0-0.4,0-0.4,0-0.4l0-0.3c0,0,0-0.1,0-0.2c0-0.2,0-0.5,0-0.8c0-0.6-0.1-1.2-0.1-1.8
			c-0.1-1.3-0.3-2.5-0.6-3.8c-0.1-0.6-0.3-1.2-0.5-1.9l-0.3-0.9c-0.1-0.2-0.2-0.5-0.2-0.7c-0.4-0.8-1-1.5-1.8-2
			c-0.9-0.5-2-0.9-3.2-1.2l-1-0.3l-1-0.3c-0.5-0.1-1-0.2-1.5-0.2c-2.3-0.1-4.8,0.5-7.2,1.3c-0.6,0.2-1.3,0.4-1.8,0.7
			c-0.2,0.1-0.4,0.2-0.6,0.3c-0.2,0.2-0.4,0.3-0.6,0.5c-0.8,0.7-1.4,1.8-2,2.9c-0.5,1.1-1,2.3-1.3,3.6c-0.2,0.6-0.3,1.3-0.6,1.9
			c-0.2,0.6-0.7,1.2-1.2,1.8v0l-1,0c-0.3-1.8-0.5-3.6-0.7-5.4c-0.1-0.9-0.2-1.8-0.4-2.6c-0.2-0.7-0.5-1.4-1.1-2
			c-1-1.2-2.5-2.3-4-3.2l-1.1-0.7l-0.6-0.3l-0.3-0.2l-0.2-0.1c-0.7-0.3-1.4-0.5-2.2-0.6c-1.6-0.1-3.4,0.1-5.1,0.4
			c-0.9,0.2-1.8,0.3-2.6,0.5l-1.4,0.3l-0.3,0.1c0,0-0.1,0-0.1,0c-0.1,0-0.2,0.1-0.3,0.2c-0.4,0.3-0.9,1-1.2,1.7
			c-0.3,0.7-0.7,1.5-0.9,2.3c-0.5,1.6-0.8,3.4-1.1,5.1v0l-2.7-0.2l0-4.2l0-2.1l0-0.5c0-0.1,0-0.2,0-0.3c0-0.1,0-0.1-0.1-0.2
			c0-0.1-0.1-0.1-0.1-0.2c-0.2-0.3-0.6-0.6-1.2-0.8c-0.5-0.2-1.1-0.5-1.8-0.7l-4-1.2c-1.4-0.5-2.6-0.9-3.8-1.1
			c-1.2-0.2-2.4-0.2-3.7,0c-1.2,0.2-2.5,0.6-3.8,1.1l-0.5,0.2c-0.2,0.1-0.2,0.1-0.4,0.1c-0.2,0.1-0.4,0.2-0.6,0.4
			c-0.4,0.3-0.7,0.7-1,1.1c-0.3,0.5-0.5,1-0.7,1.6c-0.1,0.3-0.2,0.6-0.2,0.9c0,0.2-0.1,0.3-0.2,0.6l0,0.2c0,0.1-0.1,0.3-0.2,0.4
			c0,0-0.2,0.3-0.3,0.4c-0.2,0.1-0.4,0.2-0.6,0.3c-0.3,0.1-1,0-1.4-0.4c-0.2-0.2-0.2-0.2-0.2-0.3l-0.1-0.1c0-0.1-0.1-0.2-0.1-0.2
			c-0.1-0.3-0.1-0.4-0.2-0.5c0-0.2-0.1-0.3-0.1-0.4c0-0.1-0.1-0.2-0.1-0.3c-0.1-0.2-0.2-0.5-0.3-0.7c-0.3-0.5-0.6-1-1-1.5
			c-0.4-0.5-0.8-1-1.3-1.5l-0.7-0.8c-0.2-0.2-0.3-0.3-0.4-0.3c-0.1-0.1-0.9-0.2-1.6-0.4c-0.7-0.2-1.5-0.4-2.2-0.6l-0.5-0.2l-0.1-0.1
			c0,0,0,0,0,0s0,0,0,0c-0.1,0-0.2,0-0.4,0c-0.4,0.1-0.9,0.3-1.5,0.6c-1.1,0.5-2.1,1.3-3.2,2.1c-1.1,0.8-2.1,1.7-3.1,2.6l-1.5,1.4
			c-0.3,0.2-0.5,0.5-0.8,0.6c-0.2,0.1-0.4,0.1-0.7,0.1c-0.1,0-0.3,0-0.4-0.1c-0.1,0-0.4-0.1-0.3,0.1l0,0.1l-0.9,0.1
			c-0.7,0.1-1.2-0.2-1.5-0.5l-1.2-0.9c-0.8-0.6-1.6-1.2-2.5-1.7c-1.7-1.1-3.4-2.1-5.1-2.9c-0.2-0.1-0.4-0.2-0.5-0.2
			c-0.2-0.1-0.3-0.1-0.5-0.1c-0.3-0.1-0.7,0-1,0c-0.7,0.1-1.5,0.4-2.3,0.8c-1.6,0.8-3.1,2.1-4.4,3.3l0,0l-1,1.4l-1.6-1.5
			c-2.1-2-4.4-3.8-6.8-5c-2.4-1.2-5-1.8-7.2-1.4c-0.3,0.1-0.5,0.1-0.8,0.2l-0.4,0.1c-0.1,0-0.2,0.1-0.3,0.1c-0.4,0.2-0.7,0.4-1,0.7
			c-0.7,0.6-1.4,1.7-2.2,2.9c-0.8,1.3-1.7,2.7-2.9,4.1c-0.3,0.3-0.6,0.7-0.9,1c-0.2,0.2-0.2,0.2-0.2,0.2l-0.1,0.2
			c-0.2,0.4-0.5,1-0.8,1.6c-1.1,2.5-2,5.3-2.7,8.2c-0.4,1.4-0.7,2.8-1,4.3c-0.3,1.4-0.5,2.8-0.5,4c0,0.3,0,0.6,0,0.8
			c0,0.1,0,0.2,0,0.2c0,0,0,0.1,0,0.1c0,0,0-0.1,0-0.1c0,0-0.1-0.2-0.1-0.3l0-0.1c0,0,0-0.1,0,0l0.1,0.2l0.4,0.7
			c0.2,0.4,0.4,0.8,0.6,1.2c0.8,1.5,1.4,2.9,2,4.3c1.3,2.9,2.5,5.8,3.6,8.7s2.2,5.8,3.3,8.8c1,2.9,2.1,6.2,2.6,9.6
			c0.1,0.9,0.2,1.7,0.2,2.6c0,0.9,0,1.7,0,2.5c0,1.7-0.2,3.4-0.4,5c-0.4,3.3-1.3,6.6-2.4,9.7c-0.6,1.6-1.2,3.1-1.9,4.5l-1.1,2.2
			l-1.2,2.2c-1.7,2.9-3.6,5.6-5.7,8.1c-4.2,5-9.3,9.3-14.8,12.8l0.4-0.3c-1.1,0.9-2,2.1-2.5,3.3c-0.5,1.2-0.8,2.6-0.9,4.3
			c-0.1,3.3,0.5,7.2,1,11.1c0.6,3.9,1.1,7.9,1.9,11.6c0.2,0.9,0.4,1.8,0.6,2.6c0.2,0.8,0.5,1.4,0.6,1.6c0.8,1.2,1.9,2.3,3.1,3.3
			c2.5,1.9,5.8,3.1,9.3,4c1.8,0.4,3.6,0.8,5.6,1.2l5.9,1.1c7.8,1.6,15.7,3.1,23.6,5.1c2,0.5,4,1,6,1.6c2,0.6,4.1,1.4,5.4,1.7
			c1.4,0.3,3.3,0.5,5.3,0.7c1.9,0.2,3.9,0.4,5.8,0.5c7.7,0.5,15.7,0.5,23.6,0.6c15.8,0,31.8-0.3,47.7-0.6c4-0.1,8-0.1,12-0.1
			c2,0,4,0,6.3,0.1l5.8,0.3l23.8,1.1c15.9,0.7,31.8,1.5,47.8,2.6l6,0.4l5.8,0.3l5.8,0.1l5.8,0c7.8-0.1,15.7-0.5,23.5-1.1
			c7.9-0.6,15.8-1.3,23.6-2.1c7.9-0.8,15.8-1.7,23.9-2.3c3.8-0.3,7.5-0.8,11.3-1.4c3.7-0.7,7.5-1.6,11.6-2.4c2-0.4,4.2-0.7,6.3-1
			c1.1-0.1,2.1-0.2,3.2-0.3l3-0.3c3.7-0.3,7.1-1,10.4-2.1c1.6-0.5,3.2-1.2,5-2c0.9-0.4,1.9-0.8,3-1.3c0.3-0.1,0.6-0.2,0.9-0.3
			l0.5-0.2c0.2-0.1,0.2-0.1,0.2-0.1c0,0,0,0,0,0c0,0,0.1-0.1,0.2-0.1c0.1-0.1,0.4-0.3,0.6-0.4c0.2-0.2,0.5-0.5,0.8-0.7
			c0.5-0.5,1.1-1.1,1.6-1.8c1.1-1.3,2.2-2.8,3.2-4.3c0.5-0.8,1-1.5,1.5-2.3l1.5-2.5c1-1.6,2-3.3,3-5c2-3.3,3.9-6.8,5.4-10l0.5-1.2
			c0.2-0.4,0.2-0.7,0.4-1l0.3-0.9c0.1-0.4,0.2-0.9,0.4-1.3c0.1-0.2,0.1-0.4,0.2-0.6l0.2-0.5l0.4-1l0.4-0.8c0.3-0.6,0.6-1.1,0.9-1.6
			c0.6-1,1.2-1.9,1.8-2.8c2.5-3.6,5.1-6.8,7.9-10c1.4-1.6,2.8-3.1,4.3-4.6c0.8-0.8,1.5-1.5,2.4-2.3c0.4-0.4,0.9-0.8,1.3-1.1
			c0.2-0.2,0.5-0.4,0.7-0.6l0.8-0.6c0.5-0.4,1.2-0.8,1.8-1.2c0.7-0.4,1.4-0.7,2.2-1c1.5-0.6,3.3-0.9,5-1c1.7-0.1,3,0.2,4.3,0.4
			c1.2,0.2,2.3,0.5,3.3,0.7c2,0.5,3.7,0.9,5.5,1.2l1.3,0.2l1.5,0.2l2.8,0.4c1.9,0.2,3.5,0.4,5,0.4c1.5,0,3.1-0.2,5-0.5l2.8-0.5
			l0.4-0.1c0.1,0,0.2,0,0.3-0.1l0.4-0.1c0.2-0.1,0.4-0.1,0.8-0.3c1.4-0.5,3.1-1.3,4.7-2.2c3.3-1.7,6.6-3.7,10-5.7
			c6.6-4.1,13.2-8.4,19.7-12.9c3.2-2.2,6.4-4.5,9.5-6.8l0.6-0.4c0.2-0.1,0.3-0.2,0.5-0.4l0.9-0.7c0.6-0.6,1.2-1.2,1.8-1.8l1.8-2
			l1.8-2.1c4.8-5.8,9.4-12.2,13.8-18.7l6.7-9.8l3.5-5c1.1-1.5,2.2-3.1,3.2-4.8c4.3-6.6,8.5-13.3,12.7-20l12.5-20.3l24.1-41.1l6-10.3
			l2.8-5.1c0.9-1.7,1.8-3.4,2.7-5.1c3.5-6.9,6.7-13.9,9.3-21.1c1.3-3.6,2.5-7.2,3.5-10.8c1-3.6,1.9-7.3,2.4-10.8l2.7-23.5
			c1.8-15.8,3.5-31.6,5-47.4c0.8-7.9,1.4-15.6,1.7-23.4c0.3-7.9,0.5-15.8,0.6-23.7c0.1-7.9,0.1-15.8,0.1-23.8
			c-0.1-7.9-0.2-15.8-0.4-23.7c-0.5-15.8-1.2-31.7-2.6-47.2c-0.2-2-0.4-3.9-0.6-5.8l-0.3-2.9l-0.4-2.8l-0.4-2.8
			c-0.1-0.9-0.3-1.8-0.5-2.8l-0.5-2.8l-0.6-2.8c-1.7-7.4-4-14.5-7.3-20.8c-1.7-3.2-3.6-6.2-5.8-9.3c-2.2-3.1-4.8-6.3-7.2-10
			c-1-1.7-4.1-4.3-7.1-6.5c-3-2.3-6.2-4.5-9.4-6.7c-6.5-4.4-13.2-8.5-19.9-12.6c-6.8-4.1-13.6-8.1-20.4-12
			c-13.8-7.8-27.7-15.4-41.8-22.6c-7-3.6-14.1-7.1-21.2-10.5c-7.1-3.4-14.4-6.7-21.6-10c-14.5-6.5-29-12.9-43.6-18.9
			c-3.7-1.5-7.3-3-11-4.4c-3.6-1.4-7.3-2.8-11.1-4.1c-7.5-2.7-15-5.3-22.5-7.8c-7.5-2.5-15-5-22.6-7.3c-7.6-2.3-15.2-4.5-22.8-6.5
			c-7.6-2-15.3-3.8-22.9-5.2c-1.9-0.3-3.8-0.7-5.7-0.9l-5.8-0.7l-5.8-0.5c-1.9-0.2-3.9-0.2-5.8-0.3c-7.8-0.3-15.6-0.1-23.3,0.5
			c-1.9,0.1-3.9,0.4-5.8,0.6c-1.9,0.2-3.9,0.5-5.8,0.8c-1.9,0.3-3.8,0.6-5.8,0.9c-1.9,0.3-3.8,0.7-5.6,1.1l0.3-0.1
			c-15.6,5.4-31.2,11.6-46.3,18.4c-3.8,1.7-7.5,3.5-11.2,5.3c-1.9,0.9-3.6,1.9-5.4,2.8c-1.8,1-3.5,2.1-5.2,3.1
			c-6.9,4.3-13.4,9.4-19.7,14.8c-6.3,5.4-12.2,11.1-18,17.1c-2.9,3-5.8,6-8.6,9.1c-1.4,1.5-2.9,3.1-4.4,4.6l-4.5,4.5
			c-6,5.9-12.1,11.7-18.1,17.5c-3,2.9-6,5.8-9,8.8c-1.5,1.5-3,2.9-4.4,4.4l-2.2,2.2l-1.1,1.1L125.2,127.9z"/>
	</g>
	<g id="tooth_9_1_">
		<path d="M104.1,493.3c0.3,6.3,0.3,12.7,0,19.1c-0.1,3.2-0.3,6.4-0.6,9.6c-0.3,3.2-0.6,6.3-1,9.6l-3.4-0.6l0,0
			c0.8-4,1.6-7.9,2.5-11.8c0.9-3.9,1.9-7.8,3-11.7c1.1-3.9,2.3-7.7,3.8-11.5c0.7-1.9,1.5-3.8,2.5-5.6c0.9-1.8,2-3.6,3.5-5.1l0.7,0.7
			c-1.3,1.4-2.2,3.2-3,5c-0.8,1.8-1.5,3.7-2.1,5.5c-1.2,3.8-2.2,7.6-3.1,11.5c-0.9,3.9-1.7,7.8-2.4,11.7c-0.7,3.9-1.3,7.9-1.9,11.8
			l0,0l-3.4-0.6c0.6-3,1.1-6.2,1.6-9.3c0.5-3.1,0.8-6.2,1.2-9.4c0.7-6.3,1.1-12.6,1.2-18.9L104.1,493.3z"/>
	</g>
	<g id="tooth_8_1_">
		<path d="M133.6,491.3c0.3,0.8,0.7,1.5,1,2.3c0.2,0.8,0.5,1.6,0.7,2.4c0.2,0.8,0.4,1.6,0.5,2.4l0.4,2.4c0.5,3.3,0.8,6.5,1.1,9.8
			c0.2,3.3,0.4,6.6,0.5,9.8c0.1,3.3,0.2,6.6,0.2,9.9l0,0l-4.2-0.4c1.2-6,2.4-11.9,3.8-17.8c0.7-2.9,1.4-5.9,2.2-8.8
			c0.8-2.9,1.7-5.8,2.8-8.7l0.9,0.3c-0.8,2.8-1.4,5.8-2,8.7c-0.5,2.9-1,5.9-1.4,8.9c-0.8,5.9-1.6,11.9-2.2,17.9l-4.2-0.4l0,0
			c0.3-3.2,0.5-6.4,0.6-9.7s0.2-6.5,0.3-9.7c0-3.2-0.1-6.5-0.3-9.7l-0.2-2.4c-0.1-0.8-0.2-1.6-0.3-2.4c-0.1-0.8-0.3-1.6-0.5-2.3
			c-0.2-0.8-0.5-1.5-0.7-2.2L133.6,491.3z"/>
	</g>
	<g id="tooth_7_1_">
		<path d="M168.3,492c0.5,7.6,1,15.2,1.4,22.8c0.2,3.8,0.3,7.6,0.4,11.4c0,1.9,0.1,3.8,0.1,5.7c0,1,0,1.9,0,2.9c0,0.5,0,1-0.1,1.5
			l-0.1,0.8l0,0.4c0,0.1,0,0.1,0,0.2c0,0.1,0,0.1-0.1,0.3l0,0l-2.7-0.6c1.1-7.8,2.4-15.7,3.8-23.4c0.8-3.9,1.6-7.8,2.5-11.6
			c1-3.8,2-7.7,3.7-11.4l0.9,0.4c-1.5,3.5-2.4,7.4-3.2,11.2c-0.8,3.8-1.4,7.7-2,11.6c-1.2,7.8-2.1,15.6-2.9,23.4l-2.7-0.6l0,0
			c0,0.1,0,0,0,0c0,0,0-0.1,0-0.1l0-0.3l0.1-0.7c0-0.4,0.1-0.9,0.1-1.4c0.1-0.9,0.1-1.9,0.2-2.8c0.1-1.9,0.1-3.8,0.2-5.7
			c0-3.8,0-7.6,0-11.4c-0.1-7.6-0.3-15.2-0.5-22.8L168.3,492z"/>
	</g>
	<g id="tooth_6_1_">
		<path d="M202.7,498.1c0.9,3.8,1.7,7.7,2.4,11.6c0.6,3.9,1.2,7.9,1.5,11.8c0.3,4,0.5,8,0.2,12c-0.2,2-0.4,4.1-0.9,6l-0.7,2.9
			l-0.1,0.4l0,0.2l0,0.1l0,0.1l0,0.1c0-0.2,0.1,0.2-0.6,0.8c-0.8,0.3-1,0.1-1,0.1c-0.1,0-0.2-0.1-0.3-0.2c-0.2-0.1-0.4-0.4-0.5-0.6
			c-0.1-0.3-0.1-0.5-0.1-0.7l0-0.1l0-0.2l0.1-0.4l0.2-1.5c0.7-3.9,1.5-7.8,2.5-11.7c0.9-3.9,2-7.7,3.3-11.5
			c1.3-3.8,2.7-7.5,4.2-11.2c1.6-3.6,3.3-7.2,5.2-10.7l0.9,0.4c-3.2,7.2-6,14.5-8.3,22c-2.2,7.5-3.9,15.2-5.2,22.9l-0.2,1.4l0,0.3
			l0,0.2c0,0,0,0.1,0,0c0-0.1,0-0.4-0.1-0.6s-0.3-0.4-0.5-0.5c-0.1-0.1-0.2-0.1-0.3-0.1c0,0.1-0.2-0.2-1,0.1
			c-0.7,0.5-0.6,0.9-0.6,0.7v0c0,0,0,0,0,0l0-0.1l0-0.2l0.1-0.3l0.7-2.9c0.4-1.9,0.7-3.8,0.9-5.7c0.3-3.8,0.3-7.8,0.1-11.7
			c-0.2-3.9-0.5-7.8-1-11.7c-0.4-3.9-1-7.8-1.6-11.7L202.7,498.1z"/>
	</g>
	<g id="tooth_5_1_">
		<path d="M241,504.6c1.9,2.8,3.5,5.8,4.7,8.9c1.2,3.2,2,6.5,1.9,10c0,1.8-0.2,3.4-0.5,5c-0.2,1.7-0.4,3.3-0.7,4.9
			c-0.5,3.3-1.1,6.5-1.9,9.8l-2.3-0.4l0,0c0.6-0.8,0.8-1.6,0.9-2.4c0.1-0.8,0.3-1.7,0.4-2.5c0.2-1.7,0.4-3.3,0.7-5
			c0.7-3.3,1.4-6.6,2.3-9.8c0.9-3.2,1.9-6.5,3.3-9.6c0.7-1.6,1.5-3.1,2.4-4.5c0.9-1.4,2-2.8,3.5-3.8l0.6,0.8
			c-1.3,0.9-2.3,2.2-3.1,3.6c-0.9,1.4-1.6,2.9-2.2,4.4c-1.3,3.1-2.2,6.2-3,9.5c-0.8,3.2-1.5,6.5-2.1,9.8c-0.3,1.6-0.7,3.2-1,4.9
			c-0.2,0.8-0.3,1.6-0.4,2.5c-0.1,0.8-0.1,1.7,0.2,2.5l0,0l-2.3-0.4c0.7-3.2,1.3-6.4,1.8-9.7c0.3-1.6,0.5-3.2,0.8-4.9
			c0.2-1.6,0.5-3.3,0.6-4.8c0.1-1.6,0-3.2-0.3-4.7c-0.2-1.6-0.6-3.2-1.1-4.7c-1-3.1-2.3-6.1-3.9-8.9L241,504.6z"/>
	</g>
	<g id="tooth_4_1_">
		<path d="M277.2,510.6c1,1.2,1.8,2.5,2.6,3.9c0.8,1.4,1.4,2.8,2,4.2c1.1,2.9,1.8,6.1,1.8,9.3l-0.1,1.2c0,0.4,0,0.8-0.1,1.2
			c-0.2,0.8-0.4,1.6-0.6,2.3c-0.4,1.5-0.8,2.9-1.1,4.4c-0.6,2.9-1,5.9-1.1,8.9l-2.4-0.2c0.5-3.2,1.1-6.3,2-9.4
			c0.9-3.1,2-6.1,3.3-9.1c1.3-2.9,2.8-5.8,4.5-8.5c1.7-2.7,3.6-5.3,5.7-7.7l0.8,0.6c-1.8,2.6-3.5,5.2-5,8c-1.5,2.7-2.9,5.6-4,8.4
			c-2.3,5.8-4,11.8-4.8,18l-2.4-0.2c0.1-3.1,0.5-6.2,1.2-9.3c0.3-1.5,0.8-3,1.2-4.5c0.2-0.7,0.4-1.5,0.6-2.1c0.1-0.3,0.1-0.7,0.2-1
			l0.1-1.1c0.1-2.9-0.3-5.8-1.3-8.6c-0.9-2.8-2.2-5.6-3.8-8.1L277.2,510.6z"/>
	</g>
	<g id="tooth_3_1_">
		<path d="M315.3,519.5c3.5,1.2,6.2,4,7.6,7.3l0.3,0.6l0.2,0.6l0.4,1.3c0.2,0.9,0.4,1.8,0.5,2.6c0.3,1.8,0.3,3.6,0.3,5.3l-0.2,2.7
			l-0.2,2.6l-0.5,5.1l-0.4,5.1l-0.2,2.6c-0.1,0.8-0.1,1.7,0.6,2.6l-5.9-0.5l0,0c0.6-0.4,1.1-0.7,1.4-1.1c0.3-0.3,0.6-0.7,0.8-1.1
			c0.2-0.4,0.2-0.7,0.3-1.1l0.2-1.1l0.9-4.5c0.6-3,1.2-6,2-8.9c0.9-2.9,2-5.8,3.6-8.5c1.6-2.6,3.7-5.1,6.3-6.8l0.6,0.8
			c-1.9,2.3-3.5,4.7-4.9,7.2c-0.3,0.7-0.7,1.3-1,1.9c-0.3,0.7-0.6,1.3-0.9,2c-0.3,0.7-0.6,1.3-0.9,2c-0.3,0.7-0.6,1.3-0.9,2
			c-1.1,2.7-2,5.6-2.7,8.5c-0.3,1.4-0.5,2.9-0.7,4.4l-0.1,1.1c0,0.4-0.1,0.7,0,1.1c0.2,0.8,0.6,1.6,1.7,2.3l0,0l-5.9-0.5
			c0.9-0.8,1.2-1.6,1.3-2.5l0.5-2.6l1-5.1l1-5.1l0.5-2.6l0.4-2.5c0.2-1.7,0.2-3.3,0.1-5c0-0.8-0.2-1.6-0.3-2.5l-0.3-1.2l-0.2-0.6
			l-0.2-0.6c-0.5-1.6-1.4-3-2.6-4.2c-0.6-0.6-1.2-1.1-1.9-1.6c-0.7-0.4-1.4-0.8-2.2-1.1L315.3,519.5z"/>
	</g>
	<g id="tooth_2_1_">
		<path d="M352.9,526.5c2.3,2.9,4,6.1,5.2,9.6c1.2,3.5,1.7,7.3,1.2,11.1c-0.2,0.9-0.3,1.9-0.6,2.8l-0.7,2.6
			c-0.5,1.7-0.9,3.5-1.4,5.2c-1,3.5-2,6.9-3.2,10.4l0,0l-3.8-1.3c1-3,2.2-5.9,3.4-8.8c1.2-2.9,2.5-5.8,3.8-8.6
			c1.4-2.8,2.8-5.6,4.5-8.3c0.8-1.3,1.8-2.7,2.8-3.9s2.2-2.4,3.5-3.3l0.6,0.8c-1.2,0.9-2.1,2.1-3,3.3s-1.7,2.6-2.4,3.9
			c-1.4,2.7-2.7,5.6-3.8,8.4c-1.1,2.9-2.1,5.8-3.1,8.8c-0.9,2.9-1.8,5.9-2.6,8.9l-3.8-1.3l0,0c1.4-3.2,2.6-6.6,3.8-9.9
			c0.6-1.7,1.2-3.4,1.7-5.1l0.8-2.5c0.3-0.8,0.4-1.6,0.7-2.4c0.7-3.3,0.5-6.8-0.4-10.2c-0.9-3.3-2.3-6.6-4.3-9.5L352.9,526.5z"/>
	</g>
	<g id="tooth_1_1_">
		<path d="M386.3,552.5c0.8,4.5,1.2,9.1,1.3,13.7c0,2.3-0.1,4.6-0.3,6.9c-0.1,1.2-0.3,2.3-0.5,3.5l-0.2,0.8l-0.1,0.2l0,0.2l0,0
			c0,0,0,0.1-0.1,0.2c-0.1,0.1-0.2,0.2-0.3,0.3c-0.2,0.1-0.1,0.2-0.7,0.2c-0.8,0-1.1-1-1-1.1v0v-0.1c0-0.3,0-0.3,0.1-0.5l0.3-1.7
			c0.9-4.5,1.9-9,3.2-13.3c0.7-2.2,1.4-4.4,2.3-6.5c0.4-1.1,0.9-2.1,1.5-3.2c0.6-1,1.2-2.1,2.1-2.9l0.7,0.7
			c-0.7,0.8-1.2,1.8-1.6,2.8c-0.4,1-0.8,2.1-1.2,3.1c-0.7,2.1-1.3,4.3-1.9,6.5c-0.5,2.2-1.1,4.4-1.6,6.6c-0.5,2.2-1,4.4-1.5,6.6
			l-0.3,1.7l0,0.3v0v0c0.1-0.1-0.2-1.1-1-1.1c-0.6,0.1-0.5,0.1-0.7,0.2c-0.1,0.1-0.2,0.2-0.3,0.3c-0.1,0.1-0.1,0.2-0.1,0.2l0,0
			c0,0,0,0,0,0l0-0.2l0.2-0.8c0.2-1.1,0.3-2.2,0.4-3.3c0.1-2.2,0.1-4.5,0.2-6.7c0-4.5,0-9,0.1-13.6L386.3,552.5z"/>
	</g>
	<g id="tooth_10_1_">
		<path d="M376.5,617.8c1.9-3.6,3.7-7.3,5.2-11c0.8-1.9,1.5-3.8,2-5.7c0.6-1.9,1-3.8,1.2-5.7l2.6,0.3c-0.3,2.2-1,4.2-1.7,6.2
			c-0.7,2-1.6,3.8-2.5,5.7c-1.8,3.7-3.8,7.3-6,10.8L376.5,617.8z"/>
	</g>
	<g id="tooth_11_1_">
		<path d="M341.8,611c-0.4-2.1-0.6-4.3-0.7-6.5c0-2.2,0.1-4.4,0.6-6.6c0.1-0.6,0.3-1.1,0.5-1.6c0.2-0.5,0.4-1.1,0.7-1.6l1.3-2.9
			l1.3-2.9c0.4-1,0.9-1.9,1.7-2.7l0,0l1.4,0.6c-1.5,3.2-3.1,6.4-4.8,9.4c-0.9,1.5-1.9,3-3,4.4c-1.1,1.4-2.3,2.8-4,3.7l-0.4-0.9
			c1.4-0.8,2.5-2.1,3.5-3.5c1-1.4,1.9-2.9,2.8-4.4c1.7-3,3.2-6.2,4.6-9.4l1.4,0.6l0,0c0,1.2-0.4,2.2-0.9,3.2l-1.4,2.9l-1.5,2.9
			c-0.2,0.5-0.4,0.9-0.6,1.3c-0.2,0.5-0.3,0.9-0.5,1.4c-0.6,1.9-0.8,4-1,6.1c-0.1,2.1-0.1,4.2,0,6.3L341.8,611z"/>
	</g>
	<g id="tooth_12_1_">
		<path d="M308.9,606c-1.1-2.3-2-4.6-2.9-6.9c-0.8-2.4-1.6-4.8-2.1-7.3c-0.2-1.3-0.5-2.5-0.5-3.9l-0.1-1l0-1c0-0.7,0.1-1.3,0.1-1.9
			l0.6-7.6l4.5,0.8l0,0c-0.4,1.6-0.9,3-1.4,4.5c-0.5,1.4-1.1,2.9-1.8,4.2c-1.3,2.8-3,5.4-5.3,7.5l-0.7-0.7c1.7-2.3,2.7-5,3.4-7.8
			c0.4-1.4,0.6-2.8,0.8-4.2c0.2-1.4,0.4-2.9,0.4-4.2l0,0l4.5,0.8l-1.4,7.1c-0.1,0.6-0.2,1.2-0.3,1.7l-0.1,0.8l0,0.8
			c-0.1,1.1,0,2.3,0.1,3.5c0.2,2.4,0.6,4.8,1.2,7.2c0.5,2.4,1.2,4.8,2,7.1L308.9,606z"/>
	</g>
	<g id="tooth_13_1_">
		<path d="M274.9,596.8c-1.3-0.7-2.5-1.7-3.4-2.8c-1-1.1-1.8-2.4-2.3-3.9c-0.5-1.5-0.6-3-0.7-4.4c-0.1-1.4-0.1-2.8-0.1-4.3
			c0-2.9,0.5-5.7,0.8-8.5c0.4-2.8,1-5.6,1.7-8.4l2.8,0.7l-2.2,9.2c-0.8,3-1.5,6.1-2.4,9.1c-0.9,3-1.8,6-2.8,9c-1,3-2,5.9-3.2,8.9
			l-1-0.3l2.3-9.1l2.2-9.1c0.7-3,1.4-6.1,2.1-9.1l2.1-9.1l2.8,0.7c-0.7,2.7-1.2,5.3-1.7,8.1c-0.5,2.8-0.9,5.5-1.1,8.2
			c-0.1,1.3-0.1,2.8-0.2,4.1c0,1.4,0,2.7,0.3,3.9c0.6,2.5,2.3,4.8,4.4,6.4L274.9,596.8z"/>
	</g>
	<g id="tooth_14_1_">
		<path d="M234.5,590.3l4.8-26.8l2.2,0.6l0,0c-2,5.8-4.1,11.5-6.3,17.2c-1.1,2.8-2.2,5.7-3.4,8.5c-1.2,2.8-2.4,5.6-3.9,8.3l-0.9-0.5
			c1.3-2.7,2.5-5.5,3.6-8.4c1.1-2.8,2.1-5.7,3.1-8.6c2-5.7,3.9-11.5,5.7-17.3l0,0l2.2,0.6l-6,26.5L234.5,590.3z"/>
	</g>
	<g id="tooth_15_1_">
		<path d="M196.6,597.6c1.2-2.4,2.5-4.9,3.5-7.4c1.1-2.5,2-5.1,2.9-7.7c0.8-2.6,1.6-5.2,2.1-7.9c0.3-1.3,0.6-2.7,0.7-4
			c0.2-1.3,0.3-2.7,0.1-3.9l4.1,0.3l-1.2,4.2c-0.4,1.4-0.7,2.7-1.2,4.1c-0.8,2.7-1.8,5.3-2.9,7.9c-1.1,2.6-2.2,5.1-3.5,7.6
			c-0.6,1.2-1.3,2.4-1.9,3.7l-2,3.6L196.6,597.6z"/>
	</g>
	<g id="tooth_16_1_">
		<path d="M178.6,594.8l0.1-15.2l0-7.6l0-0.9c0-0.3,0.1-0.6-0.1-1l0.1-1.9l0.1-1.9l0-0.9l0-0.5c0-0.1,0,0,0,0c0,0,0-0.1,0-0.1l0-0.2
			l0.2-0.9l0.1-0.5l0-0.2v0c0-0.1,0,0.4,0.2,0.7c0.3,0.3,0.7,0.3,0.6,0.3c0,0,0.1,0,0.2,0c0.2,0,0.6-0.1,0.8-0.3
			c0.2-0.2,0.2-0.5,0.2-0.4l0,0.1l-0.3,1.9l-0.7,3.7c-0.5,2.5-1,4.9-1.6,7.4c-0.6,2.5-1.2,4.9-1.8,7.3c-0.7,2.4-1.5,4.8-2.2,7.2
			l-1-0.3c0.6-2.4,1.3-4.8,1.9-7.3c0.6-2.4,1.1-4.9,1.6-7.3c0.5-2.4,0.9-4.9,1.3-7.4l0.6-3.7l0.3-1.9l0-0.1c0,0.1,0-0.2,0.2-0.5
			c0.2-0.3,0.6-0.5,0.8-0.5c0.1,0,0.1,0,0.2,0c0,0,0.3,0,0.6,0.3c0.3,0.3,0.2,0.8,0.2,0.8v0l0,0.3l-0.1,0.5l-0.1,0.9l-0.1,0.6v0.5
			l0,0.9l0,1.9l0,1.9c-0.2,0.3-0.1,0.6-0.2,0.9l0,0.9l-0.3,7.5l-0.7,15L178.6,594.8z"/>
	</g>
	<g id="tooth_17_1_">
		<polygon points="151.2,586.4 153.1,560.4 155.7,560.7 152.2,586.6 		"/>
	</g>
	<g id="tooth_18_1_">
		<path d="M131.1,586.5c-0.8-5.6-1.5-11.1-2.1-16.7c-0.3-2.8-0.6-5.6-0.9-8.4c0-0.7-0.2-1.4-0.1-2.1c0-0.7,0-1.4-0.1-2.2
			c0-0.4,0-0.8-0.1-1.2c0-0.4-0.1-0.9,0-1.4c0-0.3,0.1-0.6,0.3-0.9c0.1-0.2,0.2-0.3,0.3-0.5c0.1-0.2,0.4-0.4,0.6-0.5
			c0.2-0.2,0.5-0.3,0.8-0.4c0.3-0.1,0.6-0.1,0.9,0c0.5,0.2,0.8,0.7,0.7,1.5v0l0.2-0.2l0,0.6c0.1,3.2-0.1,6.4-0.4,9.6
			c-0.2,1.6-0.3,3.2-0.8,4.7c-0.4,1.6-0.9,3.1-1.2,4.6c-1.6,6.2-3.5,12.3-5.7,18.3l-1-0.3c1.8-6.1,3.3-12.2,4.4-18.4
			c0.3-1.6,0.5-3.1,0.7-4.7s0.5-3.1,0.9-4.6c0.7-3.1,1.4-6.2,2.2-9.3l0.3,0.4l0,0c-0.4,0.6-0.5,1-0.3,1.2c0.2,0.2,0.5,0.1,0.7,0
			c0.1,0,0.2-0.1,0.2-0.1c0,0,0,0,0-0.1c0,0-0.1,0-0.2,0.1c-0.3,0.3-0.7,0.9-0.8,1.5c-0.1,0.6-0.2,1.3-0.1,2
			c0.2,0.7,0.1,1.4,0.1,2.1c0.1,2.8,0.2,5.6,0.4,8.4c0.3,5.6,0.7,11.2,1.1,16.8L131.1,586.5z"/>
	</g>
	<g id="tooth19_1_">
		<path d="M106.3,593.3c-0.1,0-0.3-0.1-0.4-0.2c-0.1-0.1-0.1-0.1-0.1-0.1l0,0l0-0.1l-0.1-0.2l-0.1-0.3l-0.2-0.6l-0.4-1.2
			c-0.3-0.8-0.5-1.5-0.8-2.3c-0.5-1.6-0.9-3.1-1.3-4.7c-0.7-3.2-1.3-6.4-0.9-9.9c0.1-0.9,0.3-1.7,0.4-2.4l0.4-2.4l0.9-4.8l1.7-9.5
			l0,0l3,0.6c-1.4,5.7-2.9,11.3-4.8,16.9c-0.9,2.8-1.9,5.5-3.1,8.2c-1.2,2.7-2.4,5.4-4.3,7.8l-0.8-0.6c1.6-2.3,2.7-5,3.7-7.7
			c1-2.7,1.8-5.5,2.5-8.3c1.5-5.6,2.7-11.3,3.7-16.9l3,0.6l0,0l-4.4,18.8c-0.5,2.9-0.1,6.2,0.4,9.3c0.3,1.6,0.6,3.1,1,4.7
			c0.2,0.8,0.4,1.6,0.6,2.3l0.3,1.2l0.2,0.6l0.1,0.3l0,0.1l0,0.1v0c0,0,0,0,0-0.1c-0.1-0.1-0.3-0.2-0.4-0.2L106.3,593.3L106.3,593.3
			z"/>
	</g>
	<g id="tooth_20_1_">
		<path d="M78.9,589.8c1.5-6.2,2.8-12.5,3.9-18.8c0.6-3.1,1.1-6.3,1.5-9.4c0.2-1.6,0.4-3.1,0.5-4.7c0-0.8,0.1-1.6,0.1-2.3
			c0-0.4,0-0.8-0.1-1.1l-0.2-0.9l3.1-0.7l0,1.5c0,0.5-0.1,0.9-0.1,1.3c-0.1,0.9-0.2,1.7-0.3,2.5c-0.2,1.6-0.5,3.2-0.8,4.8
			c-0.6,3.2-1.3,6.3-2,9.4c-0.7,3.1-1.5,6.2-2.3,9.3s-1.6,6.2-2.4,9.3L78.9,589.8z"/>
	</g>
	<g id="mouth_curve_1_">
		<path d="M120.9,413.1c0.8-0.1,1.5,0.1,2.1,0.3c0.7,0.2,1.3,0.5,1.9,0.9c1.2,0.7,2.5,1.3,3.8,2.1c1.3,0.8,2.5,1.7,3.4,2.9
			c0.5,0.6,0.8,1.2,1.2,1.8s0.7,1.3,1.1,2c1.4,2.7,2.2,5.8,2.2,9.1c0,0.8-0.1,1.6-0.2,2.5c-0.2,0.9-0.5,1.9-0.9,2.7
			c-0.8,1.6-1.7,2.8-2.7,3.9c-1.9,2.2-3.9,4.1-6,5.9c-2.1,1.8-4.2,3.5-6.3,5.2c-4.2,3.4-8.5,6.6-12.6,10.4l-4.5-7
			c4.9-2,9.2-5,13.4-8.2c2.1-1.6,4.1-3.2,6-5c1.9-1.7,3.8-3.5,5.2-5.4c0.8-0.9,1.4-1.9,1.8-2.7c0.2-0.4,0.3-0.7,0.4-1.1
			c0.1-0.4,0.1-1,0.1-1.5c0.1-2.1-0.4-4.2-1.3-6.4c-0.2-0.5-0.5-1.1-0.8-1.6l-0.9-1.6c-0.5-1-1-2.2-1.5-3.3
			c-0.5-1.2-1.3-2.2-2.2-3.2c-0.5-0.5-0.9-0.9-1.4-1.3C121.8,414.2,121.3,413.8,120.9,413.1z"/>
	</g>
	<path id="left_eye_stroke_2_" d="M87.1,221.1c24.5-36.8,38.9-47.2,38.9-47.2s5.8-5.2,28.2-15.6s21.8-8,25.5-8.6s12-9.8,22.4,6.4
		c14.7,22.9,19.6,43.2,19.6,43.2c2.8,13.4,4.8,23-0.3,28.5c-2,2.1-5.4,3.9-11.2,9.8c0,0-2.7,2.7-5.3,5.9
		c-8.8,10.6-19.6,31.5-30.1,48.3c-7.4,11.8-9,12.4-19.6,29.3c-4.3,6.9-7.7,12.6-10,16.5c0,0-20,15-38.4,9s-39.5-14.2-43-23.7
		c-3.5-9.6-5.7-26.7-1.1-38.2c4.6-11.5,9.4-26.7,11.9-35C77,241.3,87.1,221.1,87.1,221.1z"/>
	<path id="nose_stroke_1_" d="M231.5,229.5c-7.5,2.5-16.7,11.9-16.7,11.9s-12.7,17-15,20.9s-9.5,18.2-13.4,23.5s-11.1,19.2-14.2,23
		s-8.1,10.1-14.3,21.3s-10.1,13.3-10.4,20.7s-2,15.4,5.4,17.8c7.4,2.4,14.7,5.2,23.1,1.5c8.3-3.7,13.4-7.4,17.5-7s15.5,2.7,19.7,6.5
		c4.2,3.8,16.8,9.4,19.3,10.6s10.7,4.8,14.1,4.2c3.4-0.5,14-3.5,13.6-14.4c-0.4-10.9-2.9-33.1-5-38.7c-2.1-5.6-5.8-48.9-5.8-48.9
		s-2.5-39.6-3.9-42.9s-5.4-9.3-9-10.1S231.5,229.5,231.5,229.5z"/>
	<path id="right_eye_stroke_1_" d="M327.1,254.4c5.5-26.7,20.3-57.6,20.3-57.6s9.1-14.4,24.1-25.7c15-11.3,29-23.2,33.2-23.7
		c4.2-0.4,18.3-1.8,27.4,4s18.6,13.9,30.7,34.1s23.4,39.8,25.9,47.5s12.4,25.9,9.5,53.9s-3.5,41.3-14.4,54.8s-32.3,41.6-66.3,35.4
		c-34-6.2-39.4-4.2-55.9-15.3s-31.2-33.4-31.2-33.4s-8.8-20.3-6.8-44.9C325.5,259.1,327.1,254.4,327.1,254.4z"/>
	<g id="detail_line_1_1_">
		<path d="M605.1,323.4c-1.5,3.8-3.2,7.3-5.1,10.9l-1.4,2.6l-1.5,2.6c-1,1.7-2,3.4-3.1,5.1c-2.1,3.4-4.4,6.7-6.8,9.9
			c-2.5,3.2-5.1,6.3-8.2,8.9l-0.8-0.7c1.9-3.5,3.9-6.9,5.9-10.3c2-3.4,4.1-6.8,6.3-10.1c1.1-1.7,2.2-3.3,3.3-5
			c1.1-1.7,2.2-3.3,3.4-4.9c2.3-3.3,4.7-6.5,7.2-9.6L605.1,323.4z"/>
	</g>
	<g id="detail_line_2_1_">
		<path d="M627.9,322.3c-3,6.6-6.5,12.8-10.3,18.9c-3.7,6.1-7.8,12.1-12.1,17.8c-2.2,2.9-4.4,5.7-6.9,8.4c-0.6,0.7-1.2,1.3-1.9,2
			l-1.9,1.9c-1.2,1.2-2.4,2.5-3.6,3.8c-2.3,2.6-4.6,5.3-6.6,8.1c-2.1,2.8-4,5.8-5.6,8.9l-1-0.3c0.8-3.7,2.2-7,3.9-10.3
			c1.7-3.2,3.7-6.4,5.8-9.3c1.1-1.5,2.2-2.9,3.4-4.3l3.4-4c2.2-2.7,4.3-5.5,6.4-8.3l12.7-17.1c4.3-5.7,8.6-11.4,13.3-16.9
			L627.9,322.3z"/>
	</g>
	<g id="detail_line_3_1_">
		<path d="M638.9,338.2c-1.2,2.8-2.6,5.5-4.1,8.2c-1.5,2.7-3,5.3-4.6,7.9s-3.3,5.1-5,7.6c-1.7,2.5-3.6,4.9-5.6,7.3
			c-0.5,0.6-1.1,1.2-1.6,1.8l-1.4,1.6c-0.9,1.1-1.9,2.2-2.8,3.4l-5.7,7c-3.8,4.7-7.6,9.4-11.7,13.9l-0.8-0.6
			c2.7-5.5,5.8-10.7,9-15.8c1.6-2.6,3.3-5.1,5.1-7.6c0.9-1.2,1.8-2.5,2.8-3.7l1.6-1.8c0.4-0.5,0.9-1,1.3-1.6
			c1.8-2.3,3.6-4.7,5.4-7.1c1.8-2.4,3.6-4.8,5.5-7.2c3.7-4.7,7.5-9.4,11.7-13.9L638.9,338.2z"/>
	</g>
	<g id="detail_line_4_1_">
		<path d="M645.5,363.5c-1.8,3.6-3.7,7-5.8,10.4s-4.4,6.7-6.8,9.8c-0.6,0.8-1.3,1.6-2,2.3c-0.7,0.8-1.3,1.5-2,2.2l-4,4.4
			c-1.3,1.5-2.6,2.9-3.9,4.4c-0.6,0.7-1.2,1.5-1.8,2.3c-0.6,0.8-1.1,1.6-1.4,2.3l-1-0.2c0.2-1.1,0.6-2.1,1.1-3
			c0.4-0.9,1-1.8,1.5-2.7c1.1-1.7,2.2-3.3,3.4-4.9c1.2-1.6,2.5-3.2,3.7-4.7c0.6-0.8,1.3-1.5,1.9-2.3c0.6-0.7,1.2-1.5,1.8-2.2
			c2.4-3.1,4.7-6.3,7.1-9.4c2.4-3.2,4.8-6.3,7.4-9.3L645.5,363.5z"/>
	</g>
	<g id="detail_line_5_1_">
		<path d="M651.5,392.3c-0.7,2.5-1.7,4.9-2.9,7.1s-2.6,4.4-4,6.5c-1.4,2.1-3.1,4.1-4.7,6c-1.7,1.9-3.5,3.7-5.4,5.4l-0.8-0.7
			c0.7-1.1,1.4-2.1,2.2-3.1c0.7-1,1.5-2,2.2-3.1c0.7-1,1.5-2,2.2-3c0.8-1,1.5-2,2.2-3c1.4-2,2.8-4.1,4.2-6.2
			c1.3-2.1,2.7-4.2,3.9-6.3L651.5,392.3z"/>
	</g>
	<g id="body_segment_24_">
		<circle class="st1" cx="443.3" cy="576" r="7.9"/>
		<path class="st2" d="M453.3,579.2c-0.8,2.6-2.6,5-5.1,6.3c-2.5,1.3-5.5,1.5-8.1,0.6c-2.6-0.9-4.8-2.8-6.1-5.3
			c-1.2-2.4-1.5-5.3-0.6-7.9c0.8-2.6,2.4-5.1,5-6.4c2.5-1.3,5.5-1.6,8.2-0.7c2.7,0.9,5,2.8,6.2,5.3
			C454,573.6,454.2,576.6,453.3,579.2z M448.3,577.6c0.4-1.3,0.3-2.8-0.4-3.9c-0.7-1.2-1.8-2.1-3-2.4c-1.3-0.4-2.7-0.3-3.8,0.3
			c-1.1,0.6-2.4,1.4-2.8,2.8c-0.4,1.3-0.3,2.8,0.4,4.1c0.7,1.2,1.8,2.1,3.2,2.5c1.3,0.4,2.7,0.2,3.9-0.4
			C446.8,579.9,447.9,578.9,448.3,577.6z"/>
	</g>
	<g id="body_segment_23_">
		<circle class="st1" cx="451.7" cy="589.4" r="7.9"/>
		<path class="st2" d="M461.8,592.6c-0.8,2.6-2.6,5-5.1,6.3c-2.5,1.3-5.5,1.5-8.1,0.6c-2.6-0.9-4.8-2.8-6.1-5.3
			c-1.2-2.4-1.5-5.3-0.6-7.9c0.8-2.6,2.4-5.1,5-6.4c2.5-1.3,5.5-1.6,8.2-0.7c2.7,0.9,5,2.8,6.2,5.3C462.4,587,462.6,590,461.8,592.6
			z M456.7,591c0.4-1.3,0.3-2.8-0.4-3.9c-0.7-1.2-1.8-2.1-3-2.4c-1.3-0.4-2.7-0.3-3.8,0.3c-1.1,0.6-2.4,1.4-2.8,2.8
			c-0.4,1.3-0.3,2.8,0.4,4.1c0.7,1.2,1.8,2.1,3.2,2.5c1.3,0.4,2.7,0.2,3.9-0.4C455.2,593.3,456.3,592.3,456.7,591z"/>
	</g>
	<g id="body_segment_11_">
		<circle class="st1" cx="523.3" cy="402.9" r="7.9"/>
		<g>
			<path class="st2" d="M533.3,406c-0.8,2.6-2.6,5-5.1,6.3c-2.5,1.3-5.5,1.5-8.1,0.6c-2.6-0.9-4.8-2.8-6.1-5.3
				c-1.2-2.4-1.5-5.3-0.6-7.9c0.8-2.6,2.4-5.1,5-6.4c2.5-1.3,5.5-1.6,8.2-0.7c2.7,0.9,5,2.8,6.2,5.3
				C533.9,400.4,534.1,403.4,533.3,406z M528.2,404.4c0.4-1.3,0.3-2.8-0.4-3.9c-0.7-1.2-1.8-2.1-3-2.4c-1.3-0.4-2.7-0.3-3.8,0.3
				c-1.1,0.6-2.4,1.4-2.8,2.8c-0.4,1.3-0.3,2.8,0.4,4.1c0.7,1.2,1.8,2.1,3.2,2.5c1.3,0.4,2.7,0.2,3.9-0.4
				C526.8,406.8,527.8,405.8,528.2,404.4z"/>
		</g>
	</g>
	<g id="body_segment_9_">
		<circle class="st1" cx="456.5" cy="518.2" r="7.9"/>
		<g>
			<path class="st2" d="M466.5,521.4c-0.8,2.6-2.6,5-5.1,6.3c-2.5,1.3-5.5,1.5-8.1,0.6c-2.6-0.9-4.8-2.8-6.1-5.3
				c-1.2-2.4-1.5-5.3-0.6-7.9c0.8-2.6,2.4-5.1,5-6.4c2.5-1.3,5.5-1.6,8.2-0.7c2.7,0.9,5,2.8,6.2,5.3
				C467.1,515.8,467.3,518.8,466.5,521.4z M461.4,519.8c0.4-1.3,0.3-2.8-0.4-3.9c-0.7-1.2-1.8-2.1-3-2.4c-1.3-0.4-2.7-0.3-3.8,0.3
				c-1.1,0.6-2.4,1.4-2.8,2.8c-0.4,1.3-0.3,2.8,0.4,4.1c0.7,1.2,1.8,2.1,3.2,2.5c1.3,0.4,2.7,0.2,3.9-0.4
				C460,522.1,461,521.1,461.4,519.8z"/>
		</g>
	</g>
	<g id="body_segment_10_">
		<circle class="st1" cx="445.1" cy="531" r="7.9"/>
		<g>
			<path class="st2" d="M455.1,534.1c-0.8,2.6-2.6,5-5.1,6.3c-2.5,1.3-5.5,1.5-8.1,0.6c-2.6-0.9-4.8-2.8-6.1-5.3
				c-1.2-2.4-1.5-5.3-0.6-7.9c0.8-2.6,2.4-5.1,5-6.4c2.5-1.3,5.5-1.6,8.2-0.7c2.7,0.9,5,2.8,6.2,5.3
				C455.7,528.5,456,531.5,455.1,534.1z M450,532.5c0.4-1.3,0.3-2.8-0.4-3.9c-0.7-1.2-1.8-2.1-3-2.4c-1.3-0.4-2.7-0.3-3.8,0.3
				c-1.1,0.6-2.4,1.4-2.8,2.8c-0.4,1.3-0.3,2.8,0.4,4.1c0.7,1.2,1.8,2.1,3.2,2.5c1.3,0.4,2.7,0.2,3.9-0.4
				C448.6,534.9,449.6,533.9,450,532.5z"/>
		</g>
	</g>
	<g id="body_segment_20_">
		<circle class="st1" cx="440.9" cy="546.7" r="7.9"/>
		<g>
			<path class="st2" d="M450.9,549.8c-0.8,2.6-2.6,5-5.1,6.3c-2.5,1.3-5.5,1.5-8.1,0.6c-2.6-0.9-4.8-2.8-6.1-5.3
				c-1.2-2.4-1.5-5.3-0.6-7.9c0.8-2.6,2.4-5.1,5-6.4c2.5-1.3,5.5-1.6,8.2-0.7c2.7,0.9,5,2.8,6.2,5.3
				C451.5,544.3,451.8,547.2,450.9,549.8z M445.8,548.2c0.4-1.3,0.3-2.8-0.4-3.9c-0.7-1.2-1.8-2.1-3-2.4c-1.3-0.4-2.7-0.3-3.8,0.3
				c-1.1,0.6-2.4,1.4-2.8,2.8c-0.4,1.3-0.3,2.8,0.4,4.1c0.7,1.2,1.8,2.1,3.2,2.5c1.3,0.4,2.7,0.2,3.9-0.4
				C444.4,550.6,445.4,549.6,445.8,548.2z"/>
		</g>
	</g>
	<g id="body_segment_22_">
		<circle class="st1" cx="435.9" cy="562.1" r="7.9"/>
		<g>
			<path class="st2" d="M446,565.3c-0.8,2.6-2.6,5-5.1,6.3c-2.5,1.3-5.5,1.5-8.1,0.6c-2.6-0.9-4.8-2.8-6.1-5.3
				c-1.2-2.4-1.5-5.3-0.6-7.9c0.8-2.6,2.4-5.1,5-6.4c2.5-1.3,5.5-1.6,8.2-0.7c2.7,0.9,5,2.8,6.2,5.3
				C446.6,559.7,446.8,562.7,446,565.3z M440.9,563.7c0.4-1.3,0.3-2.8-0.4-3.9c-0.7-1.2-1.8-2.1-3-2.4c-1.3-0.4-2.7-0.3-3.8,0.3
				c-1.1,0.6-2.4,1.4-2.8,2.8c-0.4,1.3-0.3,2.8,0.4,4.1c0.7,1.2,1.8,2.1,3.2,2.5c1.3,0.4,2.7,0.2,3.9-0.4
				C439.5,566,440.5,565.1,440.9,563.7z"/>
		</g>
	</g>
	<g id="body_segment_6_">
		<circle class="st1" cx="497.6" cy="468" r="7.9"/>
		<g>
			<path class="st2" d="M507.7,471.2c-0.8,2.6-2.6,5-5.1,6.3c-2.5,1.3-5.5,1.5-8.1,0.6c-2.6-0.9-4.8-2.8-6.1-5.3
				c-1.2-2.4-1.5-5.3-0.6-7.9c0.8-2.6,2.4-5.1,5-6.4c2.5-1.3,5.5-1.6,8.2-0.7c2.7,0.9,5,2.8,6.2,5.3
				C508.3,465.6,508.5,468.6,507.7,471.2z M502.6,469.6c0.4-1.3,0.3-2.8-0.4-3.9c-0.7-1.2-1.8-2.1-3-2.4c-1.3-0.4-2.7-0.3-3.8,0.3
				c-1.1,0.6-2.4,1.4-2.8,2.8c-0.4,1.3-0.3,2.8,0.4,4.1c0.7,1.2,1.8,2.1,3.2,2.5c1.3,0.4,2.7,0.2,3.9-0.4
				C501.2,471.9,502.2,470.9,502.6,469.6z"/>
		</g>
	</g>
	<g id="body_segment_4_">
		<circle class="st1" cx="489.6" cy="482.2" r="7.9"/>
		<g>
			<path class="st2" d="M499.6,485.4c-0.8,2.6-2.6,5-5.1,6.3c-2.5,1.3-5.5,1.5-8.1,0.6c-2.6-0.9-4.8-2.8-6.1-5.3
				c-1.2-2.4-1.5-5.3-0.6-7.9c0.8-2.6,2.4-5.1,5-6.4c2.5-1.3,5.5-1.6,8.2-0.7c2.7,0.9,5,2.8,6.2,5.3
				C500.3,479.8,500.5,482.8,499.6,485.4z M494.6,483.8c0.4-1.3,0.3-2.8-0.4-3.9c-0.7-1.2-1.8-2.1-3-2.4c-1.3-0.4-2.7-0.3-3.8,0.3
				c-1.1,0.6-2.4,1.4-2.8,2.8c-0.4,1.3-0.3,2.8,0.4,4.1c0.7,1.2,1.8,2.1,3.2,2.5c1.3,0.4,2.7,0.2,3.9-0.4
				C493.1,486.1,494.2,485.1,494.6,483.8z"/>
		</g>
	</g>
	<g id="body_segment_7_">
		<circle class="st1" cx="477.6" cy="493.5" r="7.9"/>
		<g>
			<path class="st2" d="M487.6,496.6c-0.8,2.6-2.6,5-5.1,6.3c-2.5,1.3-5.5,1.5-8.1,0.6c-2.6-0.9-4.8-2.8-6.1-5.3
				c-1.2-2.4-1.5-5.3-0.6-7.9c0.8-2.6,2.4-5.1,5-6.4c2.5-1.3,5.5-1.6,8.2-0.7c2.7,0.9,5,2.8,6.2,5.3
				C488.2,491,488.5,494,487.6,496.6z M482.5,495c0.4-1.3,0.3-2.8-0.4-3.9c-0.7-1.2-1.8-2.1-3-2.4c-1.3-0.4-2.7-0.3-3.8,0.3
				c-1.1,0.6-2.4,1.4-2.8,2.8c-0.4,1.3-0.3,2.8,0.4,4.1c0.7,1.2,1.8,2.1,3.2,2.5c1.3,0.4,2.7,0.2,3.9-0.4
				C481.1,497.3,482.1,496.4,482.5,495z"/>
		</g>
	</g>
	<g id="body_segment_8_">
		<circle class="st1" cx="466.9" cy="505.3" r="7.9"/>
		<g>
			<path class="st2" d="M476.9,508.4c-0.8,2.6-2.6,5-5.1,6.3c-2.5,1.3-5.5,1.5-8.1,0.6c-2.6-0.9-4.8-2.8-6.1-5.3
				c-1.2-2.4-1.5-5.3-0.6-7.9c0.8-2.6,2.4-5.1,5-6.4c2.5-1.3,5.5-1.6,8.2-0.7c2.7,0.9,5,2.8,6.2,5.3
				C477.5,502.9,477.8,505.8,476.9,508.4z M471.9,506.8c0.4-1.3,0.3-2.8-0.4-3.9c-0.7-1.2-1.8-2.1-3-2.4c-1.3-0.4-2.7-0.3-3.8,0.3
				c-1.1,0.6-2.4,1.4-2.8,2.8c-0.4,1.3-0.3,2.8,0.4,4.1c0.7,1.2,1.8,2.1,3.2,2.5c1.3,0.4,2.7,0.2,3.9-0.4
				C470.4,509.2,471.5,508.2,471.9,506.8z"/>
		</g>
	</g>
	<g id="body_segment_2_">
		<circle class="st1" cx="515" cy="419.7" r="7.9"/>
		<g>
			<path class="st2" d="M525,422.9c-0.8,2.6-2.6,5-5.1,6.3c-2.5,1.3-5.5,1.5-8.1,0.6c-2.6-0.9-4.8-2.8-6.1-5.3
				c-1.2-2.4-1.5-5.3-0.6-7.9c0.8-2.6,2.4-5.1,5-6.4c2.5-1.3,5.5-1.6,8.2-0.7c2.7,0.9,5,2.8,6.2,5.3
				C525.6,417.3,525.9,420.3,525,422.9z M520,421.3c0.4-1.3,0.3-2.8-0.4-3.9c-0.7-1.2-1.8-2.1-3-2.4c-1.3-0.4-2.7-0.3-3.8,0.3
				c-1.1,0.6-2.4,1.4-2.8,2.8c-0.4,1.3-0.3,2.8,0.4,4.1c0.7,1.2,1.8,2.1,3.1,2.5c1.3,0.4,2.7,0.2,3.9-0.4
				C518.5,423.6,519.6,422.6,520,421.3z"/>
		</g>
	</g>
	<g id="body_segment_3_">
		<circle class="st1" cx="510.5" cy="436.9" r="7.9"/>
		<g>
			<path class="st2" d="M520.5,440.1c-0.8,2.6-2.6,5-5.1,6.3c-2.5,1.3-5.5,1.5-8.1,0.6c-2.6-0.9-4.8-2.8-6.1-5.3
				c-1.2-2.4-1.5-5.3-0.6-7.9c0.8-2.6,2.4-5.1,5-6.4c2.5-1.3,5.5-1.6,8.2-0.7c2.7,0.9,5,2.8,6.2,5.3
				C521.2,434.5,521.4,437.5,520.5,440.1z M515.5,438.5c0.4-1.3,0.3-2.8-0.4-3.9c-0.7-1.2-1.8-2.1-3-2.4c-1.3-0.4-2.6-0.3-3.8,0.3
				c-1.1,0.6-2.4,1.4-2.8,2.8c-0.4,1.3-0.3,2.8,0.4,4.1c0.7,1.2,1.8,2.1,3.2,2.5c1.3,0.4,2.7,0.2,3.9-0.4
				C514,440.8,515.1,439.9,515.5,438.5z"/>
		</g>
	</g>
	<g id="body_segment_5_">
		<circle class="st1" cx="505" cy="453" r="7.9"/>
		<g>
			<path class="st2" d="M515,456.1c-0.8,2.6-2.6,5-5.1,6.3c-2.5,1.3-5.5,1.5-8.1,0.6c-2.6-0.9-4.8-2.8-6.1-5.3
				c-1.2-2.4-1.5-5.3-0.6-7.9c0.8-2.6,2.4-5.1,5-6.4c2.5-1.3,5.5-1.6,8.2-0.7c2.7,0.9,4.9,2.8,6.2,5.3
				C515.6,450.6,515.9,453.5,515,456.1z M510,454.5c0.4-1.3,0.3-2.8-0.4-3.9c-0.7-1.2-1.8-2.1-3-2.4c-1.3-0.4-2.7-0.3-3.8,0.3
				c-1.1,0.6-2.4,1.4-2.8,2.8c-0.4,1.3-0.3,2.8,0.4,4.1c0.7,1.2,1.8,2.1,3.2,2.5c1.3,0.4,2.7,0.2,3.9-0.4
				C508.5,456.9,509.5,455.9,510,454.5z"/>
		</g>
	</g>
	<g id="leg">
		<path class="st2" d="M445.1,592.7c0.8,1.8,1.4,3.7,1.7,5.6c0.3,1.9,0.4,4,0,6c-0.4,2-1.3,4-2.7,5.6c-0.8,0.8-1.5,1.4-2.2,2
			c-0.7,0.6-1.5,1.2-2.2,1.8c-1.5,1.2-3,2.3-4.5,3.5c-1.5,1.2-3,2.3-4.1,3.6c-0.5,0.6-1,1.3-1.1,1.9l0,0.2l0,0.4
			c0,0.3,0,0.5-0.1,0.8c-0.1,0.5-0.2,1-0.3,1.5c-0.5,1.9-1.1,3.8-2,5.5l-0.9-0.4c0.5-1.8,0.9-3.6,1.1-5.4c0-0.4,0.1-0.9,0.1-1.3
			c0-0.2,0-0.4,0-0.7v-0.3l0-0.5c0.1-1.3,0.8-2.3,1.4-3.1c1.3-1.6,2.8-2.9,4.3-4.1c1.5-1.2,3-2.3,4.5-3.5c0.8-0.6,1.5-1.2,2.2-1.7
			s1.5-1.2,2-1.8c1.2-1.2,2-2.7,2.4-4.4c0.8-3.4,0.4-7.3-0.7-10.8L445.1,592.7z"/>
	</g>
	<g id="leg_1_">
		<path class="st2" d="M473.6,507.4c0.8,1.7,1.8,3.3,2.8,4.7s2.3,2.8,3.7,3.9c1.4,1,3,1.8,4.6,1.9c0.8,0.1,1.8,0.1,2.7,0.1l2.8-0.1
			c1.9-0.1,3.8-0.2,5.7-0.2c1.9,0,3.9,0,5.9,0.4c1,0.2,2.1,0.6,3,1.4l0.3,0.3l0.2,0.3c0.1,0.2,0.3,0.3,0.4,0.5c0.3,0.3,0.6,0.7,1,1
			c1.3,1.2,2.9,2.3,4.5,3.3l-0.5,0.9c-1.8-0.9-3.4-1.9-4.9-3.1c-0.4-0.3-0.8-0.6-1.1-1c-0.2-0.2-0.4-0.3-0.5-0.5l-0.3-0.3l-0.2-0.2
			c-0.5-0.4-1.3-0.7-2.2-0.8c-1.7-0.2-3.6-0.2-5.5-0.1l-5.7,0.3c-1,0.1-1.9,0.1-2.9,0.1c-1,0-1.9,0.1-3-0.1
			c-2.1-0.2-4.1-1.1-5.8-2.4c-1.6-1.3-2.9-2.9-3.9-4.6c-1-1.7-1.7-3.6-2.2-5.5L473.6,507.4z"/>
	</g>
	<g id="leg_2_">
		<path class="st2" d="M450.5,513.1c-2.3-1.5-4.5-3-6.7-4.4c-1.1-0.7-2.3-1.4-3.4-1.9c-0.3-0.2-0.5-0.2-0.8-0.3
			c-0.2,0-0.4-0.1-0.7-0.1c-0.5,0-1,0.2-1.5,0.4c-1,0.6-1.9,1.5-2.8,2.5c-0.9,1-1.9,2-2.9,2.9c-1.9,1.9-3.7,3.9-5.3,6l0,0l-0.2,0.2
			l-0.2,0c-1,0-2-0.1-2.9-0.3c-0.5-0.1-1-0.2-1.5-0.3c-0.2-0.1-0.5-0.2-0.8-0.3c-0.2-0.1-0.5-0.3-0.8-0.7l0.9-0.4
			c0,0.1,0.5,0.3,0.9,0.5c0.4,0.1,0.9,0.2,1.3,0.3c0.9,0.1,1.9,0.2,2.8,0.2l-0.4,0.2l0,0c1.4-2.4,3-4.6,4.9-6.7c0.9-1,1.8-2,2.6-3.1
			c0.9-1,1.8-2.1,3.2-3c0.7-0.4,1.5-0.7,2.4-0.7c0.4,0,0.9,0,1.3,0.1c0.4,0.1,0.8,0.2,1.1,0.4c1.3,0.6,2.5,1.4,3.7,2.2
			c2.3,1.6,4.3,3.4,6.2,5.4L450.5,513.1z"/>
	</g>
	<g id="leg_3_">
		<path class="st2" d="M438.5,528c-2.6-1.3-5.1-2.8-7.7-4.1c-0.6-0.3-1.3-0.7-1.9-1c-0.3-0.2-0.6-0.3-0.9-0.4
			c-0.2-0.1-0.4-0.1-0.7-0.1c-0.9,0-1.8,1-2.3,2.2c-1.2,2.4-1.6,5.3-2.2,8.2c-0.5,2.8-0.8,5.7-0.9,8.6l0,0l0,0.2l-0.1,0.1
			c-0.7,0.7-1.4,1.3-2.2,1.9c-0.4,0.3-0.8,0.6-1.2,0.8c-0.4,0.2-0.9,0.5-1.5,0.5l-0.1-1c0.3,0,0.7-0.2,1.1-0.4
			c0.4-0.2,0.8-0.4,1.1-0.7c0.7-0.5,1.4-1.1,2-1.8l-0.1,0.4l0,0c-0.2-3,0-5.9,0.3-8.8c0.2-1.5,0.4-2.9,0.7-4.4
			c0.3-1.5,0.7-2.9,1.4-4.4c0.3-0.7,0.8-1.4,1.4-2.1c0.6-0.6,1.5-1.2,2.5-1.2c0.5,0,1,0.1,1.5,0.3c0.4,0.2,0.7,0.3,1,0.5
			c0.7,0.4,1.3,0.7,1.9,1.1c2.5,1.5,5,3.1,7.3,4.8L438.5,528z"/>
	</g>
	<g id="leg_4_">
		<path class="st2" d="M463.2,522.2c2.7,2.6,5.6,5,8.8,6.2c1.6,0.6,3.3,0.8,4.9,0.5c0.8-0.1,1.7-0.4,2.6-0.7
			c0.9-0.3,1.8-0.6,2.7-0.8c1.8-0.6,3.6-1.2,5.4-1.8c1.8-0.6,3.7-1.2,5.8-1.3c1-0.1,2.2-0.1,3.3,0.5l0.4,0.2l0.3,0.2
			c0.2,0.1,0.4,0.2,0.6,0.4c0.4,0.2,0.8,0.4,1.2,0.7c1.6,0.8,3.4,1.4,5.2,2l-0.2,1c-1.9-0.3-3.8-0.8-5.7-1.5
			c-0.5-0.2-0.9-0.4-1.4-0.6c-0.2-0.1-0.5-0.2-0.7-0.3l-0.3-0.2l-0.2-0.1c-0.6-0.3-1.4-0.3-2.3-0.2c-1.7,0.3-3.5,0.9-5.2,1.5l-5.3,2
			c-0.9,0.3-1.8,0.6-2.7,0.9c-0.9,0.3-1.8,0.6-2.9,0.8c-2.1,0.4-4.4,0.1-6.3-0.7c-2-0.8-3.7-2-5.1-3.4c-1.4-1.4-2.7-3-3.5-4.8
			L463.2,522.2z"/>
	</g>
	<g id="leg_5_">
		<path class="st2" d="M453,534.7c0.4,0.8,0.8,1.7,1.3,2.5c0.5,0.8,1,1.6,1.5,2.3c1.1,1.5,2.3,2.8,3.7,3.8c1.4,1,3,1.7,4.6,1.9
			c0.8,0.1,1.8,0.1,2.7,0.1c0.9,0,1.9,0,2.8-0.1l5.7-0.2c1.9,0,3.9,0,5.9,0.4c1,0.2,2.1,0.6,3,1.4l0.3,0.3l0.2,0.2
			c0.1,0.2,0.3,0.3,0.4,0.5c0.3,0.3,0.6,0.7,1,1c1.3,1.2,2.9,2.4,4.4,3.4l-0.5,0.9c-1.8-0.8-3.4-1.8-5-3.1c-0.4-0.3-0.8-0.6-1.1-1
			c-0.2-0.2-0.4-0.3-0.5-0.5l-0.3-0.3l-0.2-0.2c-0.5-0.4-1.3-0.7-2.2-0.8c-1.7-0.2-3.6-0.1-5.5-0.1c-1.9,0.1-3.8,0.2-5.7,0.3
			c-1,0-1.9,0.1-2.9,0.1c-1,0-1.9,0.1-3-0.1c-2.1-0.2-4.2-1.2-5.7-2.5c-1.6-1.3-2.9-2.9-3.8-4.6s-1.7-3.5-2.2-5.5L453,534.7z"/>
	</g>
	<g id="leg_6_">
		<path class="st2" d="M448.3,548.6c2.2,2.9,4.9,5.7,8.2,7.1c1.6,0.7,3.3,1.1,5,0.9c0.8-0.1,1.8-0.3,2.7-0.5
			c0.9-0.2,1.8-0.4,2.8-0.7c3.7-0.9,7.3-2.2,11.3-2.4c1,0,2.1,0.1,3.2,0.7l0.4,0.2l0.3,0.2c0.2,0.1,0.4,0.3,0.5,0.4
			c0.4,0.3,0.8,0.5,1.2,0.7c1.6,0.9,3.3,1.6,5.1,2.2l-0.3,1c-1.9-0.5-3.7-1.1-5.5-2c-0.4-0.2-0.9-0.4-1.3-0.7
			c-0.2-0.1-0.4-0.3-0.6-0.4l-0.3-0.2l-0.2-0.1c-0.6-0.3-1.5-0.4-2.3-0.4c-1.8,0.1-3.6,0.6-5.4,1.1l-5.5,1.5
			c-0.9,0.2-1.8,0.5-2.8,0.7c-0.9,0.2-1.8,0.5-2.9,0.6c-2.1,0.2-4.2-0.2-6-1.1c-1.8-0.9-3.4-2.2-4.8-3.6c-1.4-1.4-2.5-3-3.4-4.8
			L448.3,548.6z"/>
	</g>
	<g id="leg_7_">
		<path class="st2" d="M452.2,570c1.1,1.5,2.3,2.9,3.7,4.1c1.4,1.2,2.9,2.2,4.5,2.9s3.3,1,5,0.8c0.8-0.1,1.7-0.3,2.6-0.6
			c0.9-0.2,1.8-0.5,2.7-0.7c1.8-0.5,3.6-1,5.5-1.5c1.9-0.5,3.8-0.9,5.9-1c1,0,2.2,0.1,3.3,0.8l0.4,0.3l0.3,0.2
			c0.2,0.1,0.3,0.3,0.5,0.4c0.4,0.3,0.7,0.5,1.1,0.7c1.5,0.9,3.3,1.7,5,2.4l-0.3,1c-1.9-0.4-3.8-1-5.6-1.8c-0.5-0.2-0.9-0.4-1.3-0.7
			c-0.2-0.1-0.4-0.2-0.7-0.4l-0.3-0.2l-0.2-0.1c-0.5-0.3-1.3-0.3-2.2-0.3c-1.7,0.1-3.5,0.6-5.3,1.1c-1.8,0.5-3.6,1-5.5,1.5
			c-0.9,0.2-1.9,0.5-2.8,0.7c-1,0.2-1.8,0.4-3,0.5c-2.1,0.2-4.3-0.3-6.1-1.2c-1.8-0.9-3.4-2.2-4.8-3.7c-1.3-1.5-2.5-3-3.4-4.8
			L452.2,570z"/>
	</g>
	<g id="leg_8_">
		<path class="st2" d="M437.3,578.4c-3,1.6-6.1,3.1-9.1,4.7c-0.7,0.4-1.5,0.8-2.2,1.3c-0.7,0.4-1.4,0.9-1.8,1.4
			c-0.4,0.4-0.7,1.2-1,1.9c-0.3,0.8-0.5,1.6-0.8,2.4c-1,3.3-1.9,6.6-3.1,9.9c-0.3,0.8-0.6,1.6-1.1,2.5c-0.2,0.2-0.2,0.4-0.5,0.7
			c-0.1,0.1-0.2,0.2-0.3,0.3c-0.1,0.1-0.2,0.1-0.3,0.2c-0.4,0.2-0.8,0.4-1.2,0.6c-1.6,0.8-3.2,1.4-4.9,1.9l-0.3-0.9
			c1.6-0.7,3.1-1.4,4.6-2.2c0.4-0.2,0.7-0.4,1-0.7c0.1-0.1,0.2-0.1,0.2-0.2c0-0.1,0.1-0.1,0.1-0.1c0.1,0,0.2-0.3,0.2-0.4
			c0.3-0.7,0.6-1.5,0.9-2.2c0.5-1.6,1-3.2,1.4-4.9l1.3-5c0.2-0.8,0.5-1.7,0.8-2.5c0.1-0.4,0.3-0.8,0.5-1.3c0.2-0.4,0.4-0.9,0.8-1.4
			c0.8-0.8,1.5-1.3,2.3-1.8s1.5-0.9,2.3-1.3c3.1-1.6,6.4-2.8,9.7-3.8L437.3,578.4z"/>
	</g>
	<g id="leg_9_">
		<path class="st2" d="M433.1,546.4c-2.5,2.3-5.1,4.6-7.5,7c-0.6,0.6-1.2,1.2-1.7,1.8c-0.5,0.6-1.1,1.2-1.4,1.8
			c-0.3,0.5-0.3,1.3-0.4,2.1c-0.1,0.8-0.1,1.7-0.1,2.5c0,3.4,0,6.8-0.3,10.4c-0.1,0.9-0.2,1.8-0.4,2.7c-0.1,0.2-0.1,0.4-0.3,0.8
			c-0.1,0.1-0.2,0.3-0.2,0.4c-0.1,0.1-0.2,0.2-0.2,0.3c-0.3,0.3-0.6,0.7-1,0.9c-1.3,1.2-2.8,2.2-4.2,3.1l-0.6-0.8
			c1.3-1.1,2.7-2.2,3.8-3.4c0.3-0.3,0.6-0.6,0.8-0.9c0.1-0.1,0.1-0.2,0.2-0.2c0-0.1,0-0.1,0.1-0.2c0.1-0.1,0.1-0.3,0.1-0.5
			c0.2-0.7,0.2-1.6,0.2-2.4c0.1-1.7,0-3.4,0-5.1c0-1.7,0-3.4,0-5.2c0-0.9,0-1.7,0.1-2.6c0-0.4,0.1-0.9,0.1-1.4
			c0.1-0.5,0.2-1,0.4-1.5c0.5-1,1.1-1.7,1.7-2.3c0.6-0.7,1.2-1.3,1.9-1.9c2.6-2.4,5.4-4.4,8.3-6.3L433.1,546.4z"/>
	</g>
	<g id="leg_10_">
		<path class="st2" d="M472.1,487.7c-2.8-3.4-5.4-6.9-8.3-9.8c-0.7-0.7-1.5-1.4-2.3-1.9c-0.4-0.2-0.8-0.4-1-0.4c-0.2,0-0.4,0-0.6,0
			c-0.2,0-0.4,0-0.6,0.1c-1.7,0.4-3.4,1.8-5.3,3c-1,0.6-2.1,1.2-3.4,1.4c-0.3,0.1-0.7,0.1-1,0.1l-0.5,0l-0.3,0
			c-0.5-0.1-1-0.1-1.5-0.1c-2.1-0.1-4.3-0.1-6.5-0.1c-2.2,0-4.4-0.1-6.6-0.3c-1.1-0.1-2.2-0.3-3.3-0.5c-0.6-0.1-1.1-0.3-1.7-0.6
			c-0.5-0.3-1.2-0.6-1.4-1.4l1-0.3c0.1,0.3,0.5,0.5,1,0.7s1,0.3,1.5,0.4c1,0.2,2.1,0.2,3.2,0.3c2.2,0.1,4.3,0,6.5-0.1
			c2.2-0.1,4.3-0.2,6.6-0.2c0.6,0,1.1,0,1.7,0l0.5,0.1h0.3c0.2,0,0.4,0,0.6-0.1c0.8-0.1,1.7-0.6,2.5-1.2c0.9-0.6,1.7-1.2,2.7-1.8
			c1-0.6,2-1.2,3.3-1.6c0.3-0.1,0.7-0.1,1-0.2c0.3,0,0.7,0,1,0c0.8,0.1,1.4,0.4,2,0.8c1.1,0.7,1.9,1.5,2.7,2.3
			c1.6,1.6,2.9,3.4,4.2,5.3c1.2,1.8,2.4,3.7,3.3,5.7L472.1,487.7z"/>
	</g>
	<g id="leg_11_">
		<path class="st2" d="M461.2,499.8c-2.1-1.5-4.3-3-6.5-4.1c-2.3-1.1-4.6-1.9-6.9-1.5c-2.4,0.4-4.9,1.2-7.3,2.2
			c-2.4,0.9-4.8,2-7.1,3.2l-0.1,0.1l0,0c-1.9,0.6-3.8,1.2-5.8,1.7l0,0l-0.2,0.1l-0.2-0.1l-4.7-1.8l0.3-0.9l4.7,1.8h-0.3l0,0
			c1.8-0.8,3.7-1.6,5.5-2.4l-0.1,0.1c2.3-1.4,4.7-2.6,7.1-3.8c2.5-1.1,5-2.1,7.8-2.5c0.7-0.1,1.5-0.2,2.2-0.2l1.1,0.1
			c0.4,0.1,0.7,0.2,1.1,0.2c1.4,0.4,2.7,1,3.9,1.7c2.4,1.4,4.5,3.2,6.2,5.3L461.2,499.8z"/>
	</g>
	<g id="leg_12_">
		<path class="st2" d="M481.9,499.2c3.5,0.1,6.9,0.4,10.4,1c0.9,0.2,1.7,0.3,2.6,0.6c0.9,0.2,1.7,0.5,2.7,1.1
			c0.5,0.3,0.9,0.7,1.2,1.1c0.3,0.4,0.6,0.7,0.8,1.1c0.5,0.7,1,1.5,1.5,2.2c1.8,2.9,3.5,5.9,5.4,8.8c0.5,0.7,1,1.4,1.5,1.9
			c0.1,0.1,0.3,0.3,0.3,0.3c0,0,0.1,0.1,0.1,0.1c0.1,0,0.2,0.1,0.3,0.1c0.4,0.1,0.8,0.2,1.2,0.3c1.6,0.4,3.3,0.6,5,0.9l-0.1,1
			c-1.7,0-3.5-0.2-5.2-0.4c-0.4-0.1-0.9-0.2-1.3-0.3c-0.1,0-0.2-0.1-0.3-0.1c-0.1-0.1-0.3-0.2-0.4-0.2c-0.3-0.2-0.4-0.3-0.6-0.5
			c-0.7-0.7-1.2-1.4-1.8-2.1c-2.1-2.8-3.8-5.8-5.7-8.7c-0.5-0.7-0.9-1.4-1.4-2.1c-0.5-0.7-1-1.3-1.5-1.6c-0.5-0.3-1.3-0.6-2.1-0.8
			c-0.8-0.2-1.6-0.4-2.4-0.6c-3.3-0.8-6.7-1.3-10-2L481.9,499.2z"/>
	</g>
	<g id="leg_13_">
		<path class="st2" d="M442.1,562c3.3-1.2,6.6-2.1,10-2.8c0.9-0.2,1.7-0.3,2.6-0.4c0.9-0.1,1.8-0.2,2.9,0c0.6,0.1,1.1,0.3,1.5,0.6
			c0.4,0.2,0.8,0.5,1.2,0.7c0.8,0.5,1.5,1,2.2,1.5c2.8,2.1,5.4,4.3,8.1,6.3c0.7,0.5,1.4,0.9,2.1,1.3c0.2,0.1,0.4,0.2,0.4,0.2
			c0,0,0.1,0,0.2,0.1c0.1,0,0.2,0,0.3,0c0.4,0,0.8,0,1.2-0.1c1.7-0.2,3.3-0.6,5-1l0.3,1c-1.6,0.6-3.3,1.1-5,1.5
			c-0.4,0.1-0.9,0.2-1.3,0.2c-0.1,0-0.2,0-0.4,0c-0.2,0-0.3,0-0.5-0.1c-0.3,0-0.5-0.2-0.8-0.2c-0.9-0.4-1.7-0.8-2.4-1.3
			c-3-1.9-5.7-4-8.4-6.1c-0.7-0.5-1.4-1-2.1-1.4s-1.4-0.9-1.9-1c-0.6-0.1-1.5-0.1-2.3,0c-0.8,0.1-1.7,0.2-2.5,0.3
			c-3.3,0.5-6.7,1.1-10.1,1.8L442.1,562z"/>
	</g>
	<g id="leg_14_">
		<path class="st2" d="M455.4,582.9c3.2-1.3,6.6-2.2,10-2.9c0.9-0.2,1.7-0.3,2.6-0.4c0.9-0.1,1.8-0.2,2.9,0c0.6,0.1,1.1,0.4,1.5,0.6
			c0.4,0.2,0.8,0.5,1.2,0.7c0.8,0.5,1.5,1,2.2,1.5c2.8,2.1,5.4,4.3,8.1,6.3c0.7,0.5,1.4,1,2,1.3c0.1,0.1,0.3,0.2,0.4,0.2
			c0,0,0.1,0,0.1,0.1c0.1,0,0.2,0,0.3,0c0.4,0,0.8,0,1.2-0.1c1.7-0.2,3.3-0.5,5-0.9l0.3,1c-1.6,0.6-3.3,1.2-5,1.6
			c-0.4,0.1-0.9,0.2-1.3,0.2c-0.1,0-0.2,0-0.4,0c-0.2,0-0.3,0-0.5-0.1c-0.4,0-0.5-0.2-0.8-0.2c-0.9-0.4-1.7-0.8-2.5-1.3
			c-1.5-0.9-2.9-1.9-4.3-3l-4.1-3.1c-0.7-0.5-1.4-1-2.1-1.4c-0.7-0.4-1.4-0.9-1.8-1c-0.6-0.1-1.4-0.1-2.2-0.1
			c-0.8,0-1.6,0.1-2.5,0.3c-3.3,0.4-6.7,1.1-10.1,1.6L455.4,582.9z"/>
	</g>
	<g id="leg_15_">
		<path class="st2" d="M430.2,563.7c-2.6,2.3-5.2,4.5-7.6,6.9c-0.6,0.6-1.2,1.2-1.7,1.8c-0.5,0.6-1.1,1.3-1.4,1.8
			c-0.3,0.5-0.3,1.3-0.4,2.2c-0.1,0.8-0.1,1.7-0.1,2.5c-0.1,3.4,0,6.9-0.2,10.4c-0.1,0.9-0.2,1.8-0.4,2.7c-0.1,0.2-0.1,0.4-0.3,0.8
			c-0.1,0.1-0.2,0.3-0.2,0.4c-0.1,0.1-0.2,0.2-0.2,0.3c-0.3,0.3-0.6,0.7-1,0.9c-1.3,1.2-2.7,2.2-4.2,3.2l-0.6-0.8
			c1.3-1.1,2.7-2.2,3.8-3.3c0.3-0.3,0.6-0.6,0.8-0.9c0.1-0.1,0.1-0.2,0.2-0.2c0-0.1,0-0.1,0.1-0.2c0.1-0.1,0.1-0.3,0.1-0.5
			c0.2-0.7,0.2-1.6,0.3-2.4c0.1-3.4,0-6.8,0-10.3c0-0.9,0-1.7,0.1-2.6c0-0.4,0.1-0.9,0.1-1.4c0.1-0.5,0.2-1,0.4-1.5
			c0.5-0.9,1.1-1.6,1.7-2.3s1.2-1.3,1.9-1.9c2.6-2.3,5.3-4.4,8.2-6.4L430.2,563.7z"/>
	</g>
	<g id="leg_16_">
		<path class="st2" d="M512.3,455.5c1.7-0.1,3.4-0.1,5.1,0c1.7,0.1,3.4,0.3,5.1,0.7c0.8,0.2,1.7,0.4,2.6,0.8
			c0.4,0.2,0.9,0.4,1.3,0.7c0.4,0.3,0.8,0.6,1.1,0.9c1.3,1.2,2.5,2.3,3.7,3.5l3.4,3.6c1.1,1.2,2.2,2.4,3.3,3.5l0.4,0.4
			c0.2,0.1,0.1,0.1,0.4,0.3c0.5,0.3,0.8,0.6,1.1,0.9c0.7,0.6,1.2,1.2,1.8,1.8l1.7,1.8l0.9,0.9c0.3,0.3,0.6,0.6,0.8,0.7l-0.3,0.9
			c-0.6-0.2-0.9-0.4-1.3-0.7c-0.4-0.2-0.7-0.5-1-0.7c-0.7-0.5-1.3-1-2-1.5c-0.6-0.5-1.3-1-1.9-1.5c-0.3-0.2-0.7-0.4-0.9-0.6
			c-0.1-0.1-0.5-0.3-0.7-0.4l-0.5-0.4c-2.6-2.2-4.9-4.6-7.3-6.8c-1.2-1.1-2.3-2.3-3.5-3.3c-0.3-0.3-0.6-0.5-0.9-0.7
			c-0.3-0.2-0.5-0.3-0.8-0.5c-0.6-0.3-1.4-0.5-2.1-0.8c-3-0.9-6.3-1.6-9.5-2.5L512.3,455.5z"/>
	</g>
	<g id="leg_17_">
		<path class="st2" d="M497.8,450.7c-0.8-2.2-1.6-4.5-2.6-6.5c-0.5-1-1.1-2-1.7-2.9c-0.6-0.9-1.4-1.6-2.1-2c-0.9-0.4-2-0.7-3.1-1
			c-1.1-0.3-2.3-0.6-3.4-0.8c-2.3-0.5-4.7-0.9-7-1.3c-2.3-0.4-4.7-0.7-7.1-1c-1.2-0.1-2.4-0.3-3.5-0.4c-0.5-0.1-1.2-0.1-1.6-0.1
			c0,0,0,0,0,0c0,0,0,0-0.1,0c-0.2,0.1-0.4,0.2-0.6,0.2c-0.3,0.1-0.7,0.1-1,0.2c-2.5,0.4-4.9,0.5-7.3,0.5c-1.2,0-2.5-0.1-3.7-0.2
			c-1.2-0.2-2.5-0.3-3.7-1l0.5-0.9c0.9,0.4,2.2,0.4,3.3,0.5c1.2,0,2.3-0.1,3.5-0.1c2.3-0.2,4.7-0.5,7-1c0.3-0.1,0.5-0.1,0.8-0.2
			c0.2,0,0.2-0.1,0.3-0.1c0,0,0.2-0.1,0.3-0.1c0.1,0,0.3-0.1,0.4-0.1c0.8-0.1,1.4-0.1,2-0.1c1.2,0,2.5,0.1,3.7,0.2
			c2.4,0.2,4.8,0.5,7.2,0.8c2.4,0.3,4.8,0.7,7.2,1.2c1.2,0.2,2.4,0.5,3.6,0.8c0.6,0.2,1.2,0.3,1.8,0.5c0.6,0.2,1.2,0.5,1.9,0.8
			c1.4,0.8,2.3,1.9,3,3c0.7,1.1,1.2,2.3,1.7,3.5c0.8,2.4,1.3,4.8,1.5,7.3L497.8,450.7z"/>
	</g>
	<g id="leg_18_">
		<path class="st2" d="M492.9,462.4c-0.4-2.5-1.6-4.8-3.2-6.7c-1.6-1.9-3.7-3.2-6-4.7c-2.2-1.5-4.4-3-6.7-4.4
			c-1.1-0.7-2.3-1.4-3.4-2c-0.6-0.3-1.1-0.6-1.7-0.8c-0.5-0.2-1.2-0.5-1.5-0.5l-0.1,0l-0.3,0l-0.5-0.1l-1-0.1l-2-0.3
			c-1.3-0.2-2.7-0.4-4-0.7c-2.7-0.5-5.3-1.1-8-1.8c-1.3-0.4-2.6-0.8-3.9-1.3c-0.7-0.3-1.3-0.6-2-1c-0.6-0.4-1.1-0.9-1.6-1.3
			c-2.1-1.7-4.2-3.4-6.2-5.2l0.6-0.8c2.2,1.5,4.4,3,6.6,4.6c0.5,0.4,1.1,0.8,1.6,1.1c0.5,0.3,1.1,0.5,1.7,0.7c1.2,0.4,2.5,0.7,3.8,1
			c2.6,0.6,5.2,1,7.8,1.4l4,0.5l2,0.2l2,0.2c1,0.2,1.6,0.4,2.3,0.7c0.7,0.3,1.3,0.6,1.9,0.9c1.2,0.6,2.4,1.3,3.6,2
			c2.3,1.4,4.6,2.9,6.8,4.5c0.5,0.4,1.1,0.8,1.6,1.2c0.5,0.4,1.1,0.8,1.6,1.3c1.1,0.9,2.1,2,2.9,3.2c1.6,2.4,2.6,5.3,2.3,8.2
			L492.9,462.4z"/>
	</g>
	<g id="leg_19_">
		<path class="st2" d="M505.2,469.9c3.3,0.1,6.5,0.4,9.7,1c1.6,0.3,3.2,0.7,4.8,1.2c0.4,0.2,0.8,0.3,1.2,0.5
			c0.2,0.1,0.4,0.2,0.7,0.3c0.3,0.2,0.5,0.4,0.7,0.6c0.8,0.8,1.1,1.7,1.4,2.6c0.9,3.4,0.8,6.7,1,9.9c0,0.8,0.1,1.6,0.2,2.2l0,0.2
			c0,0,0,0.1,0.1,0.1c0.1,0.1,0.2,0.3,0.3,0.4c0.2,0.3,0.5,0.6,0.7,0.9c1,1.1,2.3,2.2,3.5,3.2l-0.6,0.8c-1.4-0.9-2.7-1.8-4-2.9
			c-0.3-0.3-0.6-0.6-0.9-0.9c-0.2-0.2-0.3-0.3-0.4-0.5c-0.1-0.1-0.2-0.2-0.2-0.4c-0.1-0.1-0.1-0.3-0.2-0.4c-0.3-0.9-0.3-1.7-0.4-2.6
			c-0.2-1.6-0.2-3.2-0.4-4.8c-0.2-1.6-0.4-3.1-0.8-4.5c-0.2-0.7-0.5-1.3-0.9-1.7c-0.2-0.2-1-0.5-1.7-0.8c-1.4-0.5-3-0.8-4.5-1.2
			c-3.1-0.7-6.2-1.4-9.4-2.2L505.2,469.9z"/>
	</g>
	<g id="leg_20_">
		<path class="st2" d="M496.2,485.8c2.7-0.9,5.5-1.7,8.4-2.1c1.5-0.2,2.9-0.4,4.5-0.2c0.2,0.1,0.4,0.1,0.7,0.2
			c0.3,0.1,0.5,0.2,0.8,0.4c0.6,0.5,0.8,1,0.9,1.4c0.3,0.9,0.3,1.6,0.4,2.4c0.1,2.9-0.2,5.8,0.1,8.4c0.1,0.7,0.2,1.3,0.4,1.8
			c0.1,0.3,0.2,0.4,0.4,0.6c0,0,0.1,0.1,0.1,0.1l0.2,0.1c0.1,0.1,0.3,0.2,0.4,0.3c0.6,0.3,1.2,0.7,1.8,0.9c0.6,0.2,1.3,0.4,1.8,0.4
			l0.2,1c-0.9,0.1-1.6,0-2.4-0.2c-0.7-0.2-1.4-0.5-2.1-0.8c-0.2-0.1-0.3-0.2-0.5-0.2l-0.2-0.1c-0.1-0.1-0.2-0.1-0.3-0.2
			c-0.4-0.3-0.7-0.7-0.9-1.1c-0.4-0.8-0.6-1.5-0.7-2.3c-0.5-3-0.2-5.9-0.4-8.6c0-0.7-0.1-1.3-0.3-1.8c-0.1-0.2-0.2-0.4-0.2-0.4
			c-0.1,0-0.1,0-0.2-0.1l-0.4-0.1c-0.5-0.1-1.2-0.1-1.9-0.1c-0.7,0-1.4,0.1-2,0.1c-2.8,0.3-5.6,0.7-8.4,1.1L496.2,485.8z"/>
	</g>
	<g id="leg_21_">
		<path class="st2" d="M482.9,477.8c-1.7-2-3.5-3.9-5.3-5.8c-1.8-1.8-3.7-3.6-5.8-4.9c-0.5-0.4-1-0.6-1.6-0.9
			c-0.3-0.2-0.5-0.2-0.8-0.3c-0.3-0.1-0.5-0.2-0.8-0.3c-1.2-0.4-2.5-0.6-3.7-0.9c-2.5-0.5-5.2-0.9-7.8-1.2s-5.2-0.7-7.8-1l-3.9-0.5
			l-1-0.1l-0.3,0l-0.1,0l-0.1,0v0c0,0,0,0,0,0c0,0-0.1,0-0.2,0c-0.5,0.1-1.2,0.3-1.8,0.5c-2.5,0.9-4.9,1.8-7.4,2.7
			c-1.2,0.4-2.5,0.9-3.8,1.3c-1.3,0.4-2.6,0.8-4,0.8l0-1c1.2-0.2,2.4-0.7,3.6-1.1c1.2-0.5,2.4-1,3.7-1.5c2.4-1,4.8-2.1,7.3-3.1
			c0.6-0.2,1.2-0.5,2-0.7c0.1,0,0.1-0.1,0.3-0.1c0.2,0,0.3,0,0.5,0h0.1l0,0l0.1,0l0.2,0l1,0.1l4,0.3c2.6,0.2,5.3,0.5,7.9,0.8
			c2.6,0.3,5.3,0.7,7.9,1.2c1.3,0.3,2.6,0.5,4,0.9c0.3,0.1,0.7,0.2,1,0.4c0.3,0.2,0.7,0.3,1,0.4c0.6,0.3,1.3,0.7,1.8,1.1
			c2.3,1.6,4.2,3.6,6,5.6c1.7,2.1,3.2,4.3,4.5,6.7L482.9,477.8z"/>
	</g>
	<g id="leg_22_">
		<path class="st2" d="M529.9,397.3c0.8-1.7,1.8-3.2,2.9-4.6c1.1-1.4,2.3-2.7,3.7-3.9c1.3-1.2,2.7-2.3,4.2-3.3
			c1.4-1.1,2.9-2.1,4.4-3.1c2.9-2,6.1-3.9,9.4-5.4c3.2-1.5,6.5-2.9,9.7-4.2c3.2-1.3,6.3-2.6,8.4-4.7c0.3-0.2,0.5-0.5,0.7-0.8
			l0.3-0.4l0.3-0.5c0.5-0.7,0.9-1.4,1.4-2.1c0.9-1.4,1.8-2.9,2.6-4.4c1.7-3,3.3-6.1,4.9-9.2c0.8-1.5,1.6-3.1,2.3-4.7
			c0.7-1.6,1.5-3.2,2-4.8l1,0.2c-0.7,3.6-1.9,6.8-3.1,10.2c-1.3,3.3-2.6,6.5-4.1,9.7c-0.8,1.6-1.5,3.2-2.4,4.8
			c-0.4,0.8-0.8,1.6-1.3,2.4l-0.4,0.6l-0.4,0.6c-0.3,0.4-0.6,0.8-1,1.2c-1.4,1.5-3,2.6-4.6,3.6c-1.6,0.9-3.2,1.7-4.8,2.5
			c-6.4,2.9-12.5,5.7-18,9.6c-1.4,1-2.8,2-4.1,3s-2.7,2.1-4.1,3.1c-2.8,2-5.6,4-9.1,5.4L529.9,397.3z"/>
	</g>
	<g id="leg_23_">
		<path class="st2" d="M531,403.2c2.3-0.7,4.7-1.1,7-1.3c2.4-0.3,4.8-0.4,7.2-0.3c2.4,0.1,4.8,0.3,7.3,0.8c0.6,0.1,1.2,0.3,1.8,0.5
			c0.6,0.2,1.2,0.4,1.8,0.6l3.2,1.4c4.3,1.8,8.7,3.6,13,5.9c1.1,0.6,2.1,1.2,3.1,1.8c1,0.7,2,1.3,3,2c1.9,1.4,3.9,3.1,4.9,5.4
			l-0.9,0.4c-1.2-1.8-3.1-3.2-5-4.4c-2-1.2-4.1-2.2-6.2-3.2c-4.2-1.9-8.6-3.5-13-5.2l-3.3-1.3c-0.5-0.2-1-0.4-1.5-0.5
			c-0.5-0.1-1.1-0.3-1.6-0.4c-2.2-0.4-4.5-0.6-6.8-0.7c-4.6-0.2-9.3-0.2-14-0.5L531,403.2z"/>
	</g>
	<g id="leg_24_">
		<path class="st2" d="M517,397.8c-2.6-3-4.9-6.2-7.3-9.2l-3.6-4.6c-1.2-1.5-2.5-3.1-3.7-4.2c-0.2-0.1-0.3-0.3-0.4-0.3
			c0,0-0.2-0.1-0.1-0.1c0,0,0.1,0-0.1,0c-0.5-0.1-1.1-0.3-1.6-0.5l-0.6-0.2c-0.2-0.1-0.3-0.1-0.4-0.1c-0.2,0-0.6,0-1,0.2
			c-1.7,0.5-3.5,1.4-5.3,2.2c-1.8,0.8-3.6,1.7-5.4,2.4c-0.9,0.4-1.8,0.8-2.8,1.1c-1,0.3-1.9,0.7-3,0.8l-0.1-1
			c0.8-0.2,1.7-0.7,2.5-1.1c0.9-0.4,1.7-0.9,2.6-1.4c1.7-1,3.4-2,5.2-2.9c1.8-0.9,3.4-1.9,5.5-2.7c0.5-0.2,1.2-0.3,1.9-0.3
			c0.4,0,0.8,0.1,1.1,0.2c0.3,0.1,0.6,0.2,0.8,0.3c0.5,0.2,0.8,0.3,1.3,0.4c0,0,0.3,0.1,0.6,0.2c0.3,0.1,0.3,0.2,0.5,0.3
			c0.3,0.2,0.5,0.4,0.8,0.6c1.7,1.5,2.9,3,4.1,4.6c1.2,1.6,2.4,3.2,3.5,4.8c2.2,3.3,4.3,6.7,6,10.2L517,397.8z"/>
	</g>
	<g id="leg_25_">
		<path class="st2" d="M522.6,421.6c2.3,0,4.5,0.3,6.7,0.8c2.2,0.5,4.3,1.1,6.4,2c2.1,0.9,4.1,1.8,6.1,3.1c2,1.2,3.8,2.8,5.2,4.5
			c1.5,1.6,2.9,3.4,4.3,5.1c1.3,1.8,2.6,3.6,3.8,5.4c1.2,1.8,2.4,3.7,3.4,5.7c1,2,2.1,3.9,2.7,6.2l-1,0.2c-0.3-0.9-0.9-1.9-1.5-2.8
			c-0.6-0.9-1.2-1.8-1.8-2.7c-1.2-1.8-2.5-3.5-3.8-5.3c-2.6-3.4-5.4-6.8-8.3-9.9c-1.5-1.6-3-2.8-4.8-3.9c-1.8-1.1-3.7-2-5.6-2.8
			c-3.9-1.6-8-3-12.1-4.6L522.6,421.6z"/>
	</g>
	<g id="leg_26_">
		<path class="st2" d="M507.5,416.2c-1.6-1.5-3-3.1-4.5-4.7c-1.4-1.6-2.8-3.2-4.2-4.6c-0.2-0.2-0.3-0.3-0.5-0.4l-0.2-0.2
			c0,0,0,0,0,0c-0.2-0.1-0.8-0.2-1.3-0.4l-3.1-0.7l-6.3-1.3c-2.1-0.4-4.2-0.8-6.3-1.2c-1-0.2-2.1-0.3-3.1-0.4l-0.7-0.1
			c-0.2,0-0.4,0-0.6,0c-0.4,0.1-0.9,0.2-1.4,0.3c-2,0.6-4,1.4-6,2.2c-1,0.4-2,0.8-3,1.2l-1.4,0.7c-0.2,0.1-0.5,0.2-0.7,0.4l-0.3,0.2
			l-0.2,0.2l-0.8-0.6c0.1-0.1,0.2-0.3,0.4-0.4l0.3-0.3c0.2-0.2,0.5-0.3,0.7-0.5c0.5-0.3,0.9-0.6,1.4-0.9c0.9-0.6,1.9-1.1,2.8-1.6
			c1.9-1,3.9-2,6-2.8c0.5-0.2,1.1-0.4,1.7-0.6c0.3-0.1,0.8-0.1,1-0.1l0.9,0c1.1,0.1,2.2,0.2,3.3,0.3c2.2,0.2,4.3,0.6,6.5,0.9
			c2.2,0.3,4.3,0.7,6.4,1.2c1.1,0.2,2.1,0.4,3.2,0.7c0.6,0.2,1,0.2,1.8,0.5c0.2,0.1,0.5,0.2,0.7,0.4l0.4,0.3
			c0.3,0.2,0.5,0.4,0.7,0.6c0.9,0.8,1.6,1.7,2.2,2.6c0.7,0.9,1.3,1.8,1.9,2.7c1.2,1.8,2.2,3.8,3.1,5.8L507.5,416.2z"/>
	</g>
	<g id="leg_27_">
		<path class="st2" d="M502.7,435c-4.9-2.6-9.6-5.5-14.3-8.4c-2.3-1.4-4.7-2.9-7.1-4.1c-0.6-0.3-1.2-0.6-1.8-0.8
			c-0.3-0.1-0.5-0.2-0.8-0.2l-0.3,0l-0.6,0c-1.5-0.1-2.9-0.3-4.2-0.6c-1.4-0.2-2.7-0.4-4-0.5c-0.7-0.1-1.3-0.1-1.9,0
			c-0.6,0-1.1,0.2-1.5,0.3c-0.1,0-0.4,0.3-0.7,0.5l-0.8,0.6l-1.6,1.3c-1.1,0.9-2.2,1.7-3.3,2.5c-2.3,1.7-4.6,3.2-7.1,4.5
			c-1.3,0.7-2.6,1.2-4,1.7c-0.7,0.2-1.4,0.4-2.2,0.4c-0.8,0.1-1.5,0-2.3-0.3l0.3-0.9c1.2,0.3,2.5-0.1,3.7-0.5
			c1.2-0.5,2.4-1.1,3.6-1.8c2.3-1.4,4.5-3.1,6.6-4.8c1.1-0.9,2.1-1.8,3.2-2.6l1.6-1.3l0.8-0.7c0.3-0.2,0.5-0.4,1-0.7
			c0.9-0.5,1.8-0.7,2.5-0.8c0.8-0.1,1.5-0.1,2.3,0c1.5,0.1,2.9,0.3,4.2,0.5c1.4,0.2,2.7,0.4,4,0.4l0.5,0c0.2,0,0.5,0.1,0.7,0.1
			c0.4,0.1,0.8,0.2,1.2,0.3c0.7,0.3,1.4,0.6,2.1,0.9c2.6,1.3,5,2.7,7.4,4.2c4.7,3,9.2,6.3,13.3,10.1L502.7,435z"/>
	</g>
	<g id="leg_28_">
		<path class="st2" d="M518.4,439.1c2.7,2.3,5.7,3.9,9,4.5c1.7,0.3,3.8,0.6,5.8,1.8c1,0.6,1.8,1.4,2.4,2.1c0.6,0.7,1.2,1.3,1.8,2
			c0.3,0.3,0.6,0.6,1,0.9l1,0.9c0.7,0.7,1.4,1.3,2,2c1.3,1.4,2.5,2.8,3.6,4.3c1.2,1.4,2.3,2.9,3.3,4.4l1.6,2.2l0.8,1.1
			c0.1,0.2,0.3,0.3,0.4,0.5c0.2,0.2,0.3,0.3,0.4,0.4l-0.4,0.9l-0.4-0.2c-0.1-0.1-0.2-0.2-0.3-0.2c-0.2-0.2-0.4-0.3-0.5-0.5
			c-0.4-0.3-0.7-0.7-1-1c-0.7-0.7-1.3-1.3-1.9-2l-3.8-4c-1.3-1.3-2.5-2.7-3.8-3.9c-0.6-0.6-1.3-1.2-2-1.8l-1.1-0.9
			c-0.4-0.3-0.7-0.6-1.1-1c-0.7-0.7-1.4-1.4-2-2c-0.6-0.7-1.1-1.2-1.7-1.5c-0.6-0.4-1.3-0.6-2.1-0.8c-0.4-0.1-0.8-0.2-1.2-0.3
			c-0.4-0.1-0.8-0.2-1.4-0.3c-2-0.4-3.9-1.2-5.5-2.5c-1.6-1.2-2.9-2.7-3.7-4.6L518.4,439.1z"/>
	</g>
	<g id="leg_29_">
		<path class="st2" d="M525,394.2c-0.1-3.7,0.4-7.1,0.7-10.5c0.2-1.7,0.4-3.3,0.4-4.9c0-1.6,0-3.2-0.3-4.9c-0.1-0.8-0.3-1.6-0.5-2.4
			c-0.2-0.8-0.4-1.7-0.6-2.4c-0.4-1.6-1-3.1-1.6-4.8l-1-2.5c-0.3-0.9-0.7-1.8-0.9-3.1c0-0.2,0-0.4,0-0.6c0-0.2,0-0.5,0.1-0.7
			c0-0.1,0.1-0.3,0.1-0.4l0-0.1l0.1-0.2l0.3-1.2l0.7-2.6c0.9-3.4,2-6.8,3.1-10.2c0.6-1.7,1.2-3.4,2-5.1l0.6-1.3l0.7-1.3
			c0.5-0.7,0.9-1.4,1.4-2.2c0.9-1.5,1.8-3.1,2.9-4.6c1.1-1.5,2.2-2.9,3.3-4.2c2.3-2.8,4.6-5.4,7-8.1l0.8,0.6c-2,2.9-4,5.8-5.9,8.8
			c-1,1.5-1.9,2.9-2.8,4.4c-0.9,1.5-1.6,3-2.4,4.6c-0.4,0.8-0.8,1.6-1.3,2.4l-0.5,1.1l-0.5,1.1c-0.6,1.6-1.1,3.2-1.6,4.9
			c-1,3.3-1.8,6.7-2.6,10.1l-0.6,2.6l-0.3,1.3l-0.1,0.4l0,0.2c0,0,0-0.1,0-0.1c0-0.1,0-0.1,0-0.1c0,0,0,0,0,0.1
			c0.1,0.4,0.3,1.2,0.7,1.9l1,2.4c0.7,1.7,1.4,3.4,1.9,5.2c0.3,0.9,0.5,1.8,0.7,2.7c0.2,0.9,0.4,1.8,0.5,2.8
			c0.6,3.8,0.5,7.7-0.2,11.3c-0.8,3.6-2.2,7.1-4.5,10L525,394.2z"/>
	</g>
	<path id="skull_mouth_cover" class="st3" d="M451,602.9c1-1.4,2.1-2.9,3.1-4.6c3.4-5.5,5.4-10.9,6.6-15.4"/>
</g>
</svg>
