<?xml version="1.0" encoding="utf-8"?>
<!-- Generator: Adobe Illustrator 23.0.2, SVG Export Plug-In . SVG Version: 6.00 Build 0)  -->
<svg version="1.1" id="Layer_1" xmlns="http://www.w3.org/2000/svg" xmlns:xlink="http://www.w3.org/1999/xlink" x="0px" y="0px"
	 viewBox="0 0 173.37 313.85" style="enable-background:new 0 0 173.37 313.85;" xml:space="preserve">
<style type="text/css">
	.st0{fill:url(#SVGID_1_);stroke:#000000;stroke-miterlimit:10;}
</style>
<linearGradient id="SVGID_1_" gradientUnits="userSpaceOnUse" x1="19.1108" y1="52.5139" x2="172.8849" y2="52.5139">
	<stop  offset="0" style="stop-color:#000000"/>
	<stop  offset="1" style="stop-color:#FFFFFF"/>
</linearGradient>
<path class="st0" d="M25.19,4.29c0,0,126.85,9.05,147.69,96.45c0,0-30.85-78.56-153.77-64.33L25.19,4.29z"/>
<g>
	<path d="M36.72,4.97c-7.51,24.69-13.46,49.9-17.67,75.44c-4.23,25.54-6.73,51.39-7.61,77.34c-0.78,25.95,0.07,51.99,2.68,77.9
		c2.6,25.91,6.97,51.67,12.96,77.09l-4.26,1.11c-7.17-25.31-12.74-51.12-16.54-77.23c-3.81-26.11-5.85-52.51-6.24-78.97
		c-0.29-26.46,1.1-52.98,4.26-79.33C7.45,51.96,12.41,25.79,19.01,0L36.72,4.97z"/>
</g>
</svg>
