<?xml version="1.0" encoding="utf-8"?>
<!-- Generator: Adobe Illustrator 23.0.2, SVG Export Plug-In . SVG Version: 6.00 Build 0)  -->
<svg version="1.1" id="Layer_1" xmlns="http://www.w3.org/2000/svg" xmlns:xlink="http://www.w3.org/1999/xlink" x="0px" y="0px"
	 viewBox="0 0 303.28 439.21" style="enable-background:new 0 0 303.28 439.21;" xml:space="preserve">
<style type="text/css">
	.st0{fill:#63594B;}
</style>
<g>
	<g>
		<g>
			<polygon class="st0" points="112.23,439.21 136.75,218.41 142.32,228.81 94.46,196.96 108.35,196.94 80.56,215.56 85.7,208.32 
				63.56,258.02 56.65,256.23 61.5,202.03 61.86,197.99 66.64,194.79 94.43,176.17 101.36,171.52 108.31,176.15 156.17,208 
				160.94,211.18 161.75,218.41 186.26,439.21 			"/>
		</g>
		<g>
			<polygon class="st0" points="89.34,189.88 80.43,126.1 88.38,123.91 113.44,183.23 			"/>
		</g>
		<g>
			<polygon class="st0" points="1.55,126.29 95.07,140.38 88.91,164.61 0,132.38 			"/>
		</g>
		<g>
			<polygon class="st0" points="116.86,205.17 116.86,118.41 122.53,128.88 32.29,59.31 36.2,53.32 136.2,107.94 141.86,111.04 
				141.86,118.41 141.86,205.17 			"/>
		</g>
		<g>
			<polygon class="st0" points="137.69,213.66 183.16,102.99 185.25,97.91 189.52,96.38 289.28,60.5 292.24,66.95 199.93,119.1 
				206.29,112.49 160.81,223.16 			"/>
		</g>
		<g>
			<polygon class="st0" points="224.22,38.02 237.24,92.89 212.33,95.03 215.78,38.75 			"/>
		</g>
		<g>
			<polygon class="st0" points="171.9,140.1 143.95,73.69 141.24,67.24 144.42,63 177.64,18.73 184.33,22.26 166.53,74.67 
				166.99,63.99 194.94,130.4 			"/>
		</g>
		<g>
			<polygon class="st0" points="134.39,0.05 141.86,118.49 116.86,118.33 125.78,0 			"/>
		</g>
		<g>
			<polygon class="st0" points="154.13,192.69 245.52,188.62 251.88,188.33 254.35,191.74 277.4,223.45 272.1,229.44 237.8,210.47 
				246.63,213.59 155.24,217.66 			"/>
		</g>
		<g>
			<polygon class="st0" points="169.55,152.21 251.85,140.13 247.85,141.43 300.23,124.32 303.28,130.14 259.48,163.56 
				258.32,164.45 255.48,164.86 173.18,176.95 			"/>
		</g>
	</g>
</g>
<g>
	<polygon class="st0" points="90.91,23.12 135.36,60.69 124.8,71.66 85.58,28.65 	"/>
</g>
<g>
	<polygon class="st0" points="209.58,198.24 230.72,233.72 226.81,231.03 256.56,242.3 253.98,251.36 222.76,245.26 221.01,244.91 
		218.85,242.56 190.93,212.11 	"/>
</g>
<g>
	<polygon class="st0" points="69.04,152.13 40.81,179.97 37.8,182.95 35.22,182.92 1.28,182.54 0.27,173.64 33.26,165.65 
		27.67,168.6 51.17,136.67 	"/>
</g>
</svg>
