<?xml version="1.0" encoding="utf-8"?>
<!-- Generator: Adobe Illustrator 23.0.2, SVG Export Plug-In . SVG Version: 6.00 Build 0)  -->
<svg version="1.1" id="Layer_1" xmlns="http://www.w3.org/2000/svg" xmlns:xlink="http://www.w3.org/1999/xlink" x="0px" y="0px"
	 viewBox="0 0 332 220.9" style="enable-background:new 0 0 332 220.9;" xml:space="preserve">
<style type="text/css">
	.st0{clip-path:url(#SVGID_2_);fill:url(#SVGID_3_);stroke:#000000;stroke-miterlimit:10;}
	.st1{clip-path:url(#SVGID_2_);fill:url(#SVGID_4_);stroke:#000000;stroke-miterlimit:10;}
</style>
<g>
	<defs>
		<rect id="SVGID_1_" width="332" height="220.9"/>
	</defs>
	<clipPath id="SVGID_2_">
		<use xlink:href="#SVGID_1_"  style="overflow:visible;"/>
	</clipPath>
	
		<linearGradient id="SVGID_3_" gradientUnits="userSpaceOnUse" x1="0.5" y1="51.1938" x2="331.96" y2="51.1938" gradientTransform="matrix(1 0 0 -1 0 222.9876)">
		<stop  offset="0" style="stop-color:#5E4100"/>
		<stop  offset="0.1453" style="stop-color:#4C3500"/>
		<stop  offset="0.5232" style="stop-color:#231800"/>
		<stop  offset="0.8211" style="stop-color:#090700"/>
		<stop  offset="1" style="stop-color:#000000"/>
	</linearGradient>
	<ellipse class="st0" cx="166.2" cy="171.8" rx="165.7" ry="48.6"/>
	
		<linearGradient id="SVGID_4_" gradientUnits="userSpaceOnUse" x1="97.4608" y1="131.9931" x2="236.7876" y2="131.9931" gradientTransform="matrix(1 0 0 -1 0 222.9876)">
		<stop  offset="0" style="stop-color:#5E4100"/>
		<stop  offset="0.2096" style="stop-color:#5A3E00"/>
		<stop  offset="0.415" style="stop-color:#4E3600"/>
		<stop  offset="0.6188" style="stop-color:#3B2900"/>
		<stop  offset="0.8203" style="stop-color:#1F1600"/>
		<stop  offset="1" style="stop-color:#000000"/>
	</linearGradient>
	<path class="st1" d="M97.6,166.4c-0.3-11.9,0-25.1,1.4-39.5c1.5-16,4-30.4,6.8-43.1c5.5-9.4,12.2-19.8,20.4-30.6
		c8.1-10.6,16.2-19.8,23.7-27.5c10.6-5.5,22.9-11.1,36.7-16.1c10.8-3.9,20.9-6.9,30.3-9.2c10.8-1.3,18.6,0.2,19.7,3.8
		c0.3,0.8,0.4,2.4-1.8,5.2c-6,8.5-13,20.9-16.7,36.8c-1.1,4.6-1.7,9-2.1,13c4.8,14.1,9.6,31.8,12.5,52.6c2.9,21,3.1,39.5,2.2,54.5
		c-12.3,6.1-37.3,16.3-70.3,15.5C131.6,181.2,109.5,172.3,97.6,166.4z"/>
	<g style="clip-path:url(#SVGID_2_);enable-background:new    ;">
		
			<image style="overflow:visible;" width="338" height="97" xlink:href="5F81712A095019BB.png"  transform="matrix(1 0 0 1 96.6381 86.2253)">
		</image>
	</g>
</g>
</svg>
